<?xml version="1.0" encoding="utf-8"?>
<!-- Generator: Adobe Illustrator 26.3.1, SVG Export Plug-In . SVG Version: 6.00 Build 0)  -->
<svg version="1.1" id="Layer_1" xmlns="http://www.w3.org/2000/svg" xmlns:xlink="http://www.w3.org/1999/xlink" x="0px" y="0px"
	 viewBox="0 0 285 300" style="enable-background:new 0 0 285 300;" xml:space="preserve">
<style type="text/css">
	.st0{fill:#FF0000;}
</style>
<g id="Layer_x0020_1">
	<path class="st0" d="M238.4,60.3h-1.2c-1.6,0-3-1.4-3-3V46.8c0-6.3-1.3-12.3-3.6-17.8c-2.3-5.7-5.8-10.8-10.1-15.1
		s-9.4-7.8-15.2-10.2c-5.5-2.2-11.5-3.5-17.7-3.5H96.7c-6.3,0-12.3,1.3-17.7,3.5c-5.7,2.4-10.9,5.9-15.2,10.2
		C59.5,18.2,56,23.3,53.7,29c-2.3,5.5-3.6,11.5-3.6,17.8v10.4c0,1.6-1.4,3-3,3h-0.5c-6.3,0-12.3,1.3-17.8,3.6
		c-5.7,2.3-10.8,5.8-15.1,10.1S5.9,83.4,3.5,89.1C1.3,94.5,0,100.6,0,106.9v69.8c0,6.3,1.3,12.3,3.5,17.8
		c2.4,5.7,5.9,10.8,10.2,15.1c4.3,4.4,9.4,7.8,15.1,10.2c5.5,2.2,11.5,3.5,17.8,3.5H47c1.6,0,3,1.4,3,3.1v48.6
		c0,3.3,0.7,6.5,1.9,9.4c1.3,3,3,5.7,5.3,8l0.1,0.1c2.3,2.3,5.1,4.2,8.1,5.4c2.9,1.3,6.1,1.9,9.5,1.9h134.2c3.4,0,6.6-0.7,9.6-1.9
		c3-1.2,5.7-3,7.9-5.2l0.1-0.2c2.3-2.3,4.2-5,5.4-8c1.3-3,1.9-6.1,1.9-9.5v-48.6c0-1.7,1.4-3.1,3-3.1h1.3c6.3,0,12.3-1.3,17.8-3.5
		c5.7-2.4,10.8-5.8,15.1-10.2c4.3-4.3,7.8-9.4,10.2-15.1c2.2-5.5,3.5-11.5,3.5-17.8v-69.8c0-6.3-1.3-12.3-3.5-17.8
		c-2.4-5.7-5.9-10.8-10.2-15.1l0,0c-4.3-4.3-9.4-7.8-15.1-10.1C250.8,61.5,244.8,60.3,238.4,60.3z M232,109.5h-16.6
		c-1.6,0-3.1,0.3-4.4,0.9c-1.4,0.5-2.6,1.4-3.8,2.4c-1.1,1.1-1.9,2.4-2.4,3.8c-0.6,1.3-0.9,2.8-0.9,4.4c0,3.2,1.3,6,3.3,8.1
		c1.1,1.1,2.4,1.9,3.8,2.5c1.3,0.5,2.8,0.9,4.4,0.9H232c1.5,0,3-0.3,4.4-0.9c1.4-0.6,2.6-1.4,3.7-2.4l0.3-0.3c1-1,1.8-2.2,2.3-3.5
		c0.5-1.4,0.9-2.8,0.9-4.4s-0.3-3.1-0.9-4.4c-0.5-1.3-1.3-2.5-2.3-3.6l-0.2-0.1c-1.1-1.1-2.2-1.9-3.6-2.5h-0.1
		C235,109.8,233.5,109.5,232,109.5z M74.9,37.8c1.2-2.8,3-5.5,5.1-7.7c2.2-2.2,4.8-3.9,7.7-5.1c2.8-1.1,5.8-1.8,9-1.8h90.8
		c3.2,0,6.2,0.7,9,1.8c2.8,1.2,5.3,2.8,7.4,4.9l0.3,0.2c2.2,2.2,3.9,4.7,5.1,7.7c1.1,2.8,1.8,5.9,1.8,9v10.4c0,1.6-1.4,3-3.1,3H76.1
		c-1.7,0-3.1-1.4-3.1-3V46.8C73,43.7,73.7,40.6,74.9,37.8z M208.1,276.9H76.1c-1.7,0-3.1-1.4-3.1-3.1v-83.1c0-1.6,1.4-3,3.1-3h131.9
		c1.7,0,3.1,1.4,3.1,3v83.1C211.2,275.5,209.8,276.9,208.1,276.9z M260.3,185.8c-1.3,2.9-3,5.5-5.1,7.7c-2.2,2.2-4.8,4-7.7,5.1
		c-2.8,1.1-5.9,1.8-9,1.8h-1.2c-1.6,0-3-1.4-3-3v-7.5c0-1.2,0.7-2.4,2-2.8c0.7-0.3,1.4-0.6,2-1.1c0.6-0.4,1.2-0.9,1.7-1.3l0.1-0.2
		c1.1-1.1,1.9-2.3,2.5-3.8c0.5-1.3,0.9-2.8,0.9-4.4s-0.3-3.1-0.9-4.4c-0.6-1.4-1.5-2.6-2.5-3.7s-2.3-1.9-3.7-2.5
		c-1.4-0.5-2.8-0.9-4.4-0.9H51.1c-3.2,0-6.1,1.3-8.1,3.4c-1.1,1.1-2,2.3-2.5,3.7c-0.6,1.3-0.9,2.8-0.9,4.4s0.3,3,0.9,4.4
		c0.5,1.4,1.4,2.6,2.4,3.7l0.3,0.3c0.7,0.6,1.4,1.2,2.1,1.6c0.8,0.5,1.6,0.9,2.6,1.1c1.3,0.3,2.3,1.5,2.3,3v7.1c0,1.6-1.4,3-3,3
		h-0.5c-3.2,0-6.2-0.7-9-1.8c-2.8-1.2-5.3-2.8-7.5-4.9l-0.2-0.2c-2.2-2.2-3.9-4.8-5.1-7.7c-1.1-2.8-1.8-5.9-1.8-9v-69.8
		c0-3.2,0.7-6.2,1.8-9c1.1-2.8,2.8-5.3,4.9-7.5l0.1-0.2c2.2-2.2,4.8-3.9,7.7-5.1c2.8-1.2,5.9-1.8,9-1.8h191.8c3.2,0,6.2,0.7,9,1.8
		c2.7,1.1,5.2,2.8,7.3,4.8l0.3,0.3c2.2,2.2,3.9,4.8,5.1,7.7c1.1,2.8,1.8,5.9,1.8,9v69.8C262,180,261.4,183,260.3,185.8z"/>
</g>
</svg>
