<svg width="240" height="240" viewBox="0 0 240 240" fill="none" xmlns="http://www.w3.org/2000/svg">
<rect width="240" height="240" rx="12" fill="#14161A" fill-opacity="0.04"/>
<rect x="88" y="88" width="64" height="64" rx="32" fill="#14161A" fill-opacity="0.08"/>
<path fill-rule="evenodd" clip-rule="evenodd" d="M110 108H130C130.53 108 131.039 108.211 131.414 108.586C131.789 108.961 132 109.47 132 110V130C132 130.53 131.789 131.039 131.414 131.414C131.039 131.789 130.53 132 130 132H110C109.47 132 108.961 131.789 108.586 131.414C108.211 131.039 108 130.53 108 130V110C108 109.47 108.211 108.961 108.586 108.586C108.961 108.211 109.47 108 110 108ZM110 124V130H130V128L125 123L123.41 124.59C123.035 124.963 122.528 125.172 122 125.172C121.472 125.172 120.965 124.963 120.59 124.59L115 119L110 124ZM126.41 121.58L130 125.17V110H110V121.17L113.59 117.58C113.965 117.207 114.472 116.998 115 116.998C115.528 116.998 116.035 117.207 116.41 117.58L122 123.17L123.59 121.58C123.965 121.207 124.472 120.998 125 120.998C125.528 120.998 126.035 121.207 126.41 121.58ZM124.667 117.494C124.173 117.824 123.593 118 123 118C122.204 118 121.441 117.684 120.879 117.121C120.316 116.559 120 115.796 120 115C120 114.407 120.176 113.827 120.506 113.333C120.835 112.84 121.304 112.455 121.852 112.228C122.4 112.001 123.003 111.942 123.585 112.058C124.167 112.173 124.702 112.459 125.121 112.879C125.541 113.298 125.827 113.833 125.942 114.415C126.058 114.997 125.999 115.6 125.772 116.148C125.545 116.696 125.16 117.165 124.667 117.494ZM123.556 114.169C123.391 114.059 123.198 114 123 114C122.735 114 122.48 114.105 122.293 114.293C122.105 114.48 122 114.735 122 115C122 115.198 122.059 115.391 122.169 115.556C122.278 115.72 122.435 115.848 122.617 115.924C122.8 116 123.001 116.019 123.195 115.981C123.389 115.942 123.567 115.847 123.707 115.707C123.847 115.567 123.942 115.389 123.981 115.195C124.019 115.001 124 114.8 123.924 114.617C123.848 114.435 123.72 114.278 123.556 114.169Z" fill="#868C98"/>
</svg>
