<svg width="80" height="80" viewBox="0 0 80 80" fill="none" xmlns="http://www.w3.org/2000/svg">
<path d="M40 0C62.0914 0 80 17.9086 80 40C80 62.0914 62.0914 80 40 80C17.9086 80 0 62.0914 0 40C0 17.9086 17.9086 0 40 0ZM29.7148 20C29.1939 19.9981 28.5387 19.9954 27.9199 20.1973C27.3848 20.3719 26.8918 20.6581 26.4746 21.0361C25.9923 21.4732 25.6689 22.0429 25.4121 22.4961C25.3881 22.5384 25.3647 22.58 25.3418 22.6201L18.2637 35.0078C17.91 35.6268 17.9127 36.3873 18.2705 37.0039C18.6284 37.6204 19.2871 38 20 38H22V53.2725C22 54.0504 22.0003 54.7505 22.0479 55.333C22.0988 55.9568 22.214 56.6198 22.5449 57.2695C23.0243 58.2103 23.7897 58.9757 24.7305 59.4551C25.3802 59.786 26.0432 59.9012 26.667 59.9521C27.2495 59.9997 27.9496 60 28.7275 60H39.2725C40.0504 60 40.7505 59.9997 41.333 59.9521C41.9568 59.9012 42.6198 59.786 43.2695 59.4551C44.2103 58.9757 44.9757 58.2103 45.4551 57.2695C45.786 56.6198 45.9012 55.9568 45.9521 55.333C45.9997 54.7505 46 54.0504 46 53.2725V38H54V58C54 59.1046 54.8954 60 56 60C57.1046 60 58 59.1046 58 58V38H60C60.7129 38 61.3716 37.6204 61.7295 37.0039C62.0873 36.3873 62.09 35.6268 61.7363 35.0078L54.6582 22.6201C54.6353 22.58 54.6119 22.5384 54.5879 22.4961C54.3311 22.0429 54.0077 21.4732 53.5254 21.0361C53.1082 20.6581 52.6152 20.3719 52.0801 20.1973C51.4613 19.9954 50.8061 19.9981 50.2852 20H29.7148ZM42 38V48H26V38H42Z" fill="#87C6FA"/>
</svg>
