<svg width="128" height="128" viewBox="0 0 128 128" fill="none" xmlns="http://www.w3.org/2000/svg">
<g clip-path="url(#clip0_10920_39698)">
<path d="M113.138 104.823C119.701 96.9238 124.266 87.5605 126.445 77.5246C128.625 67.4887 128.355 57.0755 125.66 47.1658C122.964 37.2561 117.921 28.1413 110.958 20.5925C103.995 13.0436 95.3167 7.28275 85.6564 3.79712C75.9962 0.31148 65.6386 -0.796384 55.4598 0.56723C45.2809 1.93084 35.5801 5.72582 27.1779 11.6312C18.7758 17.5365 11.9194 25.3786 7.18877 34.494C2.45813 43.6093 -0.00764522 53.73 1.78066e-05 63.9998C0.00359813 78.931 5.26543 93.384 14.8622 104.823L14.7708 104.899C15.0908 105.285 15.4565 105.615 15.7865 105.992C16.198 106.466 16.6386 106.906 17.0665 107.367C18.3465 108.754 19.6604 110.088 21.0437 111.344C21.462 111.724 21.8958 112.081 22.3237 112.449C23.7865 113.71 25.2878 114.905 26.8494 116.021C27.051 116.163 27.2297 116.338 27.4327 116.481V116.423C38.1395 123.957 50.9121 128.001 64.0041 128.001C77.0962 128.001 89.8688 123.957 100.576 116.423V116.48C100.779 116.337 100.957 116.163 101.159 116.02C102.719 114.904 104.222 113.71 105.685 112.448C106.112 112.083 106.546 111.723 106.965 111.343C108.347 110.087 109.662 108.752 110.942 107.366C111.368 106.906 111.808 106.465 112.222 105.991C112.55 105.614 112.918 105.284 113.238 104.898L113.138 104.823ZM64 27.4284C68.0687 27.4284 72.0459 28.6349 75.4289 30.8953C78.8119 33.1557 81.4485 36.3685 83.0055 40.1274C84.5625 43.8864 84.9699 48.0226 84.1762 52.0131C83.3824 56.0035 81.4232 59.669 78.5462 62.546C75.6693 65.423 72.0038 67.3822 68.0133 68.1759C64.0228 68.9697 59.8866 68.5623 56.1277 67.0053C52.3687 65.4483 49.1559 62.8116 46.8955 59.4287C44.6351 56.0457 43.4286 52.0684 43.4286 47.9998C43.4286 42.5439 45.5959 37.3115 49.4538 33.4536C53.3117 29.5957 58.5441 27.4284 64 27.4284ZM27.461 104.823C27.54 98.8202 29.9791 93.0902 34.2507 88.8724C38.5223 84.6546 44.2828 82.2883 50.2857 82.2855H77.7143C83.7173 82.2885 89.4777 84.6548 93.7492 88.8725C98.0208 93.0903 100.46 98.8202 100.539 104.823C90.5132 113.857 77.4958 118.857 64 118.857C50.5042 118.857 37.4869 113.857 27.461 104.823Z" fill="#C4C8CF"/>
</g>
<defs>
<clipPath id="clip0_10920_39698">
<rect width="128" height="128" fill="white"/>
</clipPath>
</defs>
</svg>