<svg width="65" height="65" viewBox="0 0 65 65" fill="none" xmlns="http://www.w3.org/2000/svg">
<rect x="0.253906" y="0.5" width="64" height="64" rx="32" fill="url(#paint0_linear_59350_95007)"/>
<path d="M21.0039 47.5001C20.6724 47.5001 20.3544 47.3684 20.12 47.134C19.8856 46.8996 19.7539 46.5816 19.7539 46.2501V18.7501C19.7539 18.5329 19.8105 18.3194 19.9181 18.1307C20.0257 17.942 20.1807 17.7846 20.3677 17.674C20.5546 17.5635 20.7672 17.5035 20.9844 17.5002C21.2016 17.4968 21.4159 17.55 21.6063 17.6547L46.6063 31.4047C46.8024 31.5126 46.966 31.6711 47.0799 31.8638C47.1939 32.0565 47.254 32.2762 47.254 32.5C47.254 32.7239 47.1939 32.9436 47.0799 33.1363C46.966 33.3289 46.8024 33.4875 46.6063 33.5953L21.6063 47.3453C21.4217 47.4468 21.2145 47.5001 21.0039 47.5001Z" fill="white"/>
<defs>
<linearGradient id="paint0_linear_59350_95007" x1="32.2539" y1="64.5" x2="32.254" y2="0.499999" gradientUnits="userSpaceOnUse">
<stop stop-color="#FF7621"/>
<stop offset="1" stop-color="#FF9706"/>
</linearGradient>
</defs>
</svg>
