<?xml version="1.0" standalone="no"?>
<!DOCTYPE svg PUBLIC "-//W3C//DTD SVG 1.1//EN" "http://www.w3.org/Graphics/SVG/1.1/DTD/svg11.dtd">
<svg xmlns="http://www.w3.org/2000/svg">
<metadata>Generated by Fontastic.me</metadata>
<defs>
<font id="lnclines" horiz-adv-x="512">
<font-face font-family="lnclines" units-per-em="512" ascent="480" descent="-32"/>
<missing-glyph horiz-adv-x="512" />

<glyph glyph-name="anchor" unicode="&#97;" d="M236 468c7 3 13 4 20 4 7 0 13-1 19-4 7-2 12-6 17-11 5-4 9-10 11-16 3-6 4-13 4-20 0-7-1-13-4-19-2-6-6-12-11-17l0 0c-5-4-10-8-16-11l0 0c-7-2-13-4-20-4-7 0-13 2-20 4-6 3-11 7-16 11-5 5-8 10-11 17l0 0c-3 6-4 12-4 19 0 7 1 14 4 20 2 6 6 12 11 16 5 5 10 9 16 11z m-30-463c16-3 33-5 50-5 17 0 34 2 50 5 17 3 33 8 48 14 15 7 30 15 44 24 14 9 27 20 39 32 12 12 23 25 32 39 9 14 17 29 24 44 6 15 11 31 14 48 3 16 5 33 5 50 0 3-1 5-1 7l0 1c-1 2-3 4-5 6-2 2-4 3-6 4-3 1-5 2-8 2l-71 0c-2 0-5-1-7-2-3-1-5-2-7-4-2-2-3-4-4-6-1-3-1-5-1-8 0-3 0-5 1-8 1-2 2-4 4-6l0 0c2-2 4-3 7-4 2-1 5-2 7-2l45 0 0 0c3 0 5-3 5-6-3-24-10-47-20-68-11-22-25-42-42-59-17-17-37-31-59-42-21-10-44-17-68-20 0 0-1 0-1 0-3 0-5 2-5 5l0 283c0 2 1 4 4 5 9 2 18 6 26 12 8 5 15 11 21 19 6 8 11 17 15 27 3 9 5 19 5 29 0 13-3 24-7 35-5 11-12 21-20 29l0 0c-8 9-18 16-29 20-11 5-23 7-35 7-12 0-24-2-35-7-11-4-21-11-29-20l0 0c-8-8-15-18-20-29-4-11-7-22-7-35 0-10 2-20 5-29 4-10 9-19 15-27 6-8 13-14 21-19 8-6 17-10 26-12 2-1 4-3 4-5l0-283 0 0c0-3-3-5-6-5-24 3-47 10-68 20-22 11-42 25-59 42-17 17-31 37-42 59-10 21-17 44-20 68 0 0 0 1 0 1 0 3 2 5 5 5l45 0c2 0 5 1 7 2 3 1 5 2 7 4 2 2 3 4 4 6 1 3 1 5 1 8 0 3 0 5-1 8-1 2-2 4-4 6-2 2-4 3-7 4-2 1-5 2-7 2l-71 0c-3 0-5-1-8-2-2-1-4-2-6-4-2-2-4-4-5-6 0-3-1-5-1-8 0-17 2-34 5-50 3-17 8-33 14-48 7-15 15-30 24-44 9-14 20-27 32-39 12-12 25-23 39-32 14-9 29-17 44-24 15-6 31-11 48-14z"/>
<glyph glyph-name="armchair" unicode="&#98;" d="M465 161c-5-12-12-22-20-31-9-9-19-16-31-20-11-5-23-8-36-8l-244 0c-26 0-50 11-67 28-8 9-15 19-20 31-5 11-7 23-7 36l0 89c0 4 0 8 2 12 1 4 3 7 6 10l0 0 1 0c3 3 6 5 9 7 4 1 8 2 12 2 8 0 16-3 21-9l1 0c2-3 5-6 6-10 2-4 3-8 3-12l0-89c0-5 0-9 2-13 2-4 4-7 7-10 0-1 1-1 1-1 3-3 6-5 10-7 4-2 9-3 13-3l244 0c4 0 9 1 13 3 4 2 8 4 11 7 3 3 5 7 7 11 2 4 2 8 2 13l0 89c0 4 1 8 3 12 1 4 3 7 6 10l0 0c3 3 7 5 10 7 4 1 8 2 12 2 4 0 8-1 12-2 3-2 7-4 9-7l1 0c2-3 5-6 6-10 2-4 2-8 2-12l0-89c0-13-2-25-7-36z m-166 116l1 0c2 0 4 0 7 1 2 1 4 3 6 5 2 1 3 3 4 6 1 2 2 4 2 7l0 1c-1 2-1 5-2 7-1 3-3 5-4 7-2 1-4 3-7 4-2 1-4 1-7 1l-1 0c-2 0-5 0-7-1-2-2-4-3-6-5-2-1-3-4-5-6 0-2-1-4-1-7l0-1c0-2 1-5 2-7 1-3 2-5 4-7 2-1 4-3 6-4 3-1 5-1 8-1z m0 76l1 1c2 0 4 0 7 1 2 1 4 3 6 4 2 2 3 4 4 7 1 2 2 4 2 6l0 1c-1 3-1 6-2 8-1 2-3 4-4 6l-1 0c-1 2-3 4-6 5-2 0-4 1-7 1l-1 0c-2 0-5-1-7-2-2-1-4-2-6-4-2-2-3-4-5-6 0-2-1-5-1-7l0-1c0-3 1-5 2-8 1-2 2-4 4-6l0 0c2-2 4-3 6-4 3-1 5-2 8-2z m-86-76l1 0c3 0 5 0 7 1 2 1 4 3 6 5 2 1 3 3 4 6 1 2 2 4 2 7l0 1c0 2-1 5-2 7-1 3-2 5-4 7-2 1-4 3-6 4-3 1-5 1-8 1l-1 0c-2 0-4 0-7-1-2-2-4-3-6-5-2-1-3-4-4-6-1-2-2-4-2-7l0-1c1-2 1-5 2-7 1-3 3-5 4-7l1 0c1-1 3-3 6-4 2-1 4-1 7-1z m0 76l1 1c3 0 5 0 7 1 2 1 4 3 6 4 2 2 3 4 4 7 1 2 2 4 2 7l0 0c0 3-1 6-2 8-1 2-2 4-4 6l0 0c-2 2-4 4-6 5-3 0-5 1-8 1l-1 0c-2 0-4-1-7-2-2-1-4-2-6-4-2-2-3-4-4-6-1-2-2-5-2-7l0-1c1-3 1-5 2-8 1-2 3-4 4-6 2-2 4-3 7-4 2-1 4-2 7-2z m-70 119l226 0c7 0 14-1 20-4 7-2 13-6 18-11 4-5 8-11 11-18 3-6 4-13 4-20l0-62c0-2-1-4-3-5-6-2-12-5-18-9-5-4-10-8-14-13-5-6-9-13-11-21-3-7-4-15-4-23l0-78c0-3-2-5-5-5l-222 0c-3 0-5 2-5 5l0 78c0 8-1 16-4 23-2 8-6 15-11 21-4 5-9 9-14 13-6 4-11 7-17 9-3 1-4 3-4 5l0 62c0 7 1 14 4 20 3 7 7 13 11 18 5 5 11 9 18 11 6 3 13 4 20 4z m319-115l0 62c0 13-3 25-7 36-5 11-12 21-21 30-8 8-18 15-30 20-11 5-23 7-35 7l-226 0c-12 0-24-2-35-7-12-5-22-12-30-20l0 0c-9-9-16-19-21-30-4-11-7-23-7-36l0-62c0-2-1-4-3-5-6-2-12-5-18-9-5-4-10-8-14-13-5-6-9-13-11-21-3-7-4-15-4-23l0-89c0-17 3-33 9-48 6-15 14-29 25-41 10-11 21-21 34-28 13-7 27-12 42-15 2 0 4-2 4-5l0-40c0-3 1-5 2-8 1-2 2-4 4-6l0-1c2-1 4-3 7-3 2-1 4-2 7-2 3 0 5 1 8 2 2 0 4 2 6 4 2 2 3 4 4 6 1 3 2 5 2 8l0 38c0 3 2 5 5 5l194 0c3 0 5-2 5-5l0-38c0-3 1-5 2-8 1-2 2-4 4-6l0-1c2-1 4-3 6-3 3-1 5-2 8-2 3 0 5 1 7 2 3 0 5 2 7 4l0 0c2 2 3 4 4 6 1 3 2 5 2 8l0 40c0 2 1 5 4 5 15 3 29 8 41 15 13 7 25 17 35 28 11 12 19 26 25 41 6 15 9 31 9 48l0 89c0 8-1 16-4 23-3 8-6 15-11 21-4 5-9 9-14 13-6 4-11 7-18 9-2 1-3 3-3 5z"/>
<glyph glyph-name="arrow-contract" unicode="&#99;" d="M236 135l0-115c0-3 1-5 2-8 1-2 2-4 4-6 2-2 4-4 6-5 3-1 5-1 8-1 3 0 5 0 8 1 2 1 4 3 6 5l0 0c2 2 3 4 4 6 1 3 2 5 2 8l0 115c0 3 2 6 5 6 2 0 3-1 4-2l34-34c1-2 4-3 6-4 2-1 5-1 7-1 3 0 5 0 8 1 2 1 4 2 6 4 1 1 2 2 3 3 1 1 1 3 2 4 0 1 1 2 1 4 0 1 0 2 0 3 0 2 0 3 0 4l0 0c0 2-1 3-1 4-1 1-1 2-2 3-1 1-2 2-3 3l-76 77c-2 2-4 3-6 4-3 1-5 2-8 2-3 0-5-1-8-2-2-1-4-2-6-4l-77-77c-1-2-3-4-4-6-1-2-1-5-1-8 0-2 0-5 1-7 1-3 3-5 5-7l0 0c2-2 4-3 6-4 3-1 5-1 8-1 2 0 5 0 7 1 3 1 5 2 7 4l33 34c2 2 6 2 8 0 1-1 1-2 1-4z m141 101l115 0c3 0 5 1 8 2 2 1 4 2 6 4 2 2 4 4 5 6 1 3 1 5 1 8 0 3 0 5-1 8-1 2-3 4-5 6l0 0c-2 2-4 3-6 4-3 1-5 2-8 2l-115 0c-3 0-6 2-6 5 0 2 1 3 2 4l34 34c2 1 3 4 4 6 1 2 1 5 1 7 0 3 0 5-1 8-1 2-2 4-4 6-1 1-2 2-3 3-1 1-3 1-4 2-1 0-2 1-4 1-1 0-2 0-3 0-2 0-3 0-4 0l0 0c-2 0-3-1-4-1-1-1-2-1-3-2-1-1-2-2-3-3l-77-76c-2-2-3-4-4-6-1-3-2-5-2-8 0-3 1-5 2-8 1-2 2-4 4-6l77-77c2-1 4-3 6-4 2-1 5-1 8-1 2 0 5 0 7 1 3 1 5 3 7 5l0 0c2 2 3 4 4 6 1 3 1 5 1 8 0 2 0 5-1 7-1 3-2 5-4 7l-34 33c-2 2-2 6 0 8 1 1 2 1 4 1z m-242 40l-115 0c-3 0-5-1-8-2-2-1-4-2-6-4-2-2-4-4-5-6-1-3-1-5-1-8 0-3 0-5 1-8 1-2 3-4 5-6l0 0c2-2 4-3 6-4 3-1 5-2 8-2l115 0c3 0 6-2 6-5 0-1-1-3-2-4l-34-34c-2-1-3-3-4-6-1-2-1-5-1-7 0-3 0-5 1-8 1-2 2-4 4-6 1-1 2-2 3-3 1-1 3-1 4-2 1 0 2-1 4-1 1 0 2 0 3 0 2 0 3 0 4 0l0 0c2 0 3 1 4 1 1 1 2 1 3 2 1 1 2 2 3 3l77 76c2 2 3 4 4 6 1 3 2 5 2 8 0 3-1 5-2 8-1 2-2 4-4 6l-77 77c-2 1-4 3-6 4-2 1-5 1-8 1-2 0-5 0-7-1-3-1-5-3-7-5-2-2-3-4-4-6-1-2-1-5-1-8 0-2 0-5 1-7 1-3 2-5 4-7l34-33c2-2 2-6 0-8-1-1-2-1-4-1z m141 101l0 115c0 3-1 5-2 8-1 2-2 4-4 6-2 2-4 4-6 5-3 1-5 1-8 1-3 0-5 0-8-1-2-1-4-3-6-5l0 0c-2-2-3-4-4-6-1-3-2-5-2-8l0-115c0-3-2-6-5-6-1 0-3 1-4 2l-34 34c-1 2-3 3-6 4-2 1-5 1-7 1-3 0-5 0-8-1-2-1-4-2-6-4-1-1-2-2-3-3-1-1-1-3-2-4 0-1-1-2-1-4 0-1 0-2 0-3 0-2 0-3 0-4l0 0c0-2 1-3 1-4 1-1 1-2 2-3 1-1 2-2 3-3l76-77c2-2 4-3 6-4 3-1 5-2 8-2 3 0 5 1 8 2 2 1 4 2 6 4l77 77c1 2 3 4 4 6 1 2 1 5 1 8 0 2 0 5-1 7-1 3-3 5-5 7-2 2-4 3-6 4-3 1-5 1-8 1-2 0-5 0-7-1-3-1-5-2-7-4l-33-34c-2-2-6-2-8 0-1 1-1 2-1 4z"/>
<glyph glyph-name="arrow-down" unicode="&#100;" d="M236 492l0-412c0-1 0-2-1-3-2-2-6-2-8 0l-134 134c-2 2-4 3-7 4-2 1-5 2-7 2-3 0-5-1-7-2l-1 0c-2-1-4-2-6-4l0 0c-4-4-6-9-6-14 0-3 1-5 2-8 0-2 2-4 4-6l177-177c2-2 4-3 6-4 3-1 5-2 8-2 3 0 5 1 8 2 2 0 4 2 6 4l177 177c1 1 2 2 3 3 0 1 1 2 1 3 1 2 1 3 2 4l0 0c0 1 0 3 0 4 0 1 0 3 0 4-1 1-1 2-2 4 0 1-1 2-1 3-1 1-2 2-3 3-2 2-4 3-6 4-3 1-5 2-8 2-2 0-5-1-7-2-3-1-5-2-7-4l-134-134c-1-1-2-2-4-2-3 0-5 2-5 5l0 412c0 3-1 5-2 8-1 2-2 4-4 6l0 0c-2 2-4 3-6 5-3 0-5 1-8 1-3 0-5-1-8-1-2-2-4-3-6-5-2-2-3-4-4-6-1-3-2-5-2-8z"/>
<glyph glyph-name="arrow-down-up" unicode="&#101;" d="M362 432l0-412c0-3 1-5 2-8 1-2 2-4 4-6 2-2 4-4 7-4 2-1 5-2 7-2 3 0 5 1 8 2 2 0 4 2 6 4l1 0c1 2 3 4 4 6 1 3 1 5 1 8l0 412c0 3 2 5 5 5 2 0 3-1 4-2l67-67c2-2 4-3 7-4 2-1 5-2 7-2 3 0 5 1 8 2 2 1 4 2 6 4 1 1 2 2 3 3 0 1 1 2 1 4 1 1 1 2 2 3 0 2 0 3 0 4 0 2 0 3 0 4l0 0c-1 2-1 3-2 4 0 1-1 2-1 3-1 1-2 2-3 3l-110 110c-2 2-4 4-6 4-3 1-5 2-8 2-2 0-5-1-7-2-3 0-5-2-7-4l-110-110c-2-2-3-4-4-6-1-3-2-5-2-8 0-2 1-5 2-7 1-3 2-5 4-7l1 0c1-2 3-3 6-4l0 0c2-1 5-2 7-2 3 0 5 1 8 2 2 1 4 2 6 4l67 67c3 3 6 3 8 0 1-1 1-2 1-3z m-212-352l0 412c0 3-1 5-2 8-1 2-2 4-4 6-2 2-4 4-7 4-2 1-5 2-7 2-3 0-5-1-8-2-2 0-4-2-6-4l-1 0c-1-2-3-4-4-6-1-3-1-5-1-8l0-412c0-3-2-5-5-5-2 0-3 1-4 2l-67 67c-2 2-4 3-7 4-2 1-5 2-7 2-3 0-5-1-8-2-2-1-4-2-6-4-1-1-2-2-3-3 0-1-1-3-1-4-1-1-1-2-2-3 0-2 0-3 0-4 0-2 0-3 0-4l0 0c1-2 1-3 2-4 0-1 1-2 1-3 1-1 2-2 3-3l110-111c2-1 4-3 6-3 3-2 5-2 8-2 2 0 5 0 7 2 3 0 5 2 7 4l110 110c2 2 3 4 4 6 1 3 2 5 2 8 0 5-2 10-6 14l0 0c-2 2-4 3-7 4l0 0c-2 1-5 2-7 2-3 0-5-1-8-2-2-1-4-2-6-4l-67-67c-2-3-6-3-8 0-1 0-1 2-1 3z"/>
<glyph glyph-name="arrow-expand" unicode="&#102;" d="M432 276l-151 0c-3 0-5 2-5 5l0 151c0 3 2 5 5 5 1 0 3-1 4-2l34-33c1-2 4-4 6-4 2-1 5-2 7-2 3 0 6 1 8 2 2 1 5 2 6 4 1 1 2 2 3 3 1 1 1 2 2 3 0 1 1 3 1 4 0 1 0 3 0 4 0 1 0 2 0 4l0 0c0 1-1 2-1 3-1 2-1 3-2 4-1 1-2 2-3 3l-76 76c-2 2-4 3-5 4-3 1-5 2-7 2-1 0-2 0-3 0-2 0-4-1-7-2-2 0-4-2-6-4l-76-76c-2-2-4-4-5-7-1-2-1-5-1-7 0-5 2-10 6-14l0 0c2-2 4-4 6-4l0-1c3 0 5-1 8-1 2 0 5 1 7 2 3 1 5 2 7 4l33 33c2 2 6 2 8 0 1-1 1-2 1-3l0-151c0-3-2-5-5-5l-151 0c-3 0-5 2-5 5 0 1 1 3 2 4l33 33c2 2 4 4 4 7 1 2 2 5 2 7 0 3-1 6-2 8-1 2-2 4-4 6-1 1-2 2-3 3-1 1-2 1-3 2-1 0-3 1-4 1-1 0-3 0-4 0-1 0-2 0-4 0l0 0c-1-1-2-1-3-1-2-1-3-1-4-2-1-1-2-2-3-3l-76-76c-2-2-3-4-4-6-1-2-2-4-2-6 0-1 0-2 0-3 0-2 1-4 2-7 0-2 2-4 4-6l76-76c2-2 4-4 7-5 2-1 5-1 7-1 3 0 5 0 8 1 2 1 4 3 6 5l0 0c2 2 4 4 4 6l1 0c0 3 1 5 1 8 0 2-1 5-2 7-1 3-2 5-4 7l-33 33c-2 2-2 6 0 8 1 1 2 1 3 1l151 0c3 0 5-2 5-5l0-151c0-3-2-5-5-5-1 0-3 1-4 2l-33 33c-2 2-4 3-7 4-2 1-5 2-7 2-3 0-6-1-8-2-2-1-4-2-6-4-1-1-2-2-3-3-1-1-1-2-2-3 0-1-1-3-1-4 0-1 0-3 0-4 0-1 0-3 0-4l0 0c1-1 1-2 1-3 1-2 1-3 2-4 1-1 2-2 3-3l76-76c2-2 4-3 6-4 2-1 4-2 6-2 1 0 2 0 3 0 2 0 4 1 7 2 2 0 4 2 6 4l76 76c2 2 4 4 5 7 1 2 1 4 1 7 0 3 0 5-1 8-1 2-3 4-5 6l0 0c-2 2-4 3-6 4l0 1c-3 0-5 1-8 1-2 0-5-1-7-2-3-1-5-2-7-4l-33-33c-2-2-6-2-8 0-1 1-1 2-1 3l0 151c0 3 2 5 5 5l151 0c3 0 5-2 5-5 0-1-1-3-2-4l-33-34c-2-1-3-4-4-6-1-2-2-5-2-7 0-3 1-6 2-8 1-2 2-5 4-6 1-1 2-2 3-3 1-1 2-1 3-2 1 0 3-1 4-1 1 0 3 0 4 0 1 0 3 0 4 0l0 0c1 0 2 1 3 1 2 1 3 1 4 2 1 1 2 2 3 3l76 76c2 2 3 4 4 5 1 3 2 5 2 7 0 1 0 2 0 3 0 2-1 4-2 7 0 2-2 4-4 6l-76 76c-2 2-4 4-7 5-2 1-4 1-7 1-5 0-10-2-14-6l0 0c-2-2-3-4-4-6l-1 0c0-3-1-5-1-8 0-2 1-5 2-7 1-3 2-5 4-7l33-33c2-2 2-6 0-8-1-1-2-1-3-1z"/>
<glyph glyph-name="arrow-left" unicode="&#103;" d="M492 276l-412 0c-1 0-3 0-3 1-3 2-3 6 0 8l134 134c2 2 3 4 4 7 1 2 2 5 2 7 0 3-1 5-2 8l0 0c-1 2-2 4-4 6l0 0c-4 4-9 6-14 6-3 0-5-1-8-1-2-1-4-3-6-5l-177-177c-2-2-4-4-5-6-1-3-1-5-1-8 0-3 0-5 1-8 1-2 3-4 5-6l177-177c1-1 2-2 3-3 1 0 2-1 3-1 2-1 3-1 4-2l0 0c1 0 3 0 4 0 1 0 2 0 4 0 1 1 2 1 4 2 1 0 2 1 3 1 1 1 2 2 3 3 2 2 3 4 4 6 1 3 2 5 2 8 0 2-1 5-2 7-1 3-2 5-4 7l-134 134c-1 1-2 2-2 4 0 3 2 5 5 5l412 0c3 0 5 1 8 2 2 1 4 2 6 4l0 0c2 2 3 4 4 6 1 3 2 5 2 8 0 3-1 5-2 8-1 2-2 4-4 6-2 2-4 3-6 4-3 1-5 2-8 2z"/>
<glyph glyph-name="arrow-left-right" unicode="&#104;" d="M80 362l412 0c3 0 5 1 8 2 2 1 4 2 6 4 2 2 4 4 5 7 0 2 1 5 1 7 0 3-1 5-1 8-1 2-3 4-5 6l0 0c-2 2-4 4-6 5-3 1-5 1-8 1l-412 0c-3 0-5 2-5 5 0 2 1 3 2 4l67 67c2 2 3 4 4 7 1 2 2 5 2 7 0 3-1 5-2 8-1 2-2 4-4 6-1 1-2 2-3 3-1 0-2 1-4 1-1 1-2 1-3 2-2 0-3 0-4 0-2 0-3 0-4 0l0 0c-2-1-3-1-4-2-1 0-2-1-3-1-1-1-2-2-3-3l-110-110c-2-2-4-4-5-6 0-3-1-5-1-8 0-2 1-5 1-7 1-3 3-5 5-7l110-110c2-2 4-3 6-4 3-1 5-2 8-2 2 0 5 1 7 2 3 1 5 2 7 4l0 1c2 1 3 3 4 6l0 0c1 2 2 5 2 7 0 3-1 5-2 8-1 2-2 4-4 6l-67 67c-2 3-2 6 0 8 1 1 2 1 3 1z m352-212l-412 0c-3 0-5-1-8-2-2-1-4-2-6-4-2-2-4-4-5-7 0-2-1-5-1-7 0-3 1-5 1-8 1-2 3-4 5-6l0 0c2-2 4-4 6-5 3-1 5-1 8-1l412 0c3 0 5-2 5-5 0-2-1-3-2-4l-67-67c-2-2-3-4-4-7-1-2-2-5-2-7 0-3 1-5 2-8 1-2 2-4 4-6 1-1 2-2 3-3 1 0 2-1 4-1 1-1 2-1 3-2 2 0 3 0 4 0 2 0 3 0 4 0l0 0c2 1 3 1 4 1 1 1 2 2 3 2 1 1 2 2 3 3l110 110c2 2 4 4 5 6 1 3 1 5 1 8 0 2 0 5-1 7-1 3-3 5-5 7l-110 110c-2 2-4 3-6 4-3 1-5 2-8 2-5 0-10-2-14-6l0-1c-2-1-3-3-4-6l0 0c-1-2-2-5-2-7 0-3 1-5 2-8 1-2 2-4 4-6l67-67c2-3 2-6 0-8-1-1-2-1-3-1z"/>
<glyph glyph-name="arrow-right" unicode="&#105;" d="M20 236l412 0c1 0 2 0 3-1 3-2 3-6 0-8l-134-134c-2-2-3-4-4-7-1-2-2-5-2-7 0-3 1-5 2-8l0 0c1-2 2-4 4-6l0 0c2-2 4-4 6-4 3-1 5-2 8-2 3 0 5 1 8 2 2 0 4 2 6 4l177 177c2 2 4 4 4 6 1 3 2 5 2 8 0 3-1 5-2 8 0 2-2 4-4 6l-177 177c-1 1-2 2-3 3-1 0-2 1-3 1-2 1-3 1-4 2l0 0c-1 0-3 0-4 0-1 0-3 0-4 0-1-1-2-1-4-2-1 0-2-1-3-1-1-1-2-2-3-3-2-2-3-4-4-6-1-3-2-5-2-8 0-2 1-5 2-7 1-3 2-5 4-7l134-134c1-1 2-3 2-4 0-3-2-5-5-5l-412 0c-3 0-5-1-8-2-2-1-4-2-6-4l0 0c-2-2-3-4-4-6-1-3-2-5-2-8 0-3 1-5 2-8 1-2 2-4 4-6 2-2 4-3 6-4 3-1 5-2 8-2z"/>
<glyph glyph-name="arrow-right-left" unicode="&#106;" d="M20 362l412 0c1 0 2 0 3-1 3-2 3-5 0-7l-67-68c-2-2-3-4-4-6-1-3-2-5-2-8 0-2 1-5 2-7l0 0c1-3 2-5 4-6l0-1c2-2 4-3 7-4 2-1 5-2 7-2 3 0 5 1 8 2 2 1 4 2 6 4l110 110c2 2 4 4 4 7 2 2 2 5 2 7 0 3-1 5-2 8 0 2-2 4-4 6l-110 110c-1 1-2 2-3 3-1 0-2 1-3 1-1 1-2 1-4 2l0 0c-1 0-2 0-4 0-1 0-2 0-4 0-1-1-2-1-3-2-2 0-3-1-4-1-1-1-2-2-3-3-2-2-3-4-4-6-1-3-2-5-2-8 0-2 1-5 2-7 1-3 2-5 4-7l67-67c1-1 2-2 2-4 0-3-2-5-5-5l-412 0c-3 0-5-1-8-1-2-1-4-3-6-5l0 0c-2-2-4-4-4-6-1-3-2-5-2-8 0-2 1-5 2-7 0-3 2-5 4-7 2-2 4-3 6-4 3-1 5-2 8-2z m472-212l-412 0c-1 0-2 0-3 1-2 2-2 5 0 8l67 67c2 2 3 4 4 6 1 3 2 5 2 8 0 2-1 5-2 7l0 0c-1 3-2 5-4 6l0 1c-4 4-9 6-14 6-3 0-5-1-8-2-2-1-4-2-6-4l-110-110c-2-2-4-4-4-7-2-2-2-5-2-7 0-3 0-5 2-8 0-2 2-4 4-6l110-110c1-1 2-2 3-3 1 0 2-1 3-1 1-1 2-1 4-2l0 0c1 0 2 0 4 0 1 0 2 0 4 0 1 1 2 1 3 2 2 0 3 1 4 1 1 1 2 2 3 3 2 2 3 4 4 6 1 3 2 5 2 8 0 2-1 5-2 7-1 3-2 5-4 7l-67 67c-1 1-2 2-2 4 0 3 2 5 5 5l412 0c3 0 5 1 8 1 2 1 4 3 6 5l0 0c2 2 3 4 4 6 1 3 2 5 2 8 0 2-1 5-2 7-1 3-2 5-4 7-2 2-4 3-6 4-3 1-5 2-8 2z"/>
<glyph glyph-name="arrow-up" unicode="&#107;" d="M276 20l0 412c0 1 0 2 1 3 2 3 6 3 8 0l134-134c2-2 4-3 7-4 2-1 4-2 7-2 3 0 5 1 7 2l1 0c2 1 4 2 6 4l0 0c2 2 4 4 4 7 1 2 2 5 2 7 0 3-1 5-2 8 0 2-2 4-4 6l-177 177c-2 2-4 4-6 4-3 2-5 2-8 2-3 0-5 0-8-2-2 0-4-2-6-4l-177-177c-1-1-2-2-3-3 0-1-1-2-1-3-1-1-1-3-1-4l0 0c-1-1-1-3-1-4 0-1 0-2 1-4 0-1 0-2 1-3 0-2 1-3 1-4 1-1 2-2 3-3 2-2 4-3 6-4 3-1 5-2 8-2 3 0 5 1 7 2 3 1 5 2 7 4l134 134c1 1 2 2 4 2 3 0 5-2 5-5l0-412c0-3 1-5 2-8 1-2 2-4 4-6l0 0c2-2 4-3 6-4 3-1 5-2 8-2 3 0 5 1 8 2 2 1 4 2 6 4 2 2 3 4 4 6 1 3 2 5 2 8z"/>
<glyph glyph-name="arrow-up-down" unicode="&#108;" d="M150 20l0 412c0 1 0 2 1 3 2 2 5 2 7 0l68-67c2-2 4-3 6-4 2-1 5-1 8-1 2 0 5 0 7 1l0 0c3 1 5 2 6 4l1 0c2 2 3 4 4 7 1 2 2 5 2 7 0 3-1 5-2 8-1 2-2 4-4 6l-110 110c-2 2-4 4-7 5-2 0-5 1-7 1-3 0-5-1-8-1-2-1-4-3-6-5l-110-110c-1-1-2-2-3-3 0-1-1-2-2-3 0-1 0-3-1-4l0 0c0-1 0-2 0-4 0-1 0-2 0-4 1-1 1-2 1-3 1-1 2-3 2-4 1-1 2-2 3-3 2-2 4-3 6-4 3-1 5-1 8-1 2 0 5 0 7 1 3 1 5 2 7 4l67 67c1 1 2 2 4 2 3 0 5-2 5-5l0-412c0-3 1-5 1-8 1-2 3-4 5-6l0 0c2-2 4-4 6-5 3 0 5-1 8-1 3 0 5 1 7 1 3 1 5 3 7 5 2 2 3 4 4 6 1 3 2 5 2 8z m212 472l0-412c0-1 0-2-1-3-2-2-5-2-7 0l-68 67c-2 2-4 3-6 4-2 1-5 1-8 1-2 0-5 0-7-1l0 0c-3-1-5-2-6-4l-1 0c-4-4-5-9-5-14 0-3 0-5 1-8 1-2 2-4 4-6l110-110c2-2 4-4 7-5 2 0 5-1 7-1 3 0 5 1 8 1 2 1 4 3 6 5l110 110c1 1 2 2 3 3 0 1 1 2 2 3 0 1 0 3 1 4l0 0c0 1 0 2 0 4 0 1 0 2 0 4-1 1-1 2-1 3-1 1-2 3-2 4-1 1-2 2-3 3-2 2-4 3-6 4-3 1-5 1-8 1-2 0-5 0-7-1-3-1-5-2-7-4l-67-67c-1-1-2-2-4-2-3 0-5 2-5 5l0 412c0 3-1 5-1 8-1 2-3 4-5 6l0 0c-2 2-4 4-6 5-3 0-5 1-8 1-3 0-5-1-7-1-3-1-5-3-7-5-2-2-3-4-4-6-1-3-2-5-2-8z"/>
<glyph glyph-name="arrow-x" unicode="&#109;" d="M432 276l-352 0c-2 0-5 2-5 5 0 2 1 3 2 4l67 67c2 2 3 4 4 6 1 3 2 5 2 8 0 2-1 5-2 7-1 3-2 5-4 7-1 1-2 2-3 2-1 1-2 2-4 2-1 1-2 1-3 1-2 1-3 1-4 1-1 0-3 0-4-1l0 0c-1 0-3 0-4-1-1 0-2-1-3-2-1 0-2-1-3-2l-110-110c-2-2-3-3-4-5-1-2-2-5-2-7 0-1 0-2 0-3 0-2 1-4 2-7 1-2 2-4 4-6l110-110c2-2 4-3 6-4 3-1 5-2 8-2 2 0 5 1 7 2 3 1 5 2 7 4l0 0c2 2 3 4 4 7l0 0c1 2 2 5 2 7 0 3-1 5-2 8-1 2-2 4-4 6l-67 67c-2 2-2 6 0 8 1 1 2 1 3 1l352 0c3 0 5-2 5-5 0-1-1-3-2-4l-67-67c-2-2-3-4-4-6-1-3-2-5-2-8 0-2 1-5 2-7 1-3 2-5 4-7 1-1 2-2 3-2 1-1 2-2 4-2 1-1 2-1 3-1 2-1 3-1 4-1 1 0 3 0 4 1l0 0c1 0 3 0 4 1 1 0 2 1 3 2 1 0 2 1 3 2l110 110c2 2 3 4 4 5 1 3 2 5 2 7 0 1 0 2 0 3 0 2-1 4-2 7-1 2-2 4-4 6l-110 110c-2 2-4 3-6 4-3 1-5 2-8 2-5 0-10-2-14-6l0 0c-2-2-3-4-4-7l0 0c-1-2-2-5-2-7 0-3 1-5 2-8 1-2 2-4 4-6l67-67c2-2 2-6 0-8-1-1-2-1-3-1z"/>
<glyph glyph-name="arrow-y" unicode="&#110;" d="M236 432l0-352c0-3-2-5-5-5-1 0-3 1-4 2l-67 67c-2 2-4 3-6 4-3 1-5 2-8 2-3 0-5-1-7-2-3-1-5-2-7-4-1-1-2-2-2-3-1-1-2-2-2-4-1-1-1-2-1-3-1-2-1-3-1-4 0-1 0-3 1-4l0 0c0-1 0-3 1-4 0-1 1-2 2-3 0-1 1-2 2-3l110-110c2-2 4-3 6-4 2-1 4-2 6-2 1 0 2 0 3 0 2 0 4 1 7 2 2 1 4 2 6 4l110 110c2 2 3 4 4 6 1 3 2 5 2 8 0 2-1 5-2 7-1 3-2 5-4 7l0 0c-2 2-4 3-6 4l-1 0c-2 1-5 2-7 2-3 0-5-1-8-2-2-1-4-2-6-4l-67-67c-2-2-6-2-8 0-1 1-1 2-1 3l0 352c0 3 2 5 5 5 2 0 3-1 4-2l67-67c2-2 4-3 6-4 3-1 5-2 8-2 3 0 5 1 8 2 2 1 4 2 6 4 1 1 2 2 2 3 1 1 2 2 2 4 1 1 1 2 1 3 1 2 1 3 1 4 0 2 0 3-1 4l0 0c0 1 0 3-1 4 0 1-1 2-2 3 0 1-1 2-2 3l-110 110c-2 2-4 3-5 4-3 1-5 2-7 2-1 0-2 0-3 0-2 0-4-1-7-2-2-1-4-2-6-4l-110-110c-2-2-3-4-4-6-1-3-2-5-2-8 0-5 2-10 6-14l0 0c2-2 4-3 7-4l0 0c2-1 5-2 7-2 3 0 5 1 8 2 2 1 4 2 6 4l67 67c2 2 6 2 8 0 1-1 1-2 1-3z"/>
<glyph glyph-name="at" unicode="&#111;" d="M228 325c8 4 18 6 28 6 10 0 20-2 29-6 9-4 17-9 24-16 7-7 12-15 16-24 4-9 6-19 6-29 0-10-2-20-6-28-4-10-9-18-16-25-7-7-15-12-24-16-9-4-19-6-29-6-10 0-20 2-28 6-10 4-18 9-24 16l-1 0c-7 7-12 15-16 25-4 8-6 18-6 28 0 10 2 20 6 29 4 9 9 17 16 24l0 0c7 7 15 12 25 16z m-22-320c16-3 33-5 50-5l0 0c14 0 28 1 42 3 13 3 27 6 40 11 13 4 26 10 39 16 12 7 24 14 35 23 2 1 4 3 5 6 1 2 2 4 2 7 1 2 0 5 0 7l0 1c-1 2-2 4-4 7-1 2-3 3-5 5-3 1-5 2-8 2-2 0-5 0-8 0-2-1-4-2-6-4-10-7-20-13-30-19-11-5-21-10-33-14-11-4-22-6-34-8-12-2-23-3-35-3l0 0c-15 0-29 1-42 4-14 3-28 7-41 12-13 5-25 12-37 20-12 8-23 17-33 27-10 10-19 21-27 33-8 12-15 24-20 37-5 13-10 27-12 41-3 13-4 28-4 42 0 29 6 57 16 83 11 26 27 50 47 70 20 20 44 36 70 47 26 11 54 16 83 16l0 0c29 0 57-6 83-16 26-11 50-27 70-47 20-20 36-44 47-70 11-26 16-54 16-83l0-24c0-6-1-13-4-19-2-6-6-12-10-16l-1-1c-4-4-10-8-16-11-6-2-13-4-20-4-6 0-13 2-19 4l0 0c-6 3-12 7-17 11l0 0c-4 5-8 10-11 17l0 0c-2 6-4 13-4 19l0 8c0 5 0 11 0 17l0 0c0 15-3 30-9 43-5 14-14 27-24 37-11 10-24 19-37 25-14 5-29 8-44 8-15 0-30-3-44-8-14-6-26-15-37-25-10-11-19-23-25-37-5-14-8-28-8-44 0-15 3-30 8-44 6-14 15-26 25-37 11-10 23-19 37-25 14-5 29-8 44-8 9 0 17 1 25 2 8 2 16 5 23 8 7 4 14 8 20 12 6 4 11 9 16 15 1 0 1 0 1 1 2 1 6 1 7-1 4-6 9-11 14-15 5-4 10-8 16-11 7-4 14-7 21-9 7-1 15-2 22-2 13 0 24 2 35 7 11 4 21 11 29 19l0 0c9 9 16 19 20 30 5 10 7 22 7 34l0 24c0 17-2 34-5 50-3 17-8 33-14 48-7 15-15 30-24 44-9 14-20 27-32 39-12 12-25 23-39 32-14 9-29 17-44 24-15 6-31 11-48 14-16 3-33 5-50 5-17 0-34-2-50-5-17-3-33-8-48-14-15-7-30-15-44-24-14-9-27-20-39-32-12-12-23-25-32-39-9-14-17-29-24-44-6-15-11-31-14-48-3-16-5-33-5-50 0-17 2-34 5-50 3-17 8-33 14-48 7-15 15-30 24-44 9-14 20-27 32-39 12-12 25-23 39-32 14-9 29-17 44-24 15-6 31-11 48-14z"/>
<glyph glyph-name="badge" unicode="&#112;" d="M328 498c-22 9-46 14-72 14-26 0-50-5-72-14-23-10-44-24-61-41-18-18-32-39-41-62-10-22-15-46-15-72 0-25 5-50 15-72 9-23 23-44 41-61 2-2 4-4 5-5 2-2 4-4 6-6 1 0 2-2 2-4l0-156c0-2 0-4 1-6 1-2 2-3 3-5l1-1 1-1c2-2 3-3 6-4 2-1 4-2 6-2 1 0 2 0 3 0 1 0 2 0 2 0 1 1 2 1 3 1l93 25c1 0 2 0 3 0l92-25c1 0 2-1 3-1 1 0 2 0 3 0l1 0c1 0 3 0 5 1 1 0 3 1 4 2 2 1 3 2 4 3 2 1 3 3 4 4l0 2c1 1 1 2 1 4 1 1 1 2 1 3-2 51 0 105 0 156 0 2 1 3 2 4 2 2 4 4 6 6 1 1 3 3 5 5 18 17 32 38 41 61 10 22 15 47 15 72 0 26-5 50-15 72-9 23-23 44-41 62-17 17-38 31-61 41z m-19-261l2 0c0 0 1 0 1 1 1 0 1 0 1 0 0 1 0 1 1 1 0 1 0 1 0 1 0 1 0 1 0 1l-10 60c0 1 1 3 2 5l40 39c0 0 0 0 1 0 0 1 0 1 0 2 0 0 0 0 0 1l0 0c0 0 0 0 0 1 0 0 0 0 0 1-1 0-1 0-1 1 0 0-1 0-1 0 0 0-1 0-1 0l-56 9c-1 0-3 1-4 3l-24 54c-1 0-1 1-1 1 0 0-1 0-1 1 0 0 0 0-1 0 0 0-1 0-1 0 0 0-1 0-1 0 0 0-1 0-1 0l0 0c0-1-1-1-1-1l0 0c0 0 0-1-1-1l-24-54c-1-2-2-3-4-3l-56-9c0 0-1 0-1 0 0 0-1 0-1 0 0-1 0-1-1-1 0-1 0-1 0-1 0-1 0-1 0-1l0 0c0-1 0-1 0-1 0-1 0-1 0-2 1 0 1 0 1 0l40-39c1-2 2-3 2-5l-10-60c0 0 0 0 0-1 0 0 0 0 0 0l0-1c1 0 1 0 1-1 0 0 0 0 1-1 0 0 0 0 1 0 0 0 0 0 1 0l0 0c0 0 1 0 1 0 0 0 1 0 1 0 16 9 33 17 50 26 1 1 3 1 4 0l50-26 0 0c1 0 1 0 1 0z m-16-99c13 3 24 6 36 11 0 1 1 1 2 1 3 0 5-3 5-5l0-92c0-1 0-1 0-2-1-3-3-4-6-3l-69 18c-2 1-4 1-6 1-2 0-4-1-6-1 0-1 0-1 0-1l-66-17c-1-1-2-1-2-1-3 0-5 3-5 6l0 92c0 0 0 1 0 2 1 2 4 3 7 2 11-4 23-8 36-11 12-2 24-3 37-3 13 0 25 1 37 3z m20 323c18-7 35-18 49-32 13-14 25-30 32-49 7-17 11-36 11-57 0-20-4-39-11-57-7-18-19-35-32-48-14-14-31-25-49-33-17-7-37-11-57-11-20 0-40 4-57 11-18 8-35 19-49 33-13 13-25 30-32 48-7 18-11 37-11 57 0 21 4 40 11 57 7 19 19 35 32 49 14 14 31 25 49 32 17 8 37 12 57 12 20 0 40-4 57-12z"/>
<glyph glyph-name="battery-empty" unicode="&#113;" d="M54 363c3 1 6 2 9 2l300 0c3 0 6-1 9-2 3-1 5-3 7-5l1 0c2-2 3-5 5-7 1-3 1-6 1-9l0-172c0-3 0-6-1-9-2-2-3-5-5-7-3-2-5-4-8-5-3-1-6-2-9-2l-300 0c-3 0-6 1-9 2-3 1-5 3-7 5-2 2-4 5-5 7-1 3-2 6-2 9l0 172c0 3 0 6 2 8l0 1c1 2 3 5 5 7 2 2 4 4 7 5z m430-147c3-1 5-1 8-1 3 0 5 0 7 1l0 0c3 1 5 3 7 5l0 0c2 1 3 4 4 6 1 2 2 5 2 8l0 42c0 3-1 6-2 8-1 2-2 5-4 6-2 2-4 4-7 5-2 1-4 1-7 1-3 0-5 0-8-1-2-1-4-3-6-5-2-1-3-3-4-6l0 0c-1-2-2-5-2-8l0-42c0-3 1-6 2-8 1-2 2-5 4-6 2-2 4-4 6-5z m-421-108l300 0c9 0 17 1 24 4 8 3 15 8 21 14 5 6 10 13 13 20 3 8 5 16 5 24l0 172c0 8-2 16-5 24-3 7-8 14-13 20-6 6-13 11-21 14-7 3-15 4-24 4l-300 0c-9 0-17-1-24-4-8-3-15-8-20-14-6-6-11-13-14-20-3-8-5-16-5-24l0-172c0-8 2-16 5-24 3-7 8-14 13-20l1 0c5-6 12-11 20-14 7-3 15-4 24-4z"/>
<glyph glyph-name="battery-full" unicode="&#114;" d="M54 363c3 1 6 2 9 2l300 0c3 0 6-1 9-2 3-1 5-3 7-5l1 0c2-2 3-5 5-7 1-3 1-6 1-9l0-172c0-3 0-6-1-9-2-2-3-5-5-7-3-2-5-4-8-5-3-1-6-2-9-2l-300 0c-3 0-6 1-9 2-3 1-5 3-7 5-2 2-4 5-5 7-2 3-2 6-2 9l0 172c0 3 0 6 1 8l1 1c1 2 3 5 5 7 2 2 4 4 7 5z m277-159c1 2 2 5 2 7l0 90c0 2-1 5-2 7-1 2-2 5-4 6l0 1c-2 1-4 3-6 4-3 1-5 1-8 1-5 0-10-2-14-5-2-2-3-4-4-7-1-2-2-5-2-7l0-90c0-2 1-5 2-7l0 0c1-3 2-5 4-7 2-1 4-3 7-4 2-1 4-1 7-1 3 0 5 0 7 1l1 0c2 1 4 3 6 4 2 2 3 4 4 7z m-100 0c1 2 2 5 2 7l0 90c0 2-1 5-2 7-1 2-2 5-4 6l0 1c-2 1-4 3-6 4-3 1-5 1-8 1-5 0-10-2-14-5-2-2-3-4-4-7-1-2-2-5-2-7l0-90c0-2 1-5 2-7l0 0c1-3 2-5 4-7 2-1 4-3 7-4 2-1 4-1 7-1 3 0 5 0 7 1l1 0c2 1 4 3 6 4 2 2 3 4 4 7z m-100 0c1 2 2 5 2 7l0 90c0 2-1 5-2 7-1 2-2 5-4 6l0 1c-2 1-4 3-6 4-3 1-5 1-8 1-5 0-10-2-14-5-2-2-3-4-4-7-1-2-2-5-2-7l0-90c0-2 1-5 2-7l0 0c1-3 2-5 4-7 2-1 4-3 6-4 3-1 5-1 8-1 3 0 5 0 7 1l1 0c2 1 4 3 6 4 2 2 3 4 4 7z m353 12c3-1 5-1 8-1 3 0 5 0 7 1l0 0c3 1 5 3 7 5l0 0c2 1 3 4 4 6 1 2 2 5 2 8l0 42c0 3-1 6-2 8-1 2-2 5-4 6-2 2-4 4-7 5-2 1-4 1-7 1-3 0-5 0-8-1-2-1-4-3-6-5-2-1-3-3-4-6l0 0c-1-2-2-5-2-8l0-42c0-3 1-6 2-8 1-2 2-5 4-6 2-2 4-4 6-5z m-421-108l300 0c9 0 17 1 24 4 8 3 15 8 21 14 5 6 10 13 13 20 3 8 5 16 5 24l0 172c0 8-2 16-5 24-3 7-8 14-13 20-6 6-13 11-21 14-7 3-15 4-24 4l-300 0c-8 0-17-1-24-4-8-3-15-8-20-14-6-6-11-13-14-20-3-8-5-16-5-24l0-172c0-8 2-16 5-24 3-7 8-14 13-20l1 0c5-6 12-11 20-14 7-3 16-4 24-4z"/>
<glyph glyph-name="battery-halfempty" unicode="&#115;" d="M54 363c3 1 6 2 9 2l300 0c3 0 6-1 9-2 3-1 5-3 7-5l1 0c2-2 3-5 5-7 1-3 1-6 1-9l0-172c0-3 0-6-1-9-2-2-3-5-5-7l0 0c-3-2-5-4-8-5-3-1-6-2-9-2l-300 0c-3 0-6 1-9 2-3 1-5 3-7 5l0 0c-2 2-4 5-5 7-2 3-2 6-2 9l0 172c0 3 0 6 2 8l0 1c1 2 3 5 5 7l0 0c2 2 4 4 7 5z m77-159c1 2 2 5 2 7l0 90c0 2-1 5-2 7-1 2-2 5-4 6l0 1c-2 1-4 3-6 4-3 1-5 1-8 1-5 0-10-2-14-5-2-2-3-4-4-7-1-2-2-5-2-7l0-90c0-2 1-5 2-7l0 0c1-3 2-5 4-7l0 0c2-1 4-3 6-4 3-1 5-1 8-1 3 0 5 0 7 1l1 0c2 1 4 3 6 4l0 0c2 2 3 4 4 7z m353 12c3-1 5-1 8-1 3 0 5 0 7 1l0 0c3 1 5 3 7 5l0 0c2 1 3 4 4 6 1 2 2 5 2 8l0 42c0 3-1 6-2 8-1 2-2 5-4 6-2 2-4 4-7 5-2 1-4 1-7 1-3 0-5 0-8-1-2-1-4-3-6-5-2-1-3-3-4-6l0 0c-1-2-2-5-2-8l0-42c0-3 1-6 2-8 1-2 2-5 4-6 2-2 4-4 6-5z m-421-108l300 0c9 0 17 1 24 4 8 3 15 8 21 14 5 6 10 13 13 20 3 8 5 16 5 24l0 172c0 8-2 16-5 24-3 7-8 14-13 20-6 6-13 11-21 14-7 3-15 4-24 4l-300 0c-9 0-17-1-24-4-8-3-15-8-20-14-6-6-11-13-14-20-3-8-5-16-5-24l0-172c0-8 2-16 5-24 3-7 8-14 13-20l1 0c5-6 12-11 20-14 7-3 15-4 24-4z"/>
<glyph glyph-name="battery-halffull" unicode="&#116;" d="M54 363c3 1 6 2 9 2l300 0c3 0 6-1 9-2 3-1 5-3 7-5l1 0c2-2 3-5 5-7 1-3 1-6 1-9l0-172c0-3 0-6-1-9-2-2-3-5-5-7l0 0c-3-2-5-4-8-5-3-1-6-2-9-2l-300 0c-3 0-6 1-9 2-3 1-5 3-7 5l0 0c-2 2-4 5-5 7-2 3-2 6-2 9l0 172c0 3 0 6 2 8l0 1c1 2 3 5 5 7l0 0c2 2 4 4 7 5z m177-159c1 2 2 5 2 7l0 90c0 2-1 5-2 7-1 2-2 5-4 6l0 1c-2 1-4 3-6 4-3 1-5 1-8 1-5 0-10-2-14-5-2-2-3-4-4-7-1-2-2-5-2-7l0-90c0-2 1-5 2-7l0 0c1-3 2-5 4-7l0 0c2-1 4-3 7-4 2-1 4-1 7-1 3 0 5 0 7 1l1 0c2 1 4 3 6 4l0 0c2 2 3 4 4 7z m-100 0c1 2 2 5 2 7l0 90c0 2-1 5-2 7-1 2-2 5-4 6l0 1c-2 1-4 3-6 4-3 1-5 1-8 1-5 0-10-2-14-5-2-2-3-4-4-7-1-2-2-5-2-7l0-90c0-2 1-5 2-7l0 0c1-3 2-5 4-7l0 0c2-1 4-3 6-4 3-1 5-1 8-1 3 0 5 0 7 1l1 0c2 1 4 3 6 4l0 0c2 2 3 4 4 7z m353 12c3-1 5-1 8-1 3 0 5 0 7 1l0 0c3 1 5 3 7 5l0 0c2 1 3 4 4 6 1 2 2 5 2 8l0 42c0 3-1 6-2 8-1 2-2 5-4 6-2 2-4 4-7 5-2 1-4 1-7 1-3 0-5 0-8-1-2-1-4-3-6-5-2-1-3-3-4-6l0 0c-1-2-2-5-2-8l0-42c0-3 1-6 2-8 1-2 2-5 4-6 2-2 4-4 6-5z m-421-108l300 0c9 0 17 1 24 4 8 3 15 8 21 14 5 6 10 13 13 20 3 8 5 16 5 24l0 172c0 8-2 16-5 24-3 7-8 14-13 20-6 6-13 11-21 14-7 3-15 4-24 4l-300 0c-9 0-17-1-24-4-8-3-15-8-20-14-6-6-11-13-14-20-3-8-5-16-5-24l0-172c0-8 2-16 5-24 3-7 8-14 13-20l1 0c5-6 12-11 20-14 7-3 15-4 24-4z"/>
<glyph glyph-name="bed" unicode="&#117;" d="M467 142l-422 0c-3 0-5 2-5 5l0 79c0 5 1 11 3 15 2 5 4 9 8 13l0 0c4 4 8 7 13 9 5 2 10 3 15 3l354 0c5 0 10-1 15-3 5-2 9-5 13-9l0 0c4-4 6-8 8-13 2-4 3-10 3-15l0-79c0-3-2-5-5-5z m-131 182l0-13c0-3-2-6-5-6l-150 0c-3 0-5 3-5 6l0 13c0 5 1 10 3 14 2 5 4 8 8 12 3 3 7 6 11 8 5 1 9 2 14 2l88 0c5 0 9-1 14-2 4-2 8-5 11-8 4-4 6-7 8-12 2-4 3-9 3-14z m-238 121c1 2 2 4 4 5 1 2 3 3 5 4l0 0c2 1 4 1 6 1l286 0c2 0 4 0 6-1 2-1 4-2 5-4 2-1 3-3 4-5 1-2 1-5 1-7l0-127c0-3-2-6-5-6l-29 0c-3 0-6 3-6 6l0 13c0 11-2 20-5 29-4 9-10 18-17 25-7 7-15 12-24 16-9 4-19 6-29 6l-88 0c-10 0-20-2-29-6-9-4-17-9-24-16-7-7-13-16-17-25-3-9-5-18-5-29l0-13c0-3-3-6-6-6l-29 0c-3 0-5 3-5 6l0 127c0 2 0 5 1 7z m357-139l0 132c0 8-2 15-4 22-3 7-7 13-12 18l-1 0c-5 5-11 9-18 12-7 3-14 5-21 5l-286 0c-7 0-14-2-21-5-7-3-13-7-18-12l0 0c-6-5-10-11-13-18-2-7-4-14-4-22l0-132c0-2-1-4-3-5-8-2-14-6-21-10-6-5-11-10-16-16-5-7-10-15-13-23-2-8-4-17-4-26l0-104c0-3 1-5 1-8 1-2 3-4 5-6l0 0c2-2 4-3 6-4 3-1 5-2 8-2l32 0c3 0 5-2 5-5l0-60c0-2 1-5 2-7 1-3 2-5 4-7l0 0c2-2 4-3 6-4 3-1 5-2 8-2 3 0 5 1 7 2 3 1 5 2 7 4l0 0c2 2 3 4 4 7 1 2 2 5 2 7l0 60c0 3 2 5 5 5l308 0c3 0 5-2 5-5l0-60c0-2 1-5 2-7 1-3 2-5 4-7l0 0c2-2 4-3 7-4 2-1 4-2 7-2 3 0 5 1 8 2 2 1 4 2 6 4l0 0c2 2 3 4 4 7 1 2 2 5 2 7l0 60c0 3 2 5 5 5l32 0c6 0 10 2 14 6l0 0c2 2 4 4 5 6 0 3 1 5 1 8l0 104c0 9-2 18-4 26-3 8-8 16-13 23-5 6-10 11-16 16-6 4-13 8-20 10-3 1-4 3-4 5z"/>
<glyph glyph-name="bell" unicode="&#118;" d="M408 158l-304 0c-1 0-2 0-2 0-3 2-4 5-3 7 2 3 3 6 5 9 1 3 2 6 3 9 1 4 2 8 3 13 0 4 0 8 0 13l0 118c0 19 4 38 12 55 7 18 18 34 31 48 14 13 30 24 47 31 18 7 36 11 56 11 40 0 77-16 103-42 13-14 24-30 31-48 8-17 12-36 12-55l0-118c0-5 0-9 0-13 1-5 2-9 3-13 1-3 2-6 3-9 2-3 3-6 4-8 1-1 1-2 1-3 0-3-2-5-5-5z m-161-157c3-1 6-1 9-1 6 0 12 1 17 2 6 2 11 4 17 7 4 3 9 6 13 11 4 4 8 8 11 13 1 3 2 5 3 8 0 2 0 5-1 7-1 3-2 5-3 7-2 2-4 4-6 6-3 1-5 2-8 2-2 0-5 0-7 0-3-1-5-2-7-4-2-1-4-3-5-5l0-1c-2-3-5-6-7-8-3-2-7-3-10-4-3-1-7-2-11-1-3 0-6 1-10 3l0 0c-1 1-2 2-3 2-1 1-2 2-2 3-1 0-2 1-3 2 0 1-1 2-2 3-1 3-3 5-5 6-2 2-4 3-7 4-2 0-5 0-7 0-3 0-5-1-8-2-2-2-4-4-6-6-1-2-2-4-3-7-1-2-1-5-1-7 1-3 2-5 3-8 1-2 3-5 5-7 2-2 3-4 6-6 2-2 4-4 6-6l0 0c2-2 5-3 7-5 3-1 6-3 8-4 3-1 6-2 9-3 2 0 5-1 8-1z m-227 117l472 0c3 0 5 1 8 2 2 1 4 2 6 4 2 2 4 4 5 6 0 3 1 5 1 8 0 3-1 5-1 7-1 3-3 5-5 7l0 0c-2 2-4 3-6 4-3 1-5 2-8 2-7 0-13 1-19 4-6 2-12 6-17 10l0 1c-5 4-8 10-11 16-2 6-4 13-4 20l0 118c0 25-5 49-14 71-9 22-23 43-40 60-17 17-38 31-60 40-22 9-46 14-71 14-25 0-49-5-71-14-22-9-43-23-60-40-17-17-31-38-40-60-9-22-14-46-14-71l0-118c0-7-1-14-4-20l0 0c-3-6-6-12-11-16l0 0c-5-5-10-9-17-11-6-3-12-4-19-4-6 0-11-3-14-6-2-2-4-4-5-7 0-2-1-4-1-7 0-6 2-11 6-14 2-2 4-3 6-4 3-1 5-2 8-2z"/>
<glyph glyph-name="bill" unicode="&#119;" d="M12 474c3-1 5-2 8-2l11 0c2 0 5-2 5-5l0-447c0-2 0-4 1-6 0-2 1-3 2-5 1-2 3-3 4-4 2-2 3-3 5-3 2-1 4-2 6-2 2 0 4 0 6 0 2 1 4 2 5 2 2 1 3 2 5 4l49 49c2 2 5 2 7 0l49-49c1-1 2-2 3-3 1 0 2-1 3-1l1 0c1-1 2-1 3-2 2 0 3 0 4 0 2 0 3 0 4 0 1 1 3 1 4 2 1 0 2 1 3 1 1 1 3 2 3 3l49 49c2 2 6 2 8 0l48-49c1-1 3-2 4-3 1 0 2-1 3-1 1-1 2-1 4-2 1 0 2 0 4 0 1 0 2 0 4 0 1 1 2 1 3 2 2 0 3 1 4 1 1 1 2 2 3 3l49 49c2 2 5 2 7 0l49-49c1-1 2-2 3-3 1 0 2-1 3-1 2-1 3-1 4-1l0-1c1 0 3 0 4 0 1 0 2 0 2 0 1 0 1 0 2 0l0 0c1 1 1 1 2 1 1 0 1 0 2 1 2 0 3 1 5 3 1 1 3 2 4 4 1 2 2 3 2 5 1 2 1 4 1 6l0 447c0 3 3 5 5 5l11 0c3 0 5 1 8 2 2 1 4 2 6 4l0 0c2 2 3 4 4 7 1 2 2 5 2 7 0 6-2 11-6 14-2 2-4 4-6 4-3 1-5 2-8 2l-472 0c-3 0-5-1-8-1l0-1c-2 0-4-2-6-4l0 0c-2-2-4-4-4-6-1-3-2-5-2-8 0-5 2-10 6-14 2-2 4-3 6-4z m138-301l138 0c3 0 5 1 8 2 2 1 4 2 6 4l0 0c2 2 4 4 4 6 1 3 2 5 2 8 0 3-1 5-2 8-1 2-2 4-4 6-2 2-4 4-6 5-3 1-5 1-8 1l-138 0c-3 0-5 0-7-1-3-1-5-3-7-4l0-1c-2-2-3-4-4-6-1-3-2-5-2-8 0-3 1-5 2-8 1-2 2-4 4-6 2-2 4-3 7-4 2-1 4-2 7-2z m0 94l86 0c6 0 11 3 14 6 2 2 4 4 5 7 1 2 1 5 1 8 0 5-2 10-6 14-2 2-4 3-6 4-3 1-5 2-8 2l-86 0c-3 0-5-1-8-2-2-1-4-2-6-4-2-2-3-4-4-7-1-2-2-5-2-7 0-6 2-11 6-15 2-2 4-3 6-4 3-1 5-2 8-2z m0 95l212 0c3 0 5 0 7 1 3 1 5 3 7 5 2 1 3 4 4 6 1 3 2 5 2 8 0 5-2 10-6 14-2 2-4 3-7 4-2 1-4 2-7 2l-212 0c-3 0-5-1-8-2-2-1-4-2-6-4-2-2-3-4-4-7-1-2-2-4-2-7 0-3 1-5 2-8 1-2 2-5 4-6 2-2 4-4 7-5 2-1 4-1 7-1z m277-284l-23 23c-1 1-2 2-3 3-1 0-3 1-4 1-1 1-2 1-4 2-1 0-2 0-4 0-1 0-2 0-3 0-2-1-3-1-4-2-1 0-2-1-3-1l-1 0c-1-1-2-2-3-3l-49-49c-2-2-5-2-7 0l-49 49c-1 1-2 2-3 3-1 0-2 1-3 1-2 1-3 1-4 2-1 0-3 0-4 0-1 0-3 0-4 0-1-1-2-1-4-1l0-1c-1 0-2-1-3-1-1-1-2-2-3-3l-49-49c-2-2-5-2-7 0l-49 49c-1 1-2 2-3 3-1 0-2 1-4 1-1 1-2 1-4 2-1 0-2 0-3 0-2 0-3 0-4 0-2-1-3-1-4-2-1 0-3-1-4-1-1-1-2-2-3-3l-23-23c-1-1-2-2-4-2-3 0-5 2-5 5l0 386c0 2 2 5 5 5l350 0c3 0 5-3 5-5l0-386c0-1 0-2-1-3-2-2-6-2-8 0z"/>
<glyph glyph-name="book" unicode="&#120;" d="M441 446l-301 0c-2 0-5-1-7-2-2-1-5-2-6-4-2-2-4-4-5-6-1-3-1-5-1-8 0-2 0-5 1-7 1-3 3-5 4-6l1-1c1-1 4-3 6-4 2-1 5-1 7-1l301 0c2 0 5 0 7 1 3 1 5 3 7 4 1 2 3 4 4 7 1 2 1 5 1 7 0 3 0 5-1 8-1 2-3 4-4 6-2 2-4 3-7 4-2 1-5 2-7 2z m0-64l-305 0c-6 0-12 1-17 3-6 3-11 6-15 10 0 0 0 1 0 1-4 4-8 9-10 14-2 5-3 11-3 17 0 6 1 12 3 18 3 5 6 10 10 14 4 5 9 8 15 10 5 2 11 4 17 4l305 0c2 0 5 0 7 1 3 1 5 3 7 4 1 2 3 4 4 7 1 2 1 5 1 7 0 3 0 5-1 8-1 2-3 4-4 6-2 2-4 3-7 4l0 0c-2 1-5 2-7 2l-305 0c-11 0-22-2-32-6-10-5-20-11-28-19-7-8-14-17-18-27-4-10-6-21-6-33l0-342c0-24 9-45 24-60 8-8 18-14 28-18 10-4 21-7 32-7l305 0c3 0 5 1 7 1 3 1 5 3 7 5 1 2 3 4 4 6 1 2 1 5 1 8l0 342c0 3 0 6-1 8-1 2-2 4-4 6l0 0c-2 2-4 4-7 5-2 0-5 1-7 1z m-322-339c-6 2-11 5-15 10l0 0c-4 4-7 9-10 14-2 6-3 12-3 18l0 262c0 1 0 2 0 2 2 3 5 4 7 3 3-1 5-2 7-3 2-1 4-2 7-3 4-1 8-2 12-2 4-1 8-1 12-1l280 0c3 0 5-3 5-5l0-293c0-3-2-6-5-6l-280 0c-6 0-12 2-17 4z"/>
<glyph glyph-name="bookmark" unicode="&#121;" d="M262 170c-2 1-4 1-6 1-1 0-2 0-3 0-1 0-2-1-3-1-1 0-2-1-3-1-1 0-2-1-2-2l-144-102c-1-1-2-1-3-1-3 0-6 2-6 5l0 370c0 5 1 9 3 13 2 4 4 7 7 10 3 3 7 6 11 8 4 1 8 2 12 2l262 0c4 0 9-1 12-2 4-2 8-5 11-8l0 0c3-3 5-6 7-10 2-4 3-8 3-13l0-370c0-1-1-2-1-3-2-2-5-3-8-1l-144 102c-1 2-3 2-5 3z m174-169c1 0 2-1 3-1 1 0 2 1 3 1 1 0 1 0 2 0 1 0 1 0 2 1l0 0c1 0 2 0 2 1 2 0 4 2 5 3 1 1 2 2 3 4 1 1 2 3 2 5 1 2 1 3 1 5l0 419c0 10-2 19-5 28-4 9-9 17-16 23-7 7-15 12-24 16-8 4-17 6-27 6l-262 0c-10 0-19-2-27-6-9-4-17-9-24-16-7-6-12-14-16-23-3-9-5-18-5-28l0-419c0-2 0-3 1-5 0-2 1-4 2-5 1-2 2-3 3-4 1-1 3-3 5-3 1-1 3-2 5-2 2 0 3-1 5 0 2 0 4 0 5 1l0 0c2 0 4 1 5 2l169 121c2 1 4 1 6 0l169-121c1 0 2-1 2-1 1-1 2-1 3-1l0-1c1 0 2 0 3 0z"/>
<glyph glyph-name="box" unicode="&#122;" d="M498 396l-233 113c-1 0-2 1-4 1-1 1-3 1-4 1-2 0-3 0-5-1-1 0-2-1-4-1l-234-114c-2-1-3-2-5-3-1-1-2-2-3-4-1-1-2-3-3-5 0-1 0-3-1-5-5-71 0-169 0-243 0-2 1-4 1-6 1-1 1-3 3-5 0-1 2-3 3-4 1-1 3-2 5-3l233-113c0 0 1 0 1-1l0 0c1 0 1 0 2 0l0-1c1 0 1 0 2 0 0 0 1 0 1 0 0 0 1-1 1-1l0 0 1 0c4 0 5 0 8 1 1 0 1 1 2 1 0 0 0 0 0 0l1 0c0 1 1 1 1 1l234 113c2 1 3 2 4 3 2 2 3 3 4 5 1 1 2 3 2 5l0 0c1 1 1 3 1 5l0 242c0 2 0 4-1 6-1 2-2 4-3 5-1 2-3 3-4 5-2 1-4 2-6 3z m-239 72l178-86c1-1 2-1 2-2 2-3 1-6-2-7l-49-24c-2-1-3-1-5 0l-178 86c-1 0-2 1-2 2-1 3 0 6 2 7l50 24c1 1 3 1 4 0z m-4-182l-178 87c-1 0-2 1-3 2-1 3 0 6 3 7l71 35c2 0 3 0 5 0l178-87c1 0 2-1 2-2 1-3 0-6-2-7l-72-35c-1 0-3 0-4 0z m-206 56l185-89c2-1 3-3 3-5l0-187c0-1 0-2 0-2-2-3-5-4-7-3l-185 90c-2 0-3 2-3 4l0 187c0 1 0 2 0 3 2 2 5 3 7 2z m227-281l0 187c0 2 2 4 3 4l75 37c1 0 2 0 3 0 2 0 5-2 5-5l0-49c0-2 0-5 1-7 1-2 3-5 4-6l1-1c2-2 4-3 6-4 2-1 5-1 7-1 3 0 6 0 8 1 2 1 4 3 6 4l1 1c1 2 3 4 4 6 1 2 1 5 1 7l0 73c0 2 1 4 3 5l61 29c0 1 1 1 2 1 3 0 5-2 5-5l0-187c0-2-1-4-3-5l-185-90c-1 0-1 0-2 0-3 0-6 2-6 5z"/>
<glyph glyph-name="box2" unicode="&#65;" d="M57 470c3 2 6 2 10 2l378 0c4 0 7 0 10-2 4-1 7-3 9-6 3-2 5-5 6-9 2-3 2-6 2-10l0-30c0-3 0-7-2-10l0 0c-1-3-3-6-6-9l0 0c-2-3-5-5-9-6-3-1-6-2-10-2l-378 0c-4 0-7 1-10 2-4 1-7 3-9 6-3 2-5 5-6 9l0 0c-2 3-2 7-2 10l0 30c0 4 0 7 2 10 1 4 3 7 5 9l1 0c2 3 5 5 9 6z m121-220c2-1 5-2 7-2l142 0c2 0 5 1 7 2 3 1 5 2 7 4l0 0c2 2 3 4 4 6 1 3 2 5 2 8 0 5-3 10-6 14-2 2-4 3-7 4-2 1-5 2-7 2l-142 0c-2 0-5-1-7-2l0 0c-3-1-5-2-7-4l0 0c-2-2-3-4-4-6-1-3-2-5-2-8 0-6 3-10 6-14 2-2 4-3 7-4z m-87 96c4 2 7 2 11 2l308 0c4 0 7 0 11-2 3-1 6-3 8-6 3-2 5-5 6-9 2-3 3-6 3-10l0-254c0-4-1-7-2-10l-1 0c-1-4-3-7-5-9l-1 0c-2-3-5-5-8-6-4-2-7-2-11-2l-308 0c-4 0-7 0-11 2-3 1-6 3-8 6-3 2-5 5-6 9-2 3-3 6-3 10l0 254c0 4 1 7 3 10 1 4 3 6 5 9l1 0c2 3 5 5 8 6z m-15-341c8-3 17-5 26-5l308 0c9 0 18 2 26 5 8 3 15 8 22 15 6 6 11 13 14 21 3 8 5 17 5 26l0 287c0 1 1 3 3 4 2 1 4 3 6 5 2 1 4 3 6 5 7 6 12 14 15 22 3 8 5 16 5 25l0 30c0 18-7 35-20 47-6 7-13 12-21 15-8 3-17 5-26 5l-378 0c-9 0-18-2-26-5-8-3-15-8-21-15-7-6-12-13-15-21-3-8-5-17-5-26l0-30c0-9 2-17 5-25 3-8 8-16 15-22 2-2 4-4 6-5 2-2 4-3 6-5 2-1 3-2 3-4l0-287c0-9 2-18 5-26 3-8 8-15 15-21 6-7 13-12 21-15z"/>
<glyph glyph-name="briefcase" unicode="&#66;" d="M493 420c-38 2-85 0-124 0-3 0-5 2-5 5l0 38c0 13-6 26-14 34l-1 1c-4 4-9 8-15 10-6 3-13 4-19 4l-118 0c-6 0-13-1-19-4-5-2-11-6-15-10l0 0c-5-5-9-10-11-16-3-6-4-12-4-19l0-38c0-3-2-5-5-5l-123 0c-3 0-6-1-8-2-2-1-4-2-6-4l0 0c-2-2-3-4-4-6-1-3-2-5-2-8l0-351c0-7 1-13 4-19 2-6 6-11 10-15l0-1c5-4 10-8 16-10 6-3 12-4 19-4l414 0c7 0 13 1 19 4 6 2 11 6 15 10l1 0c4 5 8 10 10 16 3 6 4 12 4 19l0 351c0 3-1 6-2 8-1 2-2 4-4 6-1 2-3 3-6 4-2 1-4 2-7 2z m-305 47c1 1 1 2 2 3 1 1 2 2 3 2 2 1 3 1 4 1l118 0c1 0 2 0 3-1l1 0c1 0 2-1 2-2l1 0c1-1 1-2 2-3 0-1 1-3 1-4l0-38c0-3-3-5-5-5l-128 0c-2 0-5 2-5 5l0 38c0 1 1 3 1 4z m275-93l-41-124c-1-1-1-2-1-3l-1 0c0-1-1-2-2-2-1-1-1-1-2-1l-1-1c-1 0-2 0-3 0l-72 0c-3 0-6 2-6 5l0 22c0 2 0 5-1 7l0 0c-1 2-2 4-4 6l0 0c-2 2-4 4-7 5-2 1-4 1-7 1l-118 0c-2 0-5 0-7-1-3-1-5-3-6-4-1 0-1-1-1-1-2-2-3-4-4-6-1-2-1-5-1-7l0-22c0-3-3-5-6-5l-72 0c-1 0-2 0-3 0-1 1-2 1-3 2-1 0-2 1-2 2-1 1-1 2-2 3l-41 123c0 1 0 2 0 2 0 3 2 6 5 6l404 0c1 0 1-1 2-1 3-1 4-4 3-6z m-168-129l0-43c0-3-2-5-5-5l-68 0c-3 0-5 2-5 5l0 43c0 3 2 5 5 5l68 0c3 0 5-2 5-5z m178-196c0-3-1-5-3-7 0 0 0 0-1-1 0 0-1-1-2-1-1-1-3-1-4-1l-414 0c-1 0-3 0-4 1-1 0-2 1-3 2-1 1-2 2-2 3-1 1-1 3-1 4l0 199c0 2 1 4 4 5 2 0 5-1 6-4l4-12c2-4 4-9 7-13 3-4 7-8 11-11 4-3 9-5 14-7 4-1 9-2 15-2l72 0c3 0 6-2 6-5l0-22c0-2 0-5 1-7 1-2 2-5 4-6l0-1c2-1 4-3 7-4 2-1 5-1 7-1l118 0c3 0 5 0 7 1 3 1 5 3 7 4l0 1c2 1 3 3 4 6 1 2 1 5 1 7l0 22c0 3 3 5 6 5l72 0c6 0 11 1 15 2 5 2 10 4 14 7 4 3 8 7 11 11 3 4 5 9 7 13l4 12c0 2 2 4 5 4 3 0 5-2 5-5z"/>
<glyph glyph-name="brightness" unicode="&#67;" d="M248 379c3-1 5-1 8-1 3 0 5 0 8 1 2 1 4 3 6 5 2 2 3 4 4 6 1 2 2 5 2 8l0 94c0 3-1 5-2 8-1 2-2 4-4 6-2 2-4 3-6 5-3 0-5 1-8 1-3 0-5-1-7-1l-1 0c-2-1-4-3-6-5-2-2-3-4-4-6-1-3-2-5-2-8l0-94c0-3 1-6 2-8 1-2 2-4 4-6 2-2 4-4 6-5z m101-41c2-1 5-2 7-2 1 0 3 0 4 1 1 0 3 0 4 1 1 0 2 1 3 2 1 0 2 1 3 2l67 67c2 2 3 4 4 6 1 3 2 5 2 8 0 2-1 5-2 7l0 1c-1 2-2 4-4 6l0 0c-2 2-4 3-6 4-3 1-5 2-8 2-3 0-5-1-8-2-2-1-4-2-6-4l-67-67c-2-2-3-4-4-6-1-3-2-5-2-8 0-2 1-5 2-7 1-3 2-5 4-7 1-1 2-2 3-2l0 0c1-1 2-2 3-2z m-264-268c1-1 3-1 4-1 1 0 3 0 4 1 1 0 2 0 4 1 1 0 2 1 3 2 1 0 2 1 3 2l67 67c4 4 6 9 6 14 0 2-1 5-2 7-1 3-2 5-4 7-2 2-4 3-7 4-2 1-5 2-7 2-3 0-5-1-8-2l0 0c-2-1-4-2-6-4l-67-67c-2-2-3-4-4-6-1-3-2-5-2-8 0-3 1-5 2-8 1-2 2-4 4-6 1-1 2-2 3-2l0 0c1-1 2-2 3-2 2-1 3-1 4-1z m313 166l94 0c3 0 5 1 8 2 2 1 4 2 6 4l0 0c2 2 4 4 5 6 0 3 1 5 1 8 0 3-1 5-1 7l0 1c-1 2-3 4-5 6-2 2-4 3-6 4-3 1-5 2-8 2l-94 0c-3 0-6-1-8-2-2-1-4-2-6-4-2-2-4-4-4-6l-1 0c-1-3-1-5-1-8 0-3 0-5 1-8 1-2 3-4 5-6 2-2 4-3 6-4 2-1 5-2 8-2z m-378 0l94 0c3 0 6 1 8 2 2 1 4 2 6 4 2 2 4 4 5 6 1 3 1 5 1 8 0 3 0 5-1 8-1 2-3 4-5 6-2 2-4 3-6 4-2 1-5 2-8 2l-94 0c-3 0-5-1-8-2-2-1-4-2-6-4-2-2-4-4-5-6 0-3-1-5-1-8 0-3 1-5 1-8 1-2 3-4 5-6l0 0c2-2 4-3 6-4 3-1 5-2 8-2z m399-166c1-1 3-1 4-1 1 0 3 0 4 1 1 0 2 0 3 1l1 0c1 0 2 1 3 2 1 0 2 1 3 2l0 0c2 2 3 4 4 6 1 3 2 5 2 8 0 3-1 5-2 8-1 2-2 4-4 6l-67 67c-2 2-4 3-6 4-3 1-5 2-8 2-2 0-5-1-7-2-3-1-5-2-7-4-2-2-3-4-4-7-1-2-2-5-2-7 0-3 1-5 2-8 1-2 2-4 4-6l67-67c1-1 2-2 3-2l0 0c1-1 2-2 3-2 2-1 3-1 4-1z m-271 268c3-1 5-2 8-2 1 0 2 0 4 1 1 0 2 0 3 1 2 0 3 1 4 2 1 0 2 1 3 2 4 4 6 9 6 14 0 3-1 5-2 8-1 2-2 4-4 6l-67 67c-2 2-4 3-6 4-3 1-5 2-8 2-3 0-5-1-8-2-2-1-4-2-6-4-2-2-3-4-4-6-1-3-2-5-2-8 0-3 1-5 2-7l0-1c1-2 2-4 4-6l67-67c1-1 2-2 3-2 1-1 2-2 3-2z m100-337c3 0 5-1 8-1 3 0 5 1 8 1 2 1 4 3 6 5l0 0c2 2 3 4 4 6 1 3 2 5 2 8l0 94c0 3-1 6-2 8-1 2-2 4-4 6-2 2-4 4-6 5-3 1-5 1-8 1-3 0-5 0-8-1-2-1-4-3-6-5-2-2-3-4-4-6-1-2-2-5-2-8l0-94c0-3 1-5 2-8 1-2 2-4 4-6 2-2 4-4 6-5z"/>
<glyph glyph-name="broom" unicode="&#68;" d="M467 445l-127-127c-2-2-5-2-7 0l-15 15c-2 2-2 5 0 7l128 128c1 1 3 2 5 3 2 1 4 1 6 1 2 0 4 0 6-1 2-1 3-2 5-3l0 0c1-2 2-3 3-5 1-2 1-4 1-6 0-2 0-4-1-6-1-2-2-4-3-5z m45 11c0 0 0 1 0 1l0 0c0 4 0 7-1 11-1 3-2 7-3 10-2 3-3 7-5 10-2 2-4 5-7 8l-1 0c-2 3-5 5-8 7-3 2-6 3-9 5-7 3-14 4-21 4-4 0-7 0-11-1-4-1-7-2-10-3-4-2-7-3-10-5-3-2-6-5-8-7l-128-128c-2-2-5-2-7 0-7 5-14 9-21 12-8 3-16 5-24 6-9 0-18-1-27-4-8-2-16-6-24-12l-179-140c-1-1-2-2-3-3-1-1-2-3-3-4 0-1-1-2-1-4-1-1-1-2-1-4 0-1 0-3 0-4 1-1 1-3 1-4 1-1 2-3 2-4 1-1 2-2 3-3l194-194 0 0c1-1 2-2 3-3 1 0 2-1 4-1 1-1 2-1 3-2 1 0 3 0 4 0l1 0c2 0 3 0 5 1 1 0 2 1 3 1 2 1 3 2 4 3 1 1 2 2 3 3l140 179c6 7 10 16 13 24 2 9 3 18 3 27-1 8-3 16-6 24-3 7-7 14-12 20-2 2-2 6 0 8l128 128c2 2 5 5 7 8 2 3 3 6 5 10 1 3 2 6 3 10 0 3 1 7 1 10z m-304-402l-29 29c-2 2-2 5 0 7l47 52c2 2 4 4 4 6 1 3 2 6 1 8 0 3 0 5-1 8-1 2-3 4-5 6-2 2-4 3-7 4-2 1-5 1-7 1-3 0-5-1-8-2-2-1-4-2-6-4l-46-51c-2-2-5-2-7 0l-26 26c-2 2-2 5 0 7l51 46c2 2 3 4 4 6l0 0c1 3 2 5 2 8 0 2 0 5-1 7-1 3-2 5-4 7-2 2-4 3-6 5-3 1-5 1-8 1-2 1-5 0-7-1-3-1-5-2-7-4l-52-47c-2-2-5-2-7 0l-29 29-1 1c-1 2-1 5 1 7l126 98c2 2 5 2 7 0l127-127c2-2 2-5 0-7l-98-125c0-1 0-1 0-1-2-2-6-2-8 0z m51 282l77-77c3-4 5-7 7-11 2-4 3-8 3-12 0-2 0-5 0-7l0 0c0-2-1-4-1-6 0-1-1-2-2-2-2-2-5-2-7 0l-115 115c-1 1-1 1-1 2-1 3 0 6 3 7 2 0 4 1 6 1 2 0 5 0 7 0 4 0 8-1 12-3 4-2 7-4 10-7z"/>
<glyph glyph-name="browser" unicode="&#69;" d="M274 406c1 1 2 1 3 2 2 0 3 1 4 1 1 1 2 2 2 3l1 0c1 1 2 2 2 3 1 1 1 2 2 3l0 0c1 1 1 3 1 4 0 1 1 2 1 4 0 1-1 2-1 3 0 2 0 3-1 4 0 1-1 3-2 4l0 0c0 1-1 2-2 2l0 1c-2 2-4 3-7 4-2 1-5 1-7 1-3 0-5 0-8-1-2-1-4-2-6-4l0-1c-1 0-2-1-2-2-1-1-2-2-2-4l0 0c-1-1-1-2-1-3-1-2-1-3-1-4 0-2 0-3 1-4 0-1 0-3 1-4 0-1 1-2 2-3 0-1 1-2 2-3l0 0c1-1 2-2 3-3 1 0 2-1 3-1l0 0c2-1 3-1 4-2 1 0 3 0 4 0 1 0 2 0 4 0z m238-364l0 428c0 6-1 11-3 16-2 5-5 10-9 14-4 4-9 7-14 9-5 2-10 3-16 3l-428 0c-6 0-11-1-16-3-5-2-10-5-13-9l-1 0c-4-4-7-9-9-14-2-5-3-10-3-16l0-428c0-6 1-11 3-16 2-5 5-10 9-14 4-4 9-7 14-9 5-2 10-3 16-3l428 0c6 0 11 1 16 3 5 2 10 5 13 9 1 0 1 0 1 1 4 3 7 8 9 13 2 5 3 10 3 16z m-467 431l423 0c2 0 5-3 5-5l0-84c0-3-3-5-5-5l-423 0c-3 0-6 2-6 5l0 84c0 2 3 5 6 5z m-6-429l0 290c0 3 3 5 6 5l423 0c2 0 5-2 5-5l0-290c0-2-3-5-5-5l-423 0c-3 0-6 3-6 5z m385 362c1 1 2 1 4 2 1 0 2 1 3 1 1 1 2 2 3 3l0 0c1 1 2 2 2 2l0 1c1 1 2 2 2 3 1 1 1 3 1 4 1 1 1 2 1 4 0 1 0 2-1 4 0 1 0 2-1 3 0 1-1 2-1 3l-1 1c0 1-1 2-2 3l0 0c-2 2-4 3-6 4l0 0c-3 1-5 1-7 1l-1 0c-2 0-5 0-8-1-2-1-4-2-6-4l0 0c-1-1-1-2-2-3-1-1-1-3-2-4 0-1-1-2-1-3 0-2 0-3 0-4 0-2 0-3 0-4 0-1 0-2 1-3 0-1 0-1 0-1 1-1 1-2 2-3 1-1 1-2 2-3l0 0c1-1 2-2 3-3 1 0 2-1 4-1 1-1 2-1 3-2 2 0 3 0 4 0 1 0 3 0 4 0z m-75 0c1 1 2 1 3 2 2 0 3 1 4 1 1 1 2 2 3 3l0 0c1 1 2 2 2 3 1 1 1 2 2 3l0 0c1 1 1 3 1 4 0 1 1 2 1 4 0 1-1 2-1 4 0 1 0 2-1 3 0 1-1 3-2 4 0 1-1 2-2 2 0 1 0 1-1 1-1 2-3 3-5 4l-1 0c-2 1-4 1-7 1l0 0c-3 0-5 0-8-1-2-1-4-2-6-4l0 0c-1-1-2-2-2-3-1-1-2-3-2-4-1-1-1-2-1-3-1-2-1-3-1-4 0-2 0-3 1-4 0-1 0-2 1-3 0-1 0-1 0-1 0-1 1-2 2-3 0-1 1-2 2-3l0 0c1-1 2-2 3-3 1 0 2-1 4-1 1-1 2-1 3-2 1 0 3 0 4 0 1 0 3 0 4 0z"/>
<glyph glyph-name="browser-software" unicode="&#70;" d="M274 406c1 1 2 1 3 2 2 0 3 1 4 1 1 1 2 2 2 3l1 0c1 1 1 2 2 3 1 1 1 2 2 3l0 0c0 2 1 3 1 4 0 1 1 2 1 4 0 1-1 2-1 4 0 1-1 2-1 3 0 1-1 3-2 3l0 1c-1 1-1 2-2 3l0 0c-2 2-4 3-7 4-2 1-5 1-7 1-3 0-5 0-8-1-2-1-4-2-6-4l0-1c-1 0-2-1-2-2-1-1-2-2-2-4l0 0c-1-1-1-2-1-3-1-2-1-3-1-4 0-2 0-3 1-4 0-1 0-2 1-4 0-1 1-2 2-3 0-1 1-2 2-3l0 0c1-1 2-2 3-3 1 0 2-1 3-1l0 0c2-1 3-1 4-2 1 0 3 0 4 0 1 0 2 0 4 0z m-131-172l41-41c2-2 2-5 0-8l-41-41c-2-2-4-4-5-6-1-3-1-5-1-8 0-3 0-5 1-7l0-1c1-2 3-4 5-6l0 0c2-2 4-3 6-4 3-1 5-2 8-2 2 0 5 1 7 2 3 1 5 2 7 4l59 59c2 2 3 4 4 7 1 2 2 5 2 7 0 3-1 5-2 8-1 2-2 4-4 6l-59 59c-1 1-2 2-3 3-1 1-2 1-4 2-1 0-2 1-3 1l0 0c-2 0-3 0-4 0-1 0-3 0-4 0-1 0-3-1-4-1-1-1-2-1-3-2-1-1-2-2-3-3-2-2-4-4-5-6-1-2-1-5-1-8 0-2 0-5 1-7 1-3 3-5 5-7z m133-122c2-1 5-2 7-2l72 0c3 0 5 1 8 2 2 1 4 2 6 4 2 2 4 4 5 6 1 3 1 5 1 8 0 3 0 5-1 7l0 1c-1 2-3 4-5 6-2 2-4 3-6 4-3 1-5 2-8 2l-72 0c-2 0-5-1-7-2l0 0c-2-1-5-2-6-4l-1 0c-1-2-3-4-4-6-1-3-1-5-1-8 0-5 2-10 5-14 2-2 4-3 7-4z m236-70l0 428c0 6-1 11-3 16-2 5-5 10-9 14-4 4-9 7-14 9-5 2-10 3-16 3l-428 0c-6 0-11-1-16-3-5-2-10-5-13-9l-1 0c-4-4-7-9-9-14-2-5-3-10-3-16l0-428c0-6 1-11 3-16 2-5 5-10 9-14 4-4 9-7 14-9 5-2 10-3 16-3l428 0c6 0 11 1 16 3 5 2 10 5 13 9 1 0 1 0 1 1 4 3 7 8 9 13 2 5 3 10 3 16z m-468 431l424 0c2 0 5-3 5-5l0-84c0-3-3-6-5-6l-424 0c-2 0-5 3-5 6l0 84c0 2 3 5 5 5z m-5-429l0 290c0 3 3 5 5 5l424 0c2 0 5-2 5-5l0-290c0-2-3-5-5-5l-424 0c-2 0-5 3-5 5z m385 362c1 1 2 1 4 2 1 0 2 1 3 1 1 1 2 2 3 3l0 0c1 1 2 2 2 2l0 1c1 1 2 2 2 3 1 2 1 3 1 4 1 1 1 2 1 4 0 1 0 2-1 4 0 1 0 2-1 3 0 1-1 2-1 3l-1 1c0 1-1 2-2 3l0 0c-2 2-4 3-6 4l0 0c-3 1-5 1-7 1l-1 0c-3 0-5 0-8-1-2-1-4-2-5-4l-1 0c-1-1-2-2-2-3-1-1-2-3-2-4-1-1-1-2-1-3 0-2 0-3 0-4 0-2 0-3 0-4 0-1 0-2 1-3 0-1 0-1 0-1 1-1 1-2 2-3 0-1 1-2 2-3l0 0c1-1 2-2 3-3 1 0 2-1 4-1 1-1 2-1 3-2 1 0 3 0 4 0 1 0 3 0 4 0z m-75 0c1 1 2 1 4 2 1 0 2 1 3 1 1 1 2 2 3 3l0 0c1 1 2 2 2 3 1 1 1 2 2 3l0 0c1 1 1 3 1 4 0 1 1 2 1 4 0 1-1 2-1 4 0 1-1 2-1 3-1 1-1 3-2 4 0 1-1 2-2 2 0 1 0 1-1 1-1 2-3 3-5 4l-1 0c-2 1-4 1-7 1l0 0c-3 0-5 0-8-1-2-1-4-2-6-4l0 0c-1-1-2-2-2-3-1-1-2-3-2-4-1-1-1-2-1-3-1-2-1-3-1-4 0-2 0-3 1-4 0-1 0-2 1-3 0-1 0-1 0-1 0-1 1-2 2-3 0-1 1-2 2-3l0 0c1-1 2-2 3-3 1 0 2-1 3-1 2-1 3-1 4-2 1 0 3 0 4 0 1 0 3 0 4 0z"/>
<glyph glyph-name="brush" unicode="&#71;" d="M457 510c-2 1-5 2-7 2-3 0-5 0-8-1-2-1-4-3-6-4l-302-284c-1-2-3-2-4-2-8 1-16 1-24 0-8 0-16-2-23-5-8-2-15-6-22-10-7-4-13-9-19-15-9-8-15-20-21-34-6-17-11-37-14-57-3-18-5-35-6-49-1-14-1-26-1-31 0-1 0-3 0-4 1-1 1-3 1-4 1-1 1-2 2-3l0 0c1-1 2-2 3-3l0 0c1-1 2-2 3-3 1 0 2-1 3-2 1 0 3 0 4-1 1 0 2 0 4 0l0 0c9 0 32 1 59 4 16 2 33 5 50 9 14 3 27 7 38 13 10 4 18 9 24 16 6 6 11 12 15 19 4 7 8 14 10 22 3 7 5 15 5 23 1 8 1 16 0 24 0 1 0 3 1 4l285 302c1 2 3 4 4 6 1 3 1 5 1 8 0 2 0 5-1 7-1 2-3 4-5 6l-43 43c-2 2-4 4-6 4z m-310-451c-8-3-17-5-27-8-10-2-22-4-34-6-13-2-27-3-40-4l0 0c-3 0-6 2-5 5 1 13 2 27 4 40 2 12 4 24 6 34 3 10 5 19 9 27 2 7 6 12 10 16 3 3 6 6 10 8 3 3 7 5 11 7 4 1 8 2 12 3 5 1 9 2 13 2 5 0 9-1 13-2 5-1 9-2 13-3 4-2 8-4 11-7 4-2 7-5 10-8 7-6 11-13 15-21 3-8 5-17 5-26 0-8-2-17-5-25-4-8-8-15-15-21l0-1c-4-3-9-7-16-10z m53 122l-2 2c-1 2-2 3-3 4l0 0c-1 1-3 3-4 4-1 1-2 2-3 3l-1 1c-1 1-2 2-3 3-1 0-2 1-3 2l-3 2c0 0 0 0 0 0-2 3-2 6 0 8l267 251c2 2 6 2 8 0l8-8c2-2 2-6 0-8l-251-267c0 0-1 0-1-1-2-1-6-1-7 1z"/>
<glyph glyph-name="bubble" unicode="&#72;" d="M512 145l0 314c0 7-1 14-4 20-3 6-7 12-11 17l-1 0c-5 5-10 9-17 12-6 3-13 4-20 4l-406 0c-7 0-14-1-20-4-7-3-12-7-17-12l-1 0c-5-5-8-11-11-17-3-6-4-13-4-20l0-315c0-7 1-14 4-20 3-7 7-12 11-17l1-1c5-4 10-8 17-11 6-3 13-4 20-4l17 0c3 0 6-2 6-5l0-60c0-4 0-7 2-10 1-3 3-6 5-9 3-2 5-4 9-5 3-1 6-2 9-2 2 0 4 0 6 1 1 0 3 1 5 1 2 1 3 2 5 3 1 1 2 3 4 4l71 80c1 1 3 2 4 2l263 0c7 0 14 1 20 4 7 3 12 7 17 11l0 1c5 4 9 10 12 17 2 6 4 12 4 19 0 1 0 1 0 2z m-331-15c-2-1-3-1-4-2-1 0-3-1-4-2-1 0-2-1-3-2l0-1-46-50c-1-1-2-2-4-2-3 0-5 3-5 5l0 35c0 2-1 5-2 7-1 2-2 5-4 6 0 0 0 1 0 1-2 2-4 3-6 4-3 1-5 1-8 1l-42 0c-2 0-3 1-5 1-2 1-3 2-5 3l0 1c-1 1-2 2-3 4 0 2-1 3-1 5l0 315c0 2 1 3 1 5 1 2 2 3 3 5 1 0 1 0 1 0 1 1 2 2 4 3 2 0 3 1 5 1l406 0c3 0 7-2 9-4l1 0c1-2 2-3 3-5 0-2 1-3 1-5l0-315c0-2-1-4-1-5-1-2-2-3-3-5l-1 0c-1-1-2-2-4-3-2 0-3-1-5-1l-274 0c-2 0-3 0-4 0z"/>
<glyph glyph-name="bubble-check" unicode="&#73;" d="M512 144l0 315c0 7-1 14-4 20-3 6-7 12-11 17l-1 0c-5 5-10 9-17 12-6 3-13 4-20 4l-406 0c-7 0-14-1-20-4-7-3-12-7-17-12l-1 0c-5-5-8-11-11-17-3-6-4-13-4-20l0-315c0-7 1-14 4-20 3-7 7-12 12-17l0-1c5-4 10-8 17-11 6-3 13-4 20-4l17 0c3 0 6-2 6-5l0-60c0-4 0-7 2-10 1-3 3-6 5-8 3-3 5-5 9-6 2-1 6-2 9-2 2 0 4 0 6 1 1 0 3 1 5 1 2 1 3 2 5 3 1 1 2 3 4 4l71 80c1 1 3 2 4 2l263 0c7 0 14 1 20 4 7 3 12 7 17 11l0 1c5 4 9 10 12 17 2 6 4 13 4 20 0 0 0 0 0 0z m-297 69c3-1 5-1 8-1 1 0 2 0 4 0 1 0 2 1 3 1 2 1 3 1 4 2 1 1 2 1 3 2l135 136c2 2 3 4 4 6 1 2 2 5 2 8 0 2-1 5-2 7-1 3-2 5-4 7-2 2-4 3-7 4-2 1-5 1-7 1-3 0-5 0-8-1-2-1-4-2-6-4l-118-118c-2-2-5-2-7 0l-51 51c-2 2-4 4-6 5-3 0-5 1-8 1-2 0-5-1-7-1-3-1-5-3-7-5-2-2-3-4-4-6-1-3-2-5-2-8 0-2 1-5 2-7 1-3 2-5 4-7l69-68c2-2 4-4 6-5z m-34-83c-2-1-3-1-4-2-2 0-3-1-4-2-1 0-2-1-3-2l0-1-46-50c-1-1-2-2-4-2-3 0-5 3-5 5l0 35c0 2-1 5-2 7-1 2-2 5-4 6 0 0 0 1 0 1-2 2-4 3-6 4-3 1-5 1-8 1l-42 0c-2 0-3 1-5 1-2 1-3 2-5 3l0 1c-1 1-2 2-3 4 0 1-1 3-1 5l0 315c0 2 1 3 1 5 1 2 2 3 3 5 1 0 1 0 1 0 1 1 2 2 4 3 2 0 3 1 5 1l406 0c3 0 7-2 9-4l1 0c1-2 2-3 3-5 0-2 1-3 1-5l0-315c0-2-1-4-1-5-1-2-2-3-3-5l-1 0c-1-1-2-2-4-3-2 0-3-1-5-1l-274 0c-2 0-3 0-4 0z"/>
<glyph glyph-name="bubble-dots" unicode="&#74;" d="M403 330c-7 7-18 12-29 12-11 0-21-5-29-12l0 0c-7-8-12-18-12-29 0-11 5-22 12-29 8-7 18-12 29-12 11 0 22 5 29 12 7 7 12 18 12 29 0 11-5 21-12 29z m-118 0c-7 7-18 12-29 12-11 0-21-5-29-12l0 0c-7-8-12-18-12-29 0-11 5-22 12-29 7-7 18-12 29-12 11 0 22 5 29 12 7 7 12 18 12 29 0 11-5 21-12 29z m-118 0c-8 7-18 12-29 12-11 0-22-5-29-12-7-8-12-18-12-29 0-11 5-22 12-29l0 0c7-7 18-12 29-12 11 0 21 5 29 12l0 0c7 7 12 18 12 29 0 11-5 21-12 29z m345-186l0 315c0 7-1 14-4 20-3 6-7 12-11 17l-1 0c-5 5-10 9-17 12-6 3-13 4-20 4l-406 0c-7 0-14-1-20-4-7-3-12-7-17-12l-1 0c-5-5-8-11-11-17-3-6-4-13-4-20l0-315c0-7 1-14 4-20 3-7 7-13 12-17l0-1c5-4 10-8 17-11 6-3 13-4 20-4l17 0c3 0 6-2 6-5l0-60c0-4 0-7 2-10 1-3 3-6 5-9 3-2 5-4 9-5 3-1 6-2 9-2 2 0 4 0 6 1 1 0 3 1 5 1 2 1 3 2 5 3 1 1 2 3 4 4l71 80c1 1 3 2 4 2l263 0c7 0 14 1 20 4 7 3 12 7 17 11l0 1c5 4 9 10 12 17 2 6 4 13 4 20 0 0 0 0 0 0z m-331-14c-2-1-3-1-4-2-1 0-3-1-4-2-1 0-2-1-3-2l0-1-46-50c-1-1-2-2-4-2-3 0-5 2-5 5l0 35c0 2-1 5-2 7-1 2-2 4-4 6 0 0 0 1 0 1-2 2-4 3-6 4-3 1-5 1-8 1l-42 0c-2 0-3 1-5 1-2 1-3 2-5 3l0 1c-1 1-2 2-3 4 0 1-1 3-1 5l0 315c0 2 1 3 1 5 1 2 2 3 3 5 1 0 1 0 1 0 1 1 2 2 4 3 1 0 3 1 5 1l406 0c3 0 7-2 9-4l1 0c1-2 2-3 3-5 0-2 1-3 1-5l0-315c0-2-1-4-1-5-1-2-2-4-3-5l-1 0c-1-1-2-2-4-3-1 0-3-1-5-1l-274 0c-2 0-3 0-4 0z"/>
<glyph glyph-name="bubbles" unicode="&#75;" d="M399 220l0 239c0 7-1 14-4 20-3 7-7 12-11 17l-1 0c-5 5-10 9-17 12-6 3-13 4-20 4l-293 0c-7 0-14-1-20-4-7-3-12-7-17-12l-1 0c-5-5-8-11-11-17-3-6-4-13-4-20l0-240c0-7 1-14 4-20 3-6 7-12 12-17l0 0c5-5 10-9 17-12 6-2 13-4 20-4l17 0c3 0 6-2 6-5l0-60c0-4 0-7 2-10 1-3 3-6 5-8 3-3 5-4 9-6 3-1 6-2 9-2 2 0 4 0 6 1 1 0 3 1 5 2 2 0 3 1 5 2 1 2 2 3 4 4l71 80c1 1 3 2 4 2l150 0c7 0 14 2 20 4 7 3 13 7 17 12l0 0c5 5 9 11 12 17 2 6 4 13 4 20 0 0 0 0 0 1z m-4-215c2-1 3-2 5-3 2 0 4-1 5-1 2-1 4-1 6-1 0 0 1 0 2 0 1 0 1 0 2 0l0 0c1 1 2 1 3 1 0 0 1 0 2 1l0 0c2 1 5 2 7 3 1 2 3 4 5 6l0 1c1 2 2 4 3 6l0 0c1 2 1 5 1 8l0 60c0 3 3 5 6 5l17 0c7 0 14 1 20 4 7 3 12 7 17 12l1 0c5 5 8 11 11 17 3 6 4 13 4 20l0 240c0 7-1 14-4 20-3 6-7 12-12 17-5 5-10 9-17 12-6 2-13 4-20 4-3 0-5-1-8-2-2-1-4-2-6-4-2-2-3-4-4-6-1-3-2-5-2-8 0-2 1-5 2-7 1-3 2-5 4-7l0 0c2-2 4-3 6-4 3-1 5-2 8-2 2 0 3 0 5-1 2 0 3-1 5-3l0 0c1-1 2-2 3-4 0-2 1-3 1-5l0-240c0-2-1-3-1-5-1-2-2-3-3-5-2-1-3-2-5-3-2 0-3-1-5-1l-42 0c-3 0-6 0-8-1-2-1-4-3-6-4-2-2-3-4-4-7-1-2-2-5-2-7l0-35c0-1-1-2-2-3-2-2-5-2-7 0l-46 50c-1 2-2 2-3 3-1 1-2 2-4 2-1 1-2 1-4 2l0 0c-1 0-3 0-4 0l-120 0c-2 0-5 0-7-1-3-1-5-3-7-4 0-1 0-1 0-1-2-2-3-4-4-6-1-2-2-5-2-7 0-3 1-6 2-8l0 0c1-2 2-4 4-6l0 0c2-2 4-4 7-5 2-1 4-1 7-1l109 0 0 0c1 0 3-1 4-2l71-80 0 0c2-2 3-3 4-4z m-214 200c-2 0-3-1-4-1-1-1-3-2-4-2-1-1-2-2-3-3l0 0-46-51c-1-1-2-2-4-2-3 0-5 3-5 6l0 34c0 3-1 5-2 7-1 3-2 5-4 7 0 0 0 0 0 0-2 2-4 3-6 4-3 1-5 2-8 2l-42 0c-2 0-3 0-5 1-2 0-3 1-4 2l-1 1 0 0c-1 1-2 3-3 4 0 2-1 4-1 5l0 240c0 2 1 3 1 5 1 2 2 3 3 5 1 0 1 0 1 0 1 1 2 2 4 3 2 0 3 1 5 1l293 0c2 0 4-1 5-1 2-1 3-2 4-3l1 0c1-2 2-3 3-5 0-2 1-3 1-5l0-240c0-1-1-3-1-5-1-1-2-3-3-4l0 0-1-1c-1-1-2-2-4-2-1-1-3-1-5-1l-161 0c-1 0-3-1-4-1z"/>
<glyph glyph-name="building" unicode="&#76;" d="M493 327l-70 0c-3 0-6 2-6 5l0 83c0 2 0 5-1 7-1 3-2 5-4 6l0 1c-2 1-4 3-7 4-2 1-4 1-7 1l-117 0c-3 0-6 3-6 5l0 54c0 2 0 5-1 7-1 2-2 4-4 6l0 0c-2 2-4 4-7 5-2 0-4 1-7 1-3 0-5-1-7-1-3-1-5-3-7-5-1-1-3-4-4-6-1-2-1-5-1-7l0-54c0-2-3-5-6-5l-117 0c-3 0-5 0-7-1-3-1-5-3-7-4-1-2-3-4-4-7-1-2-1-5-1-7l0-83c0-3-3-5-6-5l-70 0c-2 0-5-1-7-2-2-1-4-2-6-4-2-2-4-4-5-6 0-2-1-5-1-7l0-289c0-2 1-5 1-7l0 0c1-2 3-5 5-6 1-2 4-4 6-5 2 0 5-1 7-1l474 0c2 0 5 1 7 1 2 1 5 3 6 5l0 0c2 1 4 4 5 6 0 2 1 5 1 7l0 289c0 2-1 5-1 7-1 2-3 4-4 6l-1 0c-1 2-4 3-6 4-2 1-5 2-7 2z m-263-10c1 3 2 5 2 9 0 3-1 6-2 8-1 3-3 6-5 8 0 0 0 0 0 0-2 2-5 4-7 5l0 0c-3 1-6 2-9 2-3 0-6-1-9-2-3-1-5-3-8-5-2-2-3-5-5-8-1-2-1-5-1-8 0-4 0-6 1-9 2-3 3-6 5-8 3-2 5-3 8-5l0 0c3-1 6-2 9-2 3 0 6 1 9 2 3 1 5 3 7 5 2 2 4 5 5 8z m95 0c1 3 1 5 1 9 0 3 0 6-1 8-2 3-3 6-5 8 0 0-1 0-1 0-2 2-4 4-7 5l0 0c-3 1-6 2-9 2-3 0-6-1-9-2-2-1-5-3-7-5-2-2-4-5-5-8-1-2-2-5-2-8 0-4 1-6 2-9 1-3 3-6 5-8 2-2 4-3 7-5l0 0c3-1 6-2 9-2 3 0 6 1 9 2 3 1 5 3 8 5 2 2 3 5 5 8z m-95-87c1 2 2 5 2 9 0 3-1 6-2 8-1 3-3 6-5 8 0 0 0 0 0 0-2 2-5 4-7 5l0 0c-3 1-6 2-9 2-3 0-6-1-9-2-3-1-5-3-8-5-2-2-3-5-5-8-1-2-1-5-1-8 0-4 0-7 1-9 2-3 3-6 5-8 3-2 5-4 8-5l0 0c3-1 6-2 9-2 3 0 6 1 9 2 3 1 5 3 7 5 2 2 4 5 5 8z m95 0c1 2 1 5 1 9 0 3 0 6-1 8-2 3-3 6-5 8 0 0-1 0-1 0-2 2-4 4-7 5l0 0c-3 1-6 2-9 2-3 0-6-1-9-2-2-1-5-3-7-5-2-2-4-5-5-8-1-2-2-5-2-8 0-4 1-7 2-9 1-3 3-6 5-8 2-2 4-4 7-5l0 0c3-1 6-2 9-2 3 0 6 1 9 2 3 1 5 3 8 5 2 2 3 5 5 8z m-95-87c1 2 2 5 2 8 0 4-1 7-2 9-1 3-3 5-5 8 0 0 0 0 0 0-2 2-5 4-7 5l0 0c-3 1-6 2-9 2-3 0-6-1-9-2-3-1-5-3-8-5-2-2-3-5-5-8-1-2-1-5-1-9 0-3 0-6 1-8 2-3 3-6 5-8 3-2 5-4 8-5l0 0c3-1 6-2 9-2 3 0 6 1 9 2 3 1 5 3 7 5 2 2 4 5 5 8z m95 0c1 2 1 5 1 8 0 4 0 7-1 9-2 3-3 5-5 8 0 0-1 0-1 0-2 2-4 4-7 5l0 0c-3 1-6 2-9 2-3 0-6-1-9-2-2-1-5-3-7-5-2-2-4-5-5-8-1-2-2-5-2-9 0-3 1-6 2-8 1-3 3-6 5-8 2-2 4-4 7-5l0 0c3-1 6-2 9-2 3 0 6 1 9 2 3 1 5 3 8 5 2 2 3 5 5 8z m-186 252l234 0c3 0 6-2 6-5l0-346c0-3-3-5-6-5l-234 0c-3 0-6 2-6 5l0 346c0 3 3 5 6 5z m-95-107l45 0c3 0 6-2 6-5l0-239c0-3-3-5-6-5l-45 0c-3 0-5 2-5 5l0 239c0 3 2 5 5 5z m424-249l-45 0c-3 0-6 2-6 5l0 239c0 3 3 5 6 5l45 0c3 0 5-2 5-5l0-239c0-3-2-5-5-5z"/>
<glyph glyph-name="bulb" unicode="&#77;" d="M355 479c-9 7-19 13-30 18-11 5-22 9-34 11-11 3-23 4-35 4-12 0-24-1-35-4-12-2-23-6-34-11-11-5-21-11-30-18-10-7-19-15-26-24l-1 0c-6-7-12-15-17-24-5-9-10-18-13-27-4-9-6-19-8-29-2-10-3-20-3-30 0-11 1-21 3-31 2-10 5-19 8-29 4-9 8-18 13-27 5-8 11-16 18-24l0 0c1-1 2-2 3-3 1-2 2-3 4-4l0 0c1-1 2-2 3-3 1-1 3-2 4-4l0 0c4-4 8-8 11-11 3-4 6-8 8-12 2-4 3-8 4-13 1-4 2-9 2-13 0-3 0-7 0-10 0-2 0-5 1-7 1-3 2-5 4-7 2-1 4-3 6-4 3-1 5-1 8-1l0 0c3 0 5 0 7 1 3 1 5 2 7 4 2 2 3 4 4 6 1 3 2 5 2 8l0 9c0 8-1 15-3 23-1 7-3 13-6 20-4 6-7 12-12 18-5 6-10 12-17 18l0 0-3 3-2 2-3 3-3 3c-10 12-18 25-24 39-5 15-8 30-8 46 0 15 3 30 8 45 6 14 13 27 24 39 6 7 13 13 20 19 7 5 15 10 23 13 9 4 17 7 26 9 9 2 18 3 27 3 9 0 18-1 27-3 9-2 18-5 26-9 8-3 16-8 23-13 8-6 14-12 20-19 11-12 19-25 24-39 5-14 8-30 8-45 0-16-3-31-8-45-5-14-13-28-24-40l0 0c-1-2-3-3-5-5-2-2-4-4-5-5l-1-1c-6-5-12-11-16-17-5-6-9-12-12-19-3-6-5-13-7-20-1-7-2-14-2-22 0-3 0-7 0-10 0-3 0-5 1-7 1-3 3-5 4-7 2-2 4-3 7-4 2-1 4-2 7-2l0 0c3 0 6 1 8 2 2 1 4 2 6 4l0 0c2 2 3 4 4 6 1 2 2 5 2 8l0 11c0 5 1 9 1 13 1 4 3 8 5 12 2 4 4 8 7 12 3 4 7 7 11 11l0 0c1 1 3 3 4 4 1 1 3 2 4 3 1 1 2 3 3 4 1 1 2 2 3 4l1 0c6 7 12 15 17 24 5 8 10 17 13 27 4 9 6 19 8 29 2 10 3 20 3 30 0 10-1 20-3 30-2 10-4 20-8 29-3 9-8 18-13 27-5 9-11 17-17 24-8 9-17 17-27 24z m-63-440l-72 0c-3 0-5 0-8-1-2-1-4-3-6-5l0 0c-2-1-3-4-4-6-1-2-2-5-2-7 0-3 1-6 2-8 1-2 2-4 4-6l0 0c2-2 4-3 6-5 3 0 5-1 8-1l72 0c3 0 5 1 8 1 2 2 4 3 6 5l0 0c2 2 3 4 4 6 1 2 2 5 2 8 0 2-1 5-2 7-1 2-2 5-4 6-2 2-4 4-6 5-3 1-5 1-8 1z m31 71l-134 0c-3 0-5-1-8-2-2-1-4-2-6-4-2-2-3-4-4-6-1-3-2-5-2-8 0-2 1-5 2-7 1-3 2-5 4-6l0-1c2-2 4-3 6-4 3-1 5-1 8-1l134 0c3 0 5 0 8 1 2 1 4 3 6 4 2 2 3 4 4 7 1 2 2 4 2 7 0 3-1 5-2 8-1 2-2 4-4 6-2 2-4 3-6 4-3 1-5 2-8 2z"/>
<glyph glyph-name="calculations" unicode="&#78;" d="M238 500c-1-3-2-5-2-8l0-211c0-3-2-5-5-5l-211 0c-3 0-5-1-8-2l0 0c-2-1-4-2-6-4l0 0c-2-2-4-4-5-6 0-3-1-5-1-8 0-5 2-10 6-14 2-2 4-3 6-4 3-1 5-2 8-2l211 0c3 0 5-2 5-5l0-211c0-3 1-5 2-8 1-2 2-4 4-6l0 0c2-2 4-3 6-5 3 0 5-1 8-1 5 0 10 2 14 6 2 2 3 4 4 6 1 3 2 5 2 8l0 211c0 3 2 5 5 5l211 0c3 0 5 1 8 2 2 1 4 2 6 4l0 0c2 2 3 4 5 6 0 3 1 5 1 8 0 5-2 10-6 14-2 2-4 3-6 4-3 1-5 2-8 2l-211 0c-3 0-5 2-5 5l0 211c0 3-1 5-2 8l0 0c-1 2-2 4-4 6l0 0c-2 2-4 4-6 5-3 0-5 1-8 1-5 0-10-2-14-6-2-2-3-4-4-6z m-211-499c3 1 5 3 7 5l41 41c2 2 6 2 8 0l41-41c2-2 4-4 7-5 2-1 5-1 7-1 3 0 5 0 8 1 2 1 4 3 6 5 2 2 3 4 4 6 1 3 2 5 2 8 0 2-1 5-2 7-1 3-2 5-4 7l-41 41c-2 2-2 6 0 8l41 41c2 2 4 4 4 6l1 1c1 2 1 5 1 7 0 3 0 5-1 8-1 2-3 4-5 6-2 2-4 4-6 5-3 1-5 1-8 1-2 0-5 0-7-1-3-1-5-3-7-5l-41-41c-2-2-6-2-8 0l-41 41c-2 2-4 4-6 5-3 1-5 1-8 1-3 0-5 0-8-1-2-1-4-3-6-5-2-2-3-4-4-6-1-3-2-5-2-8 0-2 1-5 2-7 1-3 2-5 4-7l41-41c2-2 2-6 0-8l-41-41c-2-2-4-4-5-7-1-2-1-5-1-7 0-3 0-5 1-8 1-2 3-4 5-6 2-2 4-4 6-5 3-1 5-1 8-1 2 0 5 0 7 1z m328 109c3-1 5-2 8-2l129 0c3 0 5 1 8 2 2 1 4 2 6 4l0 0c2 2 3 4 5 6 0 3 1 5 1 8 0 5-2 10-6 14-2 2-4 3-6 4-3 1-5 2-8 2l-129 0c-3 0-5-1-7-2l-1 0c-2-1-4-2-6-4l0 0c-2-2-3-4-4-6-1-3-2-5-2-8 0-5 2-10 6-14 2-2 4-3 6-4z m0-98c3-1 5-2 8-2l129 0c3 0 5 1 8 2 2 1 4 2 6 4l0 0c2 2 3 4 5 6 0 3 1 5 1 8 0 6-2 10-6 14-2 2-4 3-6 4-3 1-5 2-8 2l-129 0c-3 0-5-1-7-2l-1 0c-2-1-4-2-6-4l0 0c-2-2-3-4-4-6-1-3-2-5-2-8 0-5 2-10 6-14 2-2 4-3 6-4z m0 397c3-1 5-1 8-1l129 0c3 0 5 0 8 1 2 1 4 3 6 4l0 1c2 1 3 4 5 6 0 2 1 5 1 8 0 5-2 10-6 14-2 1-4 3-6 4-3 1-5 1-8 1l-129 0c-3 0-5 0-7-1l-1 0c-2-1-4-2-6-4l0 0c-2-2-3-4-4-7-1-2-2-5-2-7 0-6 2-11 6-14 2-2 4-4 6-5z m-278-64c2-1 5-2 7-2 3 0 6 1 8 2 2 1 4 2 6 4l0 0c2 2 4 4 5 6 1 3 1 5 1 8l0 40c0 2 3 5 5 5l40 0c3 0 5 0 8 1 2 1 4 3 6 4l0 1c2 1 3 4 4 6 1 2 2 5 2 8 0 2-1 5-1 7l-1 0c-1 3-2 5-4 7-2 1-4 3-6 4-3 1-5 1-8 1l-40 0c-2 0-5 3-5 6l0 39c0 3 0 5-1 8-1 2-3 4-4 6l-1 0c-1 2-4 3-6 5-2 0-5 1-8 1-2 0-5 0-7-1l0 0c-3-1-5-3-7-5-1-2-3-4-4-6-1-3-1-5-1-8l0-39c0-3-3-6-6-6l-39 0c-3 0-5 0-8-1-2-1-4-3-6-4-2-2-4-4-5-7 0-2-1-5-1-7 0-3 0-6 1-8l0 0c1-2 3-5 5-6 2-2 4-4 6-5 3-1 5-1 8-1l39 0c3 0 6-3 6-5l0-40c0-3 0-5 1-8 1-2 3-4 4-6 2-2 4-3 7-4z"/>
<glyph glyph-name="calendar" unicode="&#79;" d="M506 423c-4 9-10 18-17 26-8 7-17 13-26 17-10 4-20 6-31 6l-21 0c-3 0-5 2-5 5l0 15c0 3-1 5-2 8-1 2-2 4-4 6l0 0c-2 2-4 3-6 4-3 1-5 2-8 2-3 0-5-1-8-2-2 0-4-2-6-4l0 0c-2-2-3-4-4-6-1-3-2-5-2-8l0-15c0-3-2-5-5-5l-81 0c-3 0-5 2-5 5l0 15c0 3-1 5-2 8-1 2-2 4-4 6l0 0c-2 2-4 3-6 4-3 1-5 2-8 2-3 0-5-1-8-2-2 0-4-2-6-4l0 0c-2-2-3-4-4-6-1-3-2-5-2-8l0-15c0-3-2-5-5-5l-80 0c-3 0-5 2-5 5l0 15c0 3-1 5-2 8-1 2-2 4-4 6l0 0c-2 2-4 3-6 4-3 1-5 2-8 2-3 0-5-1-8-2-2 0-4-2-6-4l0 0c-2-2-3-4-4-6-1-3-2-5-2-8l0-15c0-3-2-5-5-5l-20 0c-11 0-21-2-31-6-9-4-18-10-26-17-7-8-13-17-17-26-4-10-6-20-6-31l0-312c0-11 2-21 6-31 4-9 10-18 17-26 8-7 17-13 26-17 10-4 20-6 31-6l352 0c11 0 21 2 31 6 9 4 18 10 26 17 7 8 13 17 17 26 4 10 6 20 6 31l0 312c0 11-2 21-6 31z m-37-358c-2-5-5-10-9-13-3-4-8-7-13-9-4-2-10-3-15-3l-352 0c-5 0-11 1-15 3-5 2-10 5-13 9-4 3-7 8-9 13-2 4-3 10-3 15l0 312c0 5 1 11 3 15 2 5 5 9 8 13l1 0c3 4 8 7 13 9 4 2 10 3 15 3l20 0c3 0 5-2 5-5l0-15c0-3 1-5 2-8 0-2 2-4 4-6 2-2 4-3 6-4 3-1 5-2 8-2 3 0 5 1 7 2l1 0c2 1 4 2 6 4 2 2 3 4 4 6l0 0c1 3 2 5 2 8l0 15c0 3 2 5 5 5l80 0c3 0 5-2 5-5l0-15c0-3 1-5 1-7l1 0c1-3 2-5 4-7 2-2 4-3 6-4 3-1 5-2 8-2 3 0 5 1 7 2l1 0c2 1 4 2 6 4 2 2 3 4 4 6 1 3 2 5 2 8l0 15c0 3 2 5 5 5l81 0c3 0 5-2 5-5l0-15c0-3 1-5 1-7l1 0c1-3 2-5 4-7 2-2 4-3 6-4 3-1 5-2 8-2 3 0 5 1 7 2l1 0c2 1 4 2 6 4 2 2 3 4 4 6 1 3 2 5 2 8l0 15c0 3 2 5 5 5l21 0c5 0 11-1 15-3 5-2 10-5 13-9 4-3 7-8 9-13 2-4 3-10 3-15l0-312c0-5-1-11-3-15z m-178 81c-2-1-4-2-6-4-2-2-3-4-4-6-1-3-2-5-2-8 0-3 1-5 2-8 1-2 2-4 4-6l0 0c2-2 4-3 6-4 3-1 5-2 8-2 3 0 5 1 7 1l1 1c2 0 4 2 6 4 2 2 3 4 4 6 1 3 2 5 2 8 0 3-1 5-2 8-1 2-2 4-4 6-2 2-4 3-6 4-3 1-5 2-8 2-3 0-5-1-8-2z m87 87c-2-1-4-2-6-4-2-2-3-4-4-6-1-3-2-5-2-8 0-3 1-5 2-8 1-2 2-4 4-6l0 0c2-2 4-3 6-4 3-1 5-2 8-2 3 0 5 1 7 2l1 0c2 1 4 2 6 4 2 2 3 4 4 6 1 3 2 5 2 8 0 3-1 5-2 8-1 2-2 4-4 6l0 0c-2 2-4 3-6 4-3 1-5 2-8 2-3 0-5-1-7-1z m-61-10c-1 2-2 4-4 6l0 0c-2 2-4 3-6 4-3 1-5 2-8 2-3 0-5-1-7-1l-1-1c-2-1-4-2-6-4l0 0c-2-2-3-4-4-6-1-3-2-5-2-8 0-3 1-5 2-8 1-2 2-4 4-6l0 0c2-2 4-3 6-4 3-1 5-2 8-2 3 0 5 1 7 2l1 0c2 1 4 2 6 4 2 2 3 4 4 6 1 3 2 5 2 8 0 3-1 5-2 8z m-113-77c-2-1-4-2-6-4-2-2-3-4-4-6-1-3-2-5-2-8 0-3 1-5 2-8 1-2 2-4 4-6l0 0c2-2 4-3 6-4 3-1 5-2 8-2 3 0 5 1 7 1l1 1c2 0 4 2 6 4 2 2 3 4 4 6l0 0c1 3 2 5 2 8 0 3-1 5-2 8-1 2-2 4-4 6-2 2-4 3-6 4l0 0c-3 1-5 2-8 2-3 0-5-1-8-2z m26 77c-1 2-2 4-4 6l0 0c-2 2-4 3-6 4-3 1-5 2-8 2-3 0-5-1-7-1l-1-1c-2-1-4-2-6-4l0 0c-2-2-3-4-4-6-1-3-2-5-2-8 0-3 1-5 2-8 1-2 2-4 4-6l0 0c2-2 4-3 6-4 3-1 5-2 8-2 3 0 5 1 7 2l1 0c2 1 4 2 6 4 2 2 3 4 4 6l0 0c1 3 2 5 2 8 0 3-1 5-2 8z m0 87c-1 2-2 4-4 6l0 0c-2 2-4 3-6 4-3 1-5 2-8 2-3 0-5-1-7-2l-1 0c-2-1-4-2-6-4l0 0c-2-2-3-4-4-6-1-3-2-5-2-8 0-3 1-5 2-8 1-2 2-4 4-6l0 0c2-2 4-3 6-4 3-1 5-2 8-2 3 0 5 1 8 2 2 1 4 2 6 4l0 0c2 2 3 4 4 6l0 0c1 3 2 5 2 8 0 3-1 5-2 8z m-113-164c-2-1-4-2-6-4-2-2-4-4-4-6-1-3-2-5-2-8 0-3 1-5 2-8 0-2 2-4 4-6l0 0c2-2 4-3 6-4 3-1 5-2 8-2 3 0 5 1 7 1l1 1c2 0 4 2 6 4 2 2 3 4 4 6l0 0c1 3 2 5 2 8 0 3-1 5-2 8-1 2-2 4-4 6l0 0c-2 2-4 3-6 4l0 0c-3 1-5 2-8 2-3 0-5-1-7-2z m26 77c-1 2-2 4-4 6l0 0c-2 2-4 3-6 4-3 1-5 2-8 2-6 0-11-2-14-6-2-2-4-4-4-6-1-3-2-5-2-8 0-3 1-5 2-8 0-2 2-4 4-6 2-2 4-3 6-4 3-1 5-2 8-2 3 0 5 1 7 2l1 0c2 1 4 2 6 4 2 2 3 4 4 6l0 0c1 3 2 5 2 8 0 3-1 5-2 8z m261 87c-1 2-2 4-4 6l0 0c-2 2-4 3-6 4-3 1-5 2-8 2-3 0-5-1-7-2l-1 0c-2-1-4-2-6-4-2-2-3-4-4-6-1-3-2-5-2-8 0-3 1-5 2-8 1-2 2-4 4-6l0 0c2-2 4-3 6-4 3-1 5-2 8-2 3 0 5 1 8 2 2 1 4 2 6 4l0 0c2 2 3 4 4 6 1 3 2 5 2 8 0 3-1 5-2 8z m-87 0c-1 2-2 4-4 6l0 0c-2 2-4 3-6 4-3 1-5 2-8 2-3 0-5-1-7-2l-1 0c-2-1-4-2-6-4l0 0c-2-2-3-4-4-6-1-3-2-5-2-8 0-3 1-5 2-8 1-2 2-4 4-6l0 0c2-2 4-3 6-4 3-1 5-2 8-2 3 0 5 1 8 2 2 1 4 2 6 4l0 0c2 2 3 4 4 6 1 3 2 5 2 8 0 3-1 5-2 8z m-174 0c-1 2-2 4-4 6l0 0c-2 2-4 3-6 4-3 1-5 2-8 2-6 0-11-2-14-6-2-2-4-4-4-6-1-3-2-5-2-8 0-3 1-5 2-8 0-2 2-4 4-6l0 0c2-2 4-3 6-4 3-1 5-2 8-2 3 0 5 1 8 2 2 1 4 2 6 4l0 0c2 2 3 4 4 6l0 0c1 3 2 5 2 8 0 3-1 5-2 8z"/>
<glyph glyph-name="cctv" unicode="&#80;" d="M466 277l-15-47c-1-3-4-4-6-4l-54 17c-1 0-2 1-2 2-2 2-2 5 0 7l41 39c1 1 3 2 5 1l27-8c3-1 5-4 4-7z m-428-265c1 3 2 5 2 8l0 36c0 3 2 5 5 5l133 0c2 0 4 0 6 1 2 1 4 2 6 3 1 1 3 3 4 5 1 2 2 4 3 6l14 51c1 2 4 4 7 3l23-7 1 0 2-1c1 0 2 0 3 0 0 0 1 0 2 0 1 0 2 0 2 1 1 0 2 0 3 0 0 1 1 1 2 1 1 1 2 2 3 2 1 1 2 2 3 3 1 1 1 2 2 3 1 2 1 3 1 4 4 11 14 53 19 61 1 3 4 5 6 4l23-7 1-1 1 0c1 0 2 0 3 0 2 0 3 0 4 0 1 0 3 1 4 1 1 1 2 1 3 2 1 1 2 1 3 2l15 14c1 2 3 2 5 2l105-33c1 0 2 0 4-1l2 0c0 0 1 0 2 0 1 1 2 1 2 1 1 0 2 0 3 1 0 0 1 0 2 1 1 0 2 1 3 2 1 1 2 1 3 2 1 1 1 3 2 4 1 1 1 2 2 3l29 96c1 2 1 5 1 7 0 3-1 5-2 7-2 3-3 5-5 6-2 2-4 3-7 4l-24 8c-1 0-2 0-2 1-2 2-2 5 0 7l23 22c1 1 2 3 3 4l0 0c1 2 2 3 2 5l1 0c0 2 0 3 0 5 0 2 0 3 0 5-1 2-1 3-2 5-1 2-2 3-3 4-1 1-2 3-4 3-1 1-3 2-5 3l-403 125c-3 1-6 1-8 1-3 0-5-1-7-2-3-2-5-3-6-5-2-2-3-4-4-7l-58-187c0-1-1-2-1-3 0-2 0-3 0-4 0-2 0-3 1-4 0-1 1-2 1-3l0-1c1-1 2-2 2-3l0 0c1-1 2-2 3-3 1-1 2-1 3-2 1-1 3-1 4-1l131-41c3-1 4-4 3-7l-18-61c-1-3-1-5-1-8 1-2 1-5 3-7 1-2 2-4 4-6 2-2 5-3 7-4l27-8c2-1 4-4 3-6l-9-34c-1-2-3-4-5-4l-114 0c-3 0-5 2-5 5l0 37c0 3-1 5-2 8-1 2-2 4-4 6l0 0c-2 2-4 3-7 4-2 1-4 2-7 2-6 0-10-2-14-6-2-2-3-4-4-6-1-3-2-5-2-8l0-37c0 0 0-1 0-1l0-24 0-61c0-3 1-5 2-8l0 0c1-2 2-4 4-6l0 0c2-2 4-4 6-4 3-1 5-2 8-2 5 0 10 2 14 6 2 2 3 4 4 6z m272 224l-260 81c-3 1-5 4-4 7l43 138c1 3 4 5 7 4l339-106c1 0 1 0 2-1 2-2 2-5 0-7l-122-115c-1-1-3-2-5-1z m-81-68l-50 16c-3 1-4 3-4 6l11 38c1 2 4 4 7 3l49-15c3-1 5-4 4-7l-11-37c-1-3-4-5-6-4z"/>
<glyph glyph-name="chart" unicode="&#81;" d="M6 6c3-4 8-6 14-6l472 0c3 0 5 1 8 2 2 0 4 2 6 4l0 0c2 2 4 4 4 6 1 3 2 5 2 8 0 5-2 10-6 14-2 2-4 3-6 4-3 1-5 2-8 2l-447 0c-3 0-5 2-5 5l0 447c0 3-1 5-2 8-1 2-2 4-4 6l0 0c-2 2-4 4-7 4-2 1-4 2-7 2-6 0-11-2-14-6-2-2-4-4-4-6-1-3-2-5-2-8l0-472c0-6 2-11 6-14z m433 106c1 3 1 5 1 8l0 333c0 3 0 5-1 8-1 2-3 4-4 6l-1 0c-1 2-4 3-6 4-2 1-5 2-8 2-2 0-5-1-7-2-3-1-5-2-7-4-1-2-3-4-4-6-1-3-1-5-1-8l0-333c0-3 0-5 1-7l0-1c1-2 2-4 4-6l0 0c2-2 4-3 7-4 2-1 5-2 7-2 6 0 11 2 14 6 2 2 4 4 5 6z m-100 0c1 3 1 5 1 8l0 250c0 3 0 6-1 8-1 2-3 4-4 6l-1 0c-2 2-4 4-6 5-2 1-5 1-8 1-5 0-10-2-14-6-2-2-3-4-4-6-1-2-2-5-2-8l0-250c0-3 1-5 2-7l0-1c1-2 2-4 4-6l0 0c2-2 4-3 7-4 2-1 5-2 7-2 3 0 5 1 8 2l0 0c2 1 5 2 6 4 2 2 4 4 5 6z m-101 0c1 3 2 5 2 8l0 128c0 3-1 6-2 8-1 2-2 5-4 6-2 2-4 4-6 5l0 0c-3 1-5 1-8 1-3 0-5 0-7-1-3-1-5-3-7-5l0 0c-2-1-3-4-4-6-1-2-2-5-2-8l0-128c0-3 1-5 2-7l0-1c1-2 2-4 4-6l0 0c2-2 4-3 7-4 2-1 4-2 7-2 3 0 5 1 7 2l1 0c2 1 4 2 6 4 2 2 3 4 4 6z m-100 0c1 3 2 5 2 8l0 181c0 3-1 5-2 8-1 2-2 4-4 6l0 0c-2 2-4 3-6 4-3 1-5 2-8 2-6 0-10-2-14-6-2-2-3-4-4-6-1-3-2-5-2-8l0-181c0-3 1-5 2-7l0-1c1-2 2-4 4-6l0 0c2-2 4-3 6-4 3-1 5-2 8-2 3 0 5 1 7 2l1 0c2 1 4 2 6 4 2 2 3 4 4 6z"/>
<glyph glyph-name="chart-down" unicode="&#82;" d="M6 6c3-4 8-6 14-6l472 0c3 0 5 1 8 2 2 0 4 2 6 4l0 0c2 2 4 4 4 6 1 3 2 5 2 8 0 5-2 10-6 14-2 2-4 3-6 4-3 1-5 2-8 2l-447 0c-3 0-5 2-5 5l0 447c0 3-1 5-2 8-1 2-2 4-4 6l0 0c-2 2-4 3-7 4-2 1-5 2-7 2-6 0-11-2-14-6-2-2-3-4-4-6-1-3-2-5-2-8l0-472c0-6 2-11 6-14z m458 166c-50 49-101 99-150 149-4 4-9 5-14 5-5 0-10-2-14-5l-52-52c-2-2-5-2-7 0l-99 98c-2 1-4 3-6 4-2 1-5 1-8 1-5 0-10-2-14-5-2-2-3-4-4-7-1-2-1-5-1-7 0-3 0-6 1-8 1-2 2-5 4-6l116-116c4-4 9-6 14-6 5 0 10 2 14 6l52 52c2 2 6 2 8 0l132-131c2-2 2-6 0-8-1-1-3-1-4-1l-53 0c-1 0-1 0-1 0-3 0-5-1-8-2-2-1-4-2-6-4-2-2-3-4-4-6-1-3-2-5-2-7l0-1c0-3 1-5 2-7 1-3 2-5 4-7 2-2 4-3 6-4 3-1 5-2 8-2l114 0c2 0 3 1 4 1 1 0 2 0 3 1l1 0c1 1 2 1 3 2l1 0c1 1 1 1 2 2 1 1 2 2 3 3 0 1 1 2 1 4 1 1 1 2 2 3 0 2 0 3 0 4l0 114c0 1 0 3 0 4-1 1-1 2-2 4l0 0c0 1-1 2-1 3-1 1-2 2-3 3-1 1-2 2-3 3-1 0-2 1-3 1-1 1-3 1-4 1l0 0c-1 1-2 1-3 1-1 0-1 0-1 0-3 0-5-1-7-2-3-1-5-2-7-4-2-2-3-4-4-6l0-1c-1-2-2-4-2-7l0-54c0-3-2-5-5-5-1 0-2 1-3 2z"/>
<glyph glyph-name="chart-pie" unicode="&#83;" d="M162 451c21 10 44 17 68 20 0 0 1 0 1 0 3 0 5-2 5-5l0-200c0-1 0-2-1-3l-141-141-1-1c-2-1-5-1-7 1-15 19-26 40-34 63-8 22-12 46-12 71 0 29 5 57 16 83 11 26 27 50 47 70 17 17 37 31 59 42z m303-168l-184 0c-3 0-5 2-5 5l0 178 0 0c0 3 3 5 6 5 24-3 47-10 68-20 22-11 42-25 59-42 16-16 30-35 40-55 10-20 17-42 21-64 0-1 0-1 0-2 0-3-2-5-5-5z m-196-42l1 1c1 1 2 2 4 2l193-1c3 0 5-2 5-5-3-26-9-50-20-73-10-23-25-44-43-62-20-20-44-36-70-47-26-11-54-16-83-16-25 0-48 4-71 12-23 7-44 19-62 34-1 0-1 0-1 0-2 2-2 6 0 8z m-63-236c16-3 33-5 50-5 17 0 34 2 50 5 17 3 33 8 48 14 15 7 30 15 44 24 14 9 27 20 39 32 12 12 23 25 32 39 9 14 17 29 24 44 6 15 11 31 14 48 3 16 5 33 5 50 0 17-2 34-5 50-3 17-8 33-14 48-7 15-15 30-24 44-9 14-20 27-32 39-12 12-25 23-39 32-14 9-29 17-44 24-15 6-31 11-48 14-16 3-33 5-50 5-17 0-34-2-50-5-17-3-33-8-48-14-15-7-30-15-44-24-14-9-27-20-39-32-12-12-23-25-32-39-9-14-17-29-24-44-6-15-11-31-14-48-3-16-5-33-5-50 0-17 2-34 5-50 3-17 8-33 14-48 7-15 15-30 24-44 9-14 20-27 32-39 12-12 25-23 39-32 14-9 29-17 44-24 15-6 31-11 48-14z"/>
<glyph glyph-name="chart-up" unicode="&#84;" d="M6 6c3-4 9-6 14-6l472 0c3 0 5 1 8 1 2 1 4 3 6 5l0 0c2 2 3 4 5 6 0 3 1 5 1 8 0 5-2 10-6 14-2 2-4 3-6 4-3 1-5 2-8 2l-447 0c-3 0-5 2-5 5l0 447c0 3-1 5-2 8-1 2-2 4-4 6l0 0c-2 2-4 4-7 5-2 0-5 1-7 1-6 0-11-2-14-6-2-2-4-4-5-6 0-2-1-5-1-8l0-472c0-6 2-11 6-14z m308 141l150 149c1 1 2 2 3 2 3 0 5-3 5-5l0-54c0-3 1-6 2-8 1-2 2-4 4-6 2-2 4-4 7-5 2-1 4-1 7-1l1 0c1 0 2 0 3 0 1 0 3 1 4 1 1 1 2 2 3 2 1 1 2 2 3 3 1 1 2 2 3 3 0 1 1 2 1 3l1 0c0 1 0 3 1 4 0 1 0 2 0 4l0 114c0 1 0 2 0 4l0 0c-1 1-1 2-1 3l-1 1c0 1-1 2-1 3-1 1-2 2-3 3-1 1-2 2-3 2-1 1-2 2-3 2l-1 0c-1 1-2 1-3 1-1 1-2 1-4 1l-114 0c-6 0-10-2-14-6-2-2-3-4-4-6-1-3-2-5-2-8l0 0c0-3 1-5 2-8 1-2 2-4 4-6 2-2 4-3 6-4 3-1 5-2 7-2 1 0 1 0 2 0l53 0c1 0 3 0 4-1 2-2 2-6 0-8l-132-131c-2-3-6-3-8 0-16 16-35 37-52 52-4 4-9 6-14 6-5 0-10-2-14-6-39-38-77-78-116-116-2-2-3-4-4-7-1-2-1-5-1-7 0-3 0-5 1-8 1-2 2-4 4-6 2-2 4-3 7-4 2-1 5-2 7-2 3 0 6 1 8 2 2 1 4 2 6 4l99 98c2 2 5 2 7 0l52-52c4-4 9-6 14-6 5 0 10 2 14 6z"/>
<glyph glyph-name="check" unicode="&#85;" d="M160 75c2-1 5-1 7-1 2 0 3 0 4 0 2 0 3 1 4 1 1 1 2 1 3 2 1 1 2 2 3 2l325 325c2 2 4 4 5 7 1 2 1 5 1 7 0 3 0 6-1 8-1 2-3 4-5 6-2 2-4 4-6 5-3 1-5 1-8 1-2 0-5 0-7-1-3-1-5-3-7-5l-307-307c-2-2-5-2-7 0l-130 130c-2 2-4 4-7 5-2 1-5 1-7 1-3 0-5 0-8-1-2-1-4-3-6-5-2-2-4-4-4-6-2-3-2-5-2-8 0-2 0-5 2-7 0-3 2-5 4-7l147-147c2-2 5-4 7-5z"/>
<glyph glyph-name="checkbox" unicode="&#86;" d="M65 469c4 2 10 3 15 3l352 0c3 0 5 1 7 2l1 0c2 1 4 2 6 4l0 0c2 2 3 4 4 6l0 0c1 3 2 5 2 8 0 3-1 5-2 8-1 2-2 4-4 6-2 2-4 3-6 4-3 1-5 2-8 2l-352 0c-11 0-21-2-31-6-9-4-18-10-26-17-7-8-13-17-17-26-4-10-6-20-6-31l0-352c0-11 2-21 6-31 4-9 10-18 17-26 8-7 17-13 26-17 10-4 20-6 31-6l352 0c11 0 21 2 31 6 9 4 18 10 26 17 7 8 13 17 17 26 4 10 6 20 6 30-3 57 0 120 0 178 0 2-1 5-1 7l-1 0c-1 3-2 5-4 7-2 2-4 3-6 4-3 1-5 2-8 2-3 0-5-1-7-2l-1 0c-2-1-4-2-6-4-2-2-3-4-4-7-1-2-2-5-2-7l0-177c0-5-1-11-3-15-2-5-5-10-9-13-3-4-8-7-13-9-4-2-10-3-15-3l-352 0c-5 0-11 1-15 3-5 2-10 5-13 9l0 0c-4 3-7 8-9 13-2 4-3 10-3 15l0 352c0 5 1 11 3 15 2 5 5 9 8 13l1 0c3 4 8 7 13 9z m183-323c3-1 5-2 8-2 1 0 3 0 4 1 1 0 2 0 4 1 1 0 2 1 3 1 1 1 2 2 3 3l236 236c2 2 3 4 4 6 1 3 2 5 2 8 0 3-1 5-2 8-1 2-2 4-4 6-2 2-4 3-6 4-3 1-5 2-8 2-3 0-5-1-8-2-2-1-4-2-6-4l-218-218c-2-2-6-2-8 0l-88 88c-2 2-4 4-7 5-2 1-5 1-7 1-3 0-6 0-8-1-2-1-4-3-6-5-2-2-4-4-5-6-1-2-1-5-1-8 0-2 0-5 1-7 1-3 3-5 5-7l106-106c2-2 4-3 6-4z"/>
<glyph glyph-name="clock" unicode="&#87;" d="M173 456c26 11 54 16 83 16 29 0 57-5 83-16 26-11 50-27 70-47 20-20 36-44 47-70 11-26 16-54 16-83 0-29-5-57-16-83-11-26-27-50-47-70-20-20-44-36-70-47-26-11-54-16-83-16-29 0-57 5-83 16-26 11-50 27-70 47-20 20-36 44-47 70-11 26-16 54-16 83 0 29 5 57 16 83 11 26 27 50 47 70 20 20 44 36 70 47z m150-290c1-1 3-1 4-1 1 0 2 0 4 1 1 0 2 0 3 1 2 0 3 1 4 2 1 0 2 1 3 2 2 2 3 4 4 7 1 2 2 5 2 7 0 3-1 5-2 8-1 2-2 4-4 6l-64 64c-1 1-1 2-1 3l0 132c0 2-1 5-2 7-1 3-2 5-4 7-2 2-4 3-6 4-3 1-5 2-8 2-3 0-5-1-8-2-2-1-4-2-6-4-2-2-3-4-4-7l0 0c-1-2-2-5-2-7l0-142c0-1 0-2 1-3l0-1c0-1 0-2 1-4 0-1 1-2 2-3 0-1 1-2 2-3l71-71c1-1 2-2 3-2 1-1 2-2 3-2 1-1 3-1 4-1z m-117-161c16-3 33-5 50-5 17 0 34 2 50 5 17 3 33 8 48 14 15 7 30 15 44 24 14 9 27 20 39 32 12 12 23 25 32 39 9 14 17 29 24 44 6 15 11 31 14 48 3 16 5 33 5 50 0 17-2 34-5 50-3 17-8 33-14 48-7 15-15 30-24 44-9 14-20 27-32 39-12 12-25 23-39 32-14 9-29 17-44 24-15 6-31 11-48 14-16 3-33 5-50 5-17 0-34-2-50-5-17-3-33-8-48-14-15-7-30-15-44-24-14-9-27-20-39-32-12-12-23-25-32-39-9-14-17-29-24-44-6-15-11-31-14-48-3-16-5-33-5-50 0-17 2-34 5-50 3-17 8-33 14-48 7-15 15-30 24-44 9-14 20-27 32-39 12-12 25-23 39-32 14-9 29-17 44-24 15-6 31-11 48-14z"/>
<glyph glyph-name="clone" unicode="&#88;" d="M144 470c3 2 6 2 10 2l291 0c4 0 7 0 10-2 4-1 7-3 9-6 3-2 5-5 6-9 2-3 2-6 2-10l0-291c0-4 0-7-2-10-1-4-3-7-6-9-2-3-5-5-9-6-3-2-6-2-10-2l-291 0c-4 0-7 0-10 2-4 1-7 3-9 5l0 1c-3 2-5 5-6 9-2 3-2 6-2 10l0 291c0 4 0 7 2 10 1 4 3 7 6 9 2 3 5 5 9 6z m-87-87c3 2 6 2 10 2l15 0c3 0 5-2 5-5l0-226c0-9 2-18 5-26 4-8 9-15 15-21 6-6 13-11 21-15 8-3 17-5 26-5l226 0c3 0 5-2 5-5l0-15c0-4 0-7-2-10-1-4-3-7-6-9-2-3-5-5-9-6-3-2-6-2-10-2l-291 0c-4 0-7 0-10 2-4 1-7 3-9 5l0 1c-3 2-5 5-6 9-2 3-2 6-2 10l0 291c0 4 0 7 2 10 1 4 3 7 6 9 2 3 5 5 9 6z m368-316l0 15c0 3 2 5 5 5l15 0c9 0 18 2 26 5 8 4 15 9 21 15 7 6 12 13 15 21 3 8 5 17 5 26l0 291c0 18-8 35-20 47-6 7-13 11-21 15-8 3-17 5-26 5l-291 0c-9 0-18-2-26-5-8-4-15-8-21-15-6-6-11-13-15-21-3-8-5-17-5-26l0-15c0-3-2-5-5-5l-15 0c-9 0-18-2-26-5-8-4-15-9-21-15-7-6-11-13-15-21-3-8-5-17-5-26l0-291c0-9 2-18 5-26 4-8 8-15 15-21 6-7 13-12 21-15 8-3 17-5 26-5l291 0c9 0 18 2 26 5 8 3 15 8 21 15 6 6 11 13 15 21 3 8 5 17 5 26z"/>
<glyph glyph-name="cloud" unicode="&#89;" d="M182 407c3 0 7 1 10 1 17 0 33-3 49-9 16-5 30-13 44-23 13-10 24-23 33-37 9-13 16-29 20-45 1-2 2-4 3-6 1-2 3-3 5-5 1-1 3-2 5-3 2-1 4-1 7-1l27 0c11 0 23-2 33-7 11-4 20-11 28-19 8-8 15-17 19-28 5-10 7-21 7-33 0-12-2-23-7-34-4-10-11-20-19-28-8-8-17-15-28-19-10-4-22-7-33-7l-193 0c-17 0-34 3-49 9-16 5-31 13-44 23-13 10-25 23-34 37-9 13-16 29-20 45-5 20-6 40-3 59 2 20 9 39 19 56 10 17 24 32 40 44 15 12 33 21 53 26 3 1 6 1 9 2 3 0 6 1 10 1 3 1 6 1 9 1z m-52-332c19-7 40-10 62-10l193 0c35 0 66 14 89 37 12 12 21 26 28 41 6 15 9 32 9 49 0 17-3 33-9 48-7 16-16 30-28 41-11 12-25 22-41 28-15 6-31 10-48 10l-9 0c-2 0-4 1-5 3-8 22-20 42-35 59-15 18-34 33-54 44-21 11-44 18-68 21-23 3-46 1-70-5l0 0c-21-5-40-14-57-25-18-12-33-26-46-43-13-17-23-35-30-55-7-20-10-41-10-62 0-4 0-8 0-12 0-4 1-8 1-12 1-4 1-8 2-12 1-4 2-8 3-12 5-21 14-40 25-57 12-18 26-33 43-46 16-13 35-23 55-30z"/>
<glyph glyph-name="cloud-download" unicode="&#90;" d="M431 79c1-1 3-1 5-1 1 0 2 0 2 0 1 0 2 0 3 0 1 1 1 1 2 1l0 0c1 1 2 1 2 1l1 1c15 8 27 19 38 31 10 13 18 28 22 44 5 16 7 33 5 49-2 16-7 32-15 47l0 1c-6 10-13 19-20 27-8 8-17 15-27 21-9 6-20 10-31 13-10 3-22 5-33 5l-9 0c-2 0-4 1-5 3-8 22-20 42-35 59-15 18-34 33-54 44-21 11-44 18-68 21-23 3-47 1-70-5-21-5-40-14-57-25-18-12-34-26-46-43-13-17-23-35-30-55-7-20-10-41-10-62 0-4 0-8 0-12 0-4 1-8 1-12 1-4 1-8 2-12 1-4 2-8 3-12 1-7 4-14 7-21 2-7 5-14 9-21 3-6 7-13 12-19 4-6 9-12 13-18 2-2 4-3 6-4l1 0c2-2 5-2 7-2 3 0 5 0 8 1 2 1 4 2 6 4 2 1 4 3 5 6 1 2 2 5 2 7 0 3 0 5-1 8-1 2-2 5-4 7-4 4-7 9-11 14-3 4-6 10-9 15-3 5-5 10-8 16-2 6-4 11-5 17-3 10-4 20-5 30 0 9 0 19 1 29 2 10 4 20 7 29 4 9 8 18 13 27 5 9 11 17 18 24 6 7 14 14 21 20 8 6 17 11 26 16 9 4 18 7 28 10 20 5 40 6 59 3 20-3 39-9 56-19 17-11 32-24 44-40 12-15 20-33 26-53 0-2 1-4 2-6 1-2 3-3 5-5 1-1 3-2 5-3 2-1 5-1 7-1l27 0c8 0 15-1 23-3 7-2 15-5 21-9 7-4 13-9 18-15 6-5 10-11 14-18l0-1c6-10 9-21 10-32 2-11 1-23-3-34-3-11-8-21-15-30-7-9-16-16-26-22l-1 0c-2-1-4-3-5-5-2-2-3-4-4-7-1-2-1-5-1-7 1-3 1-6 3-8 0-1 1-3 3-4 1-1 2-2 4-3 1-1 3-2 5-2z m-195 201l0-135c0-1 0-3-1-4-2-2-6-2-8 0l-33 34c-2 2-4 3-7 4-2 1-5 2-7 2-3 0-5-1-7-2l-1 0c-2-1-4-2-6-4l0 0c-2-2-4-4-4-7-1-2-2-5-2-7 0-3 1-5 2-8 0-2 2-4 4-6l76-76c2-2 4-4 6-5 3-1 5-1 8-1 3 0 5 0 8 1 2 1 4 3 6 4l76 77c1 1 2 2 3 3 0 1 1 2 1 3 1 1 1 3 2 4l0 0c0 1 0 2 0 4 0 1 0 2 0 4-1 1-1 2-2 3 0 2-1 3-1 4-1 1-2 2-3 3-2 2-4 3-6 4-3 1-5 2-8 2-2 0-5-1-7-2-3-1-5-2-7-4l-33-34c-1-1-3-1-4-1-3 0-5 2-5 5l0 135c0 3-1 6-2 8-1 2-2 4-4 6l0 0c-2 2-4 4-6 5-3 1-5 1-8 1-3 0-5 0-8-1-2-1-4-3-6-5-2-1-3-4-4-6-1-2-2-5-2-8z"/>
<glyph glyph-name="cloud-no" unicode="&#48;" d="M482 136c0 0 1 0 2 0 2 0 4 0 5 1 2 0 4 1 6 2 1 1 3 3 4 4 1 2 2 3 3 5 7 16 10 32 10 48 0 17-3 33-9 49-7 15-16 29-27 41-12 12-25 21-41 28-4 1-8 3-12 4-4 1-8 3-12 3-4 1-9 2-13 2-4 1-8 1-13 1l-8 0c-2 0-4 1-5 3-6 17-15 33-25 47-10 15-23 27-37 38-14 11-30 21-47 27-17 7-35 11-53 13-3 0-6 0-8-1-2-1-5-2-7-4-2-1-3-3-5-6-1-2-2-4-2-7 0-3 0-5 1-8 1-2 2-5 4-7 1-2 4-3 6-5 2-1 5-1 7-2 16-1 31-5 45-11 15-6 28-14 40-24 12-10 22-22 30-35 8-13 14-28 18-43 1-2 2-4 3-6 1-2 3-3 4-5 2-1 4-2 6-3 2 0 4-1 6-1l27 0c3 0 6 0 9 0 3 0 6-1 9-2 3 0 5-1 8-2 3 0 6-2 8-3 11-4 21-11 28-19 8-8 15-18 19-28 4-11 6-22 6-33 0-11-2-23-7-34-1-2-1-5-1-7 0-3 0-5 1-8 1-2 3-4 5-6 1-2 4-3 6-5 1 0 1 0 2 0l0 0c1 0 1-1 2-1l0 0c0 0 1 0 2 0z m-46-77c1 0 2 0 4 0 1 0 2 0 4 0 1 1 2 1 3 2 2 0 3 1 4 1 1 1 2 2 3 3 2 2 3 4 4 6 1 3 2 5 2 8 0 2-1 5-2 7l0 1c-1 2-2 4-4 6-79 78-157 156-235 235l-119 119c-1 1-2 2-3 3-1 0-3 1-4 1-1 1-2 1-3 1-2 1-3 1-4 1l0 0c-2 0-3 0-4-1-2 0-3 0-4-1l0 0c-1 0-2-1-3-1-1-1-2-2-3-3-2-2-4-4-5-6-1-3-1-5-1-8 0-2 0-5 1-7l0-1c1-2 3-4 5-6l0-1 1 0c2-2 1-6-1-8-18-13-32-30-43-48-12-19-20-40-25-61-5-22-5-45-2-68 3-22 10-43 22-64 8-15 18-29 30-41 12-12 25-22 40-31 14-8 30-15 46-19 16-5 33-7 50-7 44 0 87 0 131 0l64 0c3 0 5 0 8 0 3 0 5 0 8 1 2 0 4 0 6 1 2 0 4 0 6 1 2 0 4 0 5-1l8-8c1-1 2-2 3-3 1 0 2-1 3-1l0 0c1-1 3-1 4-2z m-328 324l263-264c1-1 2-2 2-3 0-3-3-6-5-6-14 0-36 1-58 1-39 0-78 0-117-1l0 0c-14 0-28 2-40 5-14 4-26 9-38 16-12 6-23 15-32 25-10 9-18 20-25 32-9 17-14 35-17 52-3 19-2 38 3 55 4 18 11 34 21 50 9 14 21 27 36 38 2 2 5 1 7 0z"/>
<glyph glyph-name="cloud-upload" unicode="&#49;" d="M431 79c1-1 3-1 5-1 1 0 2 0 2 0 1 0 2 0 3 1 1 0 1 0 2 0l0 0c1 1 2 1 2 1l1 1c15 8 27 19 38 31 10 13 18 28 22 44 5 16 7 33 5 49-2 16-7 32-15 47l0 1c-6 10-13 19-20 27-8 8-17 15-27 21-9 6-20 10-31 13-10 3-22 5-33 5l-9 0c-2 0-4 1-5 3-8 22-20 42-35 59-15 18-34 33-54 44-21 11-44 18-68 21-23 3-46 1-70-5-21-5-40-14-57-25-18-12-33-26-46-43-13-17-23-35-30-55-7-20-10-41-10-62 0-4 0-8 0-12 0-4 1-8 1-12 1-4 1-8 2-12 1-4 2-8 3-12 2-7 4-14 7-21 2-7 5-14 9-21 3-6 7-13 12-19 4-6 9-12 14-18 1-2 3-3 5-4l1 0c2-1 5-2 7-2 3 0 5 0 8 1 2 1 4 2 6 4 2 1 4 4 5 6 1 2 2 5 2 7 0 3 0 5-1 8-1 2-2 5-4 7-4 4-7 9-11 14-3 4-6 10-9 15-3 5-5 10-8 16-2 6-4 11-5 17-3 10-4 20-5 29 0 10 0 20 2 30 1 10 3 19 7 29 3 9 7 18 12 27 5 9 11 17 18 24 6 7 14 14 21 20 8 6 17 11 26 16 9 4 18 7 28 10 20 5 40 6 59 3 20-3 39-9 56-20 17-10 32-23 44-39 12-15 20-33 26-53 0-2 1-4 2-6 1-2 3-3 5-5 1-1 3-2 5-3 2-1 4-1 7-1l27 0c8 0 15-1 23-3 7-2 15-5 21-9 7-4 13-9 18-15 6-5 10-11 14-18l0 0c6-11 9-22 10-33 2-11 1-23-3-34-3-11-8-21-15-30-7-9-16-16-26-22l-1 0c-2-1-4-3-5-5-2-2-3-4-4-7-1-2-1-5-1-7 0-3 1-5 3-8 0-1 1-3 3-4 1-1 2-2 4-3 1-1 3-2 5-2z m-155 6l0 135c0 1 0 3 1 4 2 2 6 2 8 0l33-34c2-2 4-3 7-4 2-1 5-2 7-2 3 0 5 1 8 2l0 0c2 1 4 2 6 4l0 0c2 2 4 4 4 7 1 2 2 5 2 7 0 3-1 5-2 8 0 2-2 4-4 6l-76 76c-2 2-4 4-6 5-3 1-5 1-8 1-3 0-5 0-8-1-2-1-4-3-6-4l-76-77c-1-1-2-2-3-3 0-1-1-2-1-3-1-1-1-2-2-4l0 0c0-1 0-2 0-4 0-1 0-2 0-4 1-1 1-2 2-3 0-2 1-3 1-4 1-1 2-2 3-3 2-2 4-3 6-4 3-1 5-2 8-2 2 0 5 1 7 2 3 1 5 2 7 4l33 34c1 1 3 1 4 1 3 0 5-2 5-5l0-135c0-3 1-6 2-8 1-2 2-4 4-6l0 0c2-2 4-4 6-5 3-1 5-1 8-1 3 0 5 0 8 1 2 1 4 3 6 5 2 1 3 4 4 6 1 2 2 5 2 8z"/>
<glyph glyph-name="code" unicode="&#50;" d="M348 372l113-112c2-2 2-6 0-8l-113-112c-2-2-3-4-4-7-1-2-2-5-2-7 0-3 1-5 2-8l0 0c0-2 2-4 4-6l0 0c2-2 4-4 6-5 3-1 5-1 8-1 3 0 5 0 8 1 2 1 4 3 6 5l130 130c2 2 4 4 5 6 1 3 1 5 1 8 0 3 0 5-1 8-1 2-3 4-4 6l-131 130c-1 1-2 2-3 3-1 1-2 1-4 2-1 0-2 0-3 1l0 0c-2 0-3 0-4 0-1 0-3 0-4 0-1-1-3-1-4-1-1-1-2-1-3-2-1-1-2-2-3-3-2-2-4-4-4-6-1-2-2-5-2-8 0-2 1-5 2-7 0-3 2-5 4-6z m-111-258c1 2 3 4 3 7l70 260c1 3 1 5 1 8-1 2-2 5-3 7-1 2-3 4-5 6-2 2-4 3-7 3-3 1-5 1-8 1-2 0-5-1-7-3-2-1-4-3-6-5-1-2-3-4-3-7l-70-260c-1-3-1-5-1-8 1-3 2-5 3-7 1-2 3-4 5-6 2-2 4-3 7-3 3-1 5-1 8-1 2 0 5 1 7 3 2 1 4 3 6 5z m-73 26l-113 112c-2 2-2 6 0 8l113 112c2 2 3 4 4 7 1 2 2 5 2 7 0 3-1 5-2 8l0 0c0 2-2 4-4 6l0 0c-2 2-4 4-6 5-3 1-5 1-8 1-3 0-5 0-8-1-2-1-4-3-6-5l-130-130c-2-2-4-4-5-6-1-3-1-5-1-8 0-3 0-5 1-8 1-2 3-4 4-6l131-130c1-1 2-2 3-3 1-1 2-1 4-2 1 0 2 0 3-1l0 0c2 0 3 0 4 0 1 0 3 0 4 0 1 1 3 1 4 1 1 1 2 1 3 2 1 1 2 2 3 3 2 2 4 4 4 6 1 2 2 5 2 8 0 2-1 5-2 7 0 3-2 5-4 7z"/>
<glyph glyph-name="coffe" unicode="&#51;" d="M58 195l0 62c0 3 2 5 5 5l299 0c3 0 5-2 5-5l0-62c0-21-4-41-12-59-8-19-19-36-33-50-15-15-32-26-51-34-18-8-38-12-59-12-21 0-41 4-59 12-19 8-36 19-50 34-14 14-26 31-34 50-7 18-11 38-11 59z m222 162c2 2 4 3 5 5 2 2 3 4 4 6l0 0c2 6 3 11 3 16 0 5 0 11-1 16-1 5-2 10-3 15-2 5-4 10-6 15l0 0c-3 9-6 17-6 25-1 5-1 9 1 13 1 5 4 9 8 13 1 1 3 3 4 6l0 0c1 2 1 4 1 7 0 2-1 4-1 7-1 2-3 4-4 6-2 1-4 3-6 4-3 0-5 1-7 1-3 0-5-1-7-1-3-1-5-3-6-4-8-8-14-16-17-24-3-7-5-14-5-21 0-15 6-30 11-44 5-14 10-28 6-39-1-2-1-4-1-7 0-2 1-4 2-7 1-2 3-4 5-5 1-2 3-3 6-4 2 0 5-1 7 0 2 0 5 0 7 1z m-105 0c2 2 4 3 6 5 1 2 2 4 3 6l0 0c2 6 3 11 3 16 1 5 0 11-1 16 0 5-2 10-3 15-2 5-4 10-6 15l0 0c-3 9-6 17-6 25-1 5 0 9 1 13 1 5 4 9 8 13l0 0c1 1 3 3 4 6 1 2 1 4 1 7 0 2 0 4-1 7-1 2-3 4-4 6-2 1-4 3-6 4-2 0-5 1-7 1-3 0-5-1-7-1-3-1-4-3-6-4-8-8-14-16-17-24-3-7-4-14-5-21 0-15 6-30 11-44 2-7 5-14 6-20 2-7 2-13 0-19 0-2-1-4-1-7 1-2 1-4 2-7 1-2 3-4 5-5 1-2 4-3 6-4 2 0 5-1 7 0 2 0 5 0 7 1z m297-145c0-6-2-13-4-19-3-6-6-11-11-16-4-4-10-8-16-11-6-2-12-3-19-3l0 0c-2-1-5-1-8 0l-3 0c-3 0-6 2-6 5 0 0 0 1 0 1l0 0c1 3 1 5 1 7 0 2 1 4 1 6 0 2 0 4 0 6 0 2 0 4 0 7l0 62c0 3 2 5 5 5l10 0c7 0 13-1 19-4 6-2 12-6 16-11 5-4 8-10 11-16 2-6 4-12 4-19z m-75-90l25 0c12 0 24 3 34 7 11 5 21 11 30 20 8 8 15 18 19 29 5 11 7 22 7 34 0 12-2 24-7 35-4 11-11 21-19 29-9 8-19 15-30 19-10 5-22 7-34 7l-384 0c-3 0-6 0-8-1-3-1-5-3-7-5-1-1-3-4-4-6-1-2-2-5-2-8l0-87c0-14 2-27 5-40 2-14 7-27 12-39 6-12 12-24 20-35 8-11 17-21 27-30l2-2c2-2 2-5 0-7-1-1-2-2-4-2l-59 0c-3 0-5 0-8-1-2-1-4-3-6-5-2-2-4-4-5-6 0-3-1-5-1-8 0-3 1-5 1-8 1-2 3-4 5-6 2-2 4-3 6-5 3 0 5-1 8-1l384 0c3 0 6 1 8 1 3 2 5 3 7 5 2 2 3 4 4 6l0 1c1 2 2 5 2 7 0 3-1 5-2 8-1 2-2 5-4 6-2 2-4 4-7 5-2 1-5 1-8 1l-59 0c-3 0-5 3-5 5 0 2 1 4 2 4l1 2c6 5 11 10 15 15 5 5 9 10 13 16 4 6 8 12 11 18 4 6 7 12 10 19l0 0c1 2 3 3 5 3z"/>
<glyph glyph-name="cog" unicode="&#52;" d="M213 107c-4 4-9 6-14 8l0 1c-5 2-10 3-16 4-5 0-11 0-16-1-5-1-10-3-15-5-5-3-9-6-13-10l-1 0 0 0 0 0 0 0c0 0 0-1-1-1-2-2-4-4-7-5l0 0c-3-1-6-2-9-2-3 0-6 1-9 2-3 1-5 2-7 5l-1 0c-1 1-2 2-3 3 0 2-1 3-2 4 0 2-1 3-1 5 0 1 0 3 0 4 0 2 0 3 0 5 0 1 1 2 1 4 1 1 2 3 3 4 0 1 1 2 2 3 1 1 1 1 2 2l0 0c4 4 7 8 10 13 2 5 4 10 5 16 1 5 1 10 0 16 0 5-2 10-4 15l0 1c-2 5-5 9-8 13-4 4-8 8-12 11l0 0c-5 3-10 5-15 7-5 1-10 2-16 2l-3 0c-3 0-6 1-9 2-3 1-5 3-8 5l0 0c-2 2-3 5-5 7-1 3-1 6-1 9 0 3 0 6 1 9 2 3 3 5 5 8 3 2 5 3 8 5 3 1 6 1 9 1l2 0c6 1 11 2 16 3 5 2 10 4 15 7 4 4 8 7 12 12 3 4 6 9 7 14l1 0c2 5 3 10 4 16 0 5 0 11-1 16-1 5-3 10-5 15-3 5-6 9-10 13l-1 2c-1 1-2 2-3 3-1 2-2 3-2 4-1 2-1 3-2 4l0 1c0 1 0 2 0 4l0 0c0 2 0 3 0 5 1 1 1 3 2 4 0 1 1 3 2 4 1 1 2 2 3 4 1 1 2 2 3 2 2 1 3 2 4 3 2 0 3 1 5 1 1 0 3 0 4 0 2 0 3 0 5 0 1 0 2-1 4-1l0 0c1-1 3-2 4-3 1 0 2-1 3-3 1 0 1 0 1 0 0 0 0 0 0 0l0 0 0 0c0 0 1-1 1-1 4-4 8-7 12-9 5-3 10-4 15-5 5-2 10-2 15-2 5 1 9 2 14 3 1 0 1 1 2 1 0 0 1 0 2 0l1 0 1 1c5 2 10 5 14 8 4 4 8 8 11 12 3 5 5 10 7 15 1 5 2 10 2 16l0 3c0 3 0 6 2 9 1 3 2 5 4 7l1 1c2 2 4 3 7 5 3 1 6 1 9 1 3 0 6 0 9-1l0 0c3-2 5-3 7-5 2-2 4-5 5-8l0 0c2-3 2-6 2-9l0-2c0-5 1-10 3-16 1-5 3-10 6-14 3-4 7-9 11-12 4-3 8-6 14-8 5-3 10-4 15-5 6 0 11 0 17 1 5 1 10 3 15 5 5 3 9 6 13 10l2 1c1 1 2 2 3 3 1 1 3 2 4 2l0 0c2 1 3 1 5 2 1 0 3 0 4 0l1 0c1 0 2 0 4 0 1-1 3-1 4-2 1 0 3-1 4-2 1-1 2-1 3-2l1-1c1-1 2-2 2-3 1-1 2-3 2-4l1 0c0-2 1-3 1-4l0-1c0-1 0-3 0-4 0-2 0-3 0-5 0-1-1-2-1-4-1-1-2-3-2-4-1-1-2-2-3-3 0 0-1-1-1-1l-1-1c-4-4-7-8-9-12-2-5-4-10-5-15-2-4-2-10-2-15l0 0c1-5 2-9 3-14 0-1 1-1 1-2 0 0 0-1 0-2 0-1 1-2 1-2 2-5 5-10 8-14l0 0c4-4 8-8 12-11 5-3 10-5 15-7 5-1 10-2 16-2l3 0c3 0 6 0 9-2l0 0c3-1 5-2 7-4l1-1c2-2 3-4 5-7 1-3 1-6 1-9 0-3 0-6-1-9-2-3-3-5-5-7-3-2-5-4-8-5-3-2-6-2-9-2l-2 0c-5 0-10-1-16-3-5-1-10-3-14-6-4-3-8-7-12-11-3-4-6-8-8-14-2-5-4-10-5-15 0-6 0-11 1-17 1-5 3-10 5-15 3-5 6-9 10-13l1-2c3-2 4-5 5-7 1-3 2-6 2-9 0-3-1-6-2-9-1-3-3-5-5-8-1-1-2-2-3-2-1-1-3-2-4-2l0-1c-2 0-3-1-4-1l-1 0c-1 0-3 0-4 0l-1 0c-1 0-2 0-4 0-1 0-3 1-4 1-1 1-3 2-4 3-1 0-2 1-3 3l-2 1c-4 4-8 7-13 10-5 2-10 4-16 5-5 1-10 1-16 0-5 0-10-2-15-4l-1 0c-5-2-9-5-13-8-4-4-8-8-11-12l0 0c-3-5-5-10-7-15-1-5-2-10-2-16l0-3c0-3-1-6-2-9-1-3-3-5-5-8-2-2-5-3-7-5-3-1-6-1-9-1-3 0-6 0-9 1-3 2-5 3-8 5-2 3-3 5-5 8-1 3-1 6-1 9l0 2c-1 6-2 11-3 16-2 5-4 10-7 15-4 4-7 8-12 11z m-77 300l0 0z m103-110c5 2 11 4 17 4 6 0 12-2 17-4 6-2 10-5 15-9 4-5 7-9 9-15 2-5 4-11 4-17 0-6-2-12-4-17-2-6-5-10-9-15-5-4-9-7-15-9-5-2-11-4-17-4-6 0-12 2-17 4-6 2-10 5-15 9-4 5-7 9-9 15-2 5-4 11-4 17 0 6 2 12 4 17 2 6 5 10 9 15 5 4 9 7 15 9z m-15-119c10-4 21-6 32-6 11 0 22 2 32 6 10 4 20 11 27 18l1 0c7 8 14 18 18 28 4 10 6 21 6 32 0 11-2 22-6 32-4 10-11 20-18 27l0 1c-8 7-18 14-28 18-10 4-21 6-32 6-11 0-22-2-32-6-10-4-20-11-28-18-7-8-14-18-18-28-4-10-6-21-6-32 0-11 2-22 6-32 4-10 11-20 18-28 8-7 18-14 28-18z m10-173c7-3 15-5 24-5 8 0 16 2 24 5 7 3 14 8 20 13 6 6 11 13 14 21 3 7 5 15 5 24l0 3c0 2 0 3 0 5 1 1 1 3 2 4 1 1 2 2 3 3 1 1 3 2 4 3l0 0c2 0 3 1 5 1 1 0 3 0 4 0l0 0c1 0 3-1 4-1l1-1c1 0 2-1 3-2l2-2c3-3 6-5 9-7 4-3 7-5 11-6 4-2 8-3 12-4 4-1 8-1 12-1l0 0c4 0 8 0 12 1 4 1 8 2 12 4 4 1 7 3 11 6 3 2 6 5 9 7 6 6 11 13 14 21 3 8 5 16 5 24 0 8-2 16-5 24-3 7-8 14-14 20l-1 1c-1 2-2 3-3 4 0 2-1 3-1 5 0 1 0 3 0 4 0 2 0 3 1 5l0 0c1 1 2 2 3 4 0 1 2 2 3 3 1 0 2 1 4 2 1 0 3 0 4 0l2 0c9 0 17 2 24 5 8 3 15 8 21 14 5 5 10 12 13 20 3 7 5 15 5 24 0 8-2 17-5 24-3 8-8 15-13 20-6 6-13 11-21 14-7 3-15 5-24 5l-3 0c-2 0-3 0-4 0-1 1-3 1-4 2-1 0-2 1-2 1-1 1-2 2-2 2-1 1-1 2-2 3 0 1 0 2-1 3 0 2-1 3-1 5 0 1 0 3 0 4 0 2 1 3 2 5 0 1 1 2 2 3l2 1c3 4 5 7 7 10 3 4 5 7 6 11 2 4 3 8 4 12 1 4 1 8 1 12 0 4 0 8-1 12-1 4-2 8-4 12-1 4-3 7-6 11-2 3-4 6-7 9l0 0c-3 3-7 6-10 8-3 2-7 4-11 6-4 2-8 3-12 3-4 1-8 2-12 2l0 0c-4 0-8-1-12-2-4 0-8-2-12-3-4-2-7-4-11-6-3-2-6-5-9-8l-1-1c-2-1-3-2-4-3-2 0-3-1-5-1-1 0-3 0-4 0-2 0-3 0-5 1l0 0c-1 1-3 2-4 2-1 1-2 3-3 4 0 1-1 2-2 4 0 1 0 3 0 4l0 2c0 9-2 17-5 24-3 8-8 15-14 21-5 5-12 10-20 13-7 3-15 5-24 5-8 0-17-2-24-5-8-3-15-8-20-13-6-6-11-13-14-21-3-7-5-15-5-24l0-3c0-2 0-3 0-4-1-1-1-2-1-3l-1-1c0-1-1-2-1-2-1-1-2-2-3-3 0 0-1 0-2-1-1 0-1 0-2 0l-1-1c-2 0-3-1-5-1-1 0-3 0-4 0-2 0-3 1-5 2-1 0-2 1-3 2l-2 2c-3 3-6 5-9 7-3 3-7 5-11 6-4 2-8 3-12 4-4 1-8 1-12 1-4 0-8 0-12-1-4-1-8-2-12-4-4-1-7-3-11-6-3-2-6-5-9-7-3-3-6-7-8-10-2-3-4-7-6-11-2-4-3-8-3-12-1-4-2-8-2-12 0-4 1-8 2-12 0-4 2-8 3-12 2-4 4-7 6-11 2-3 5-6 8-9l1-2c1-1 2-2 3-3 0-2 1-3 1-5 0-1 0-3 0-4 0-2 0-3-1-4l0-2c-1-1-2-3-3-4-1-1-2-2-3-3-1-1-2-2-4-2-1-1-3-1-4-1l-1 0-1 0c-9 0-17-2-24-5-8-3-15-8-21-13-5-6-10-13-13-21-3-7-5-15-5-24 0-8 2-16 5-24 3-7 8-14 13-20 6-6 13-11 21-14 7-3 15-5 24-5l3 0c2 0 3 0 5 0 1-1 3-1 4-2 1-1 2-2 3-3l0 0c1-1 2-3 3-4l0 0c0-2 1-3 1-5 0-1 0-3 0-4 0-1-1-3-1-4l-1-1c0-1-1-2-2-3l-2-2c-3-3-5-6-7-9-3-4-5-7-6-11-2-4-3-8-4-12-1-4-1-8-1-12 0-4 0-8 1-12 1-4 2-8 4-12 1-4 3-7 6-11 2-3 4-6 7-9l1 0c6-6 12-11 20-14 8-3 16-5 24-5 8 0 16 2 24 5 7 3 14 8 20 14l2 1c1 1 2 2 3 3 2 0 3 1 5 1 1 0 3 0 4 0 2 0 3 0 5-1 0 0 1-1 1-1 1 0 3-1 4-2 1-1 2-2 3-3 1-1 2-2 2-4 1-1 1-3 1-4l0-1 0-1c0-9 2-17 5-24 3-8 7-15 13-20l0-1c6-5 13-10 21-13z"/>
<glyph glyph-name="comparation" unicode="&#53;" d="M274 12c1 3 2 5 2 8l0 472c0 3-1 5-2 8-1 2-2 4-4 6l0 0c-2 2-4 4-6 5-3 0-5 1-8 1-6 0-10-2-14-6-2-2-3-4-4-6-1-3-2-5-2-8l0-472c0-3 1-5 2-8l0 0c1-2 2-4 4-6l0 0c2-2 4-4 6-4 3-1 5-2 8-2 5 0 10 2 14 6 2 2 3 4 4 6z m-140 25c2-1 5-1 8-1l14 0c2 0 5 0 7 1 3 1 5 3 7 4l0 1c2 2 3 4 4 6 1 2 2 5 2 8 0 5-3 10-6 14-2 2-4 3-7 4-2 1-5 1-7 1l-14 0c-3 0-5 0-8-1l0 0c-2-1-4-2-6-4-2-2-4-4-5-7-1-2-1-5-1-7 0-3 0-6 1-8 1-2 3-4 5-6 2-2 4-4 6-5z m215 0c2-1 4-1 7-1l72 0c3 0 5 0 8 1 2 1 4 3 6 5 2 1 3 4 4 6 1 2 2 5 2 8 0 2-1 5-2 7l0 0c-1 3-2 5-4 7l0 0c-2 2-4 3-6 4-3 1-5 1-8 1l-72 0c-2 0-5 0-7-1l0 0c-3-1-5-2-7-4l0 0c-2-2-3-4-4-7-1-2-2-5-2-7 0-6 3-11 6-14 2-2 4-4 7-5z m-319 201c2-1 4-2 7-2l119 0c2 0 5 1 7 2 3 1 5 2 7 4l0 0c2 2 3 4 4 6 1 3 2 5 2 8 0 6-3 10-6 14-2 2-4 3-7 4-2 1-5 2-7 2l-119 0c-2 0-5-1-7-2l0 0c-3-1-5-2-7-4-2-2-3-4-4-6-1-3-2-5-2-8 0-3 1-5 2-8 1-2 2-4 4-6 2-2 4-3 7-4z m319 0c2-1 4-2 7-2l136 0c3 0 5 1 8 2 2 1 4 2 6 4 2 2 3 4 4 6 1 3 2 5 2 8 0 3-1 5-1 7l-1 1c-1 2-2 4-4 6l0 0c-2 2-4 3-6 4-3 1-5 2-8 2l-136 0c-2 0-5-1-7-2l0 0c-3-1-5-2-7-4l0 0c-2-2-3-4-4-6-1-3-2-5-2-8 0-5 3-10 6-14 2-2 4-3 7-4z m-337-101c3 0 5-1 8-1l136 0c2 0 5 1 7 1 3 2 5 3 7 5l0 0c2 2 3 4 4 6 1 3 2 5 2 8 0 5-3 10-6 14-2 2-4 3-7 4-2 1-5 2-7 2l-136 0c-3 0-5-1-8-2l0 0c-2-1-4-2-6-4-2-2-4-4-5-7 0-2-1-4-1-7 0-3 1-5 1-8 1-2 3-4 5-6 2-2 4-3 6-5z m337 0c2 0 4-1 7-1l20 0c2 0 5 1 7 1 3 2 5 3 6 5l1 0c2 2 3 4 4 6 1 3 2 5 2 8 0 3-1 5-2 7-1 3-2 5-4 7-2 2-4 3-7 4-2 1-5 2-7 2l-20 0c-2 0-5-1-7-2l0 0c-3-1-5-2-7-4l0 0c-2-2-3-4-4-7-1-2-2-4-2-7 0-6 3-11 6-14 2-2 4-3 7-5z m-267 201c2-1 5-2 7-2l67 0c2 0 5 1 7 2 3 1 5 2 7 4l0 0c2 2 3 4 4 7 1 2 2 5 2 7 0 6-3 11-6 14-2 2-4 3-7 5-2 0-5 1-7 1l-67 0c-2 0-5 0-7-1l0 0c-2-2-5-3-7-5-1-2-3-4-4-6-1-3-1-5-1-8 0-2 0-5 1-7 1-3 3-5 4-7 2-2 5-3 7-4z m267 0c2-1 4-2 7-2l107 0c2 0 5 1 7 2 3 1 5 2 7 4l0 0c2 2 3 4 4 7 1 2 2 5 2 7 0 6-3 11-6 14-2 2-4 3-7 5-2 0-5 1-7 1l-107 0c-2 0-5 0-7-1l0 0c-3-2-5-3-7-5l0 0c-2-2-3-4-4-6-1-3-2-5-2-8 0-5 3-10 6-14 2-2 4-3 7-4z m-337 100c3-1 5-1 8-1l136 0c2 0 5 0 7 1 3 1 5 2 7 4l0 0c2 2 3 4 4 7 1 2 2 5 2 7 0 6-3 11-6 14-2 2-4 4-7 5-2 1-5 1-7 1l-136 0c-3 0-5 0-8-1l0 0c-2-1-4-3-6-5-2-1-4-4-5-6 0-2-1-5-1-8 0-2 1-5 1-7 1-3 3-5 5-7 2-2 4-3 6-4z m337 0c2-1 4-1 7-1l55 0c2 0 5 0 7 1 3 1 5 2 7 4 1 2 3 4 4 7 1 2 1 5 1 7 0 3 0 5-1 8l0 0c-1 2-3 5-4 6l-1 0c-1 2-3 4-6 5-2 1-5 1-7 1l-55 0c-2 0-5 0-7-1l0 0c-3-1-5-3-7-4l0-1c-2-1-3-4-4-6-1-2-2-5-2-8 0-5 3-10 6-14 2-2 4-3 7-4z"/>
<glyph glyph-name="contract" unicode="&#54;" d="M2 12c0-2 2-4 4-6 2-2 4-3 6-4 2-1 5-2 8-2l173 0c3 0 5 1 7 2 3 1 5 2 7 4 0 0 0 0 0 0 2 2 3 4 4 6 1 3 2 5 2 8l0 173c0 3-1 5-2 7-1 3-2 5-4 7-2 2-4 3-7 4-2 1-4 2-7 2l-173 0c-3 0-5-1-8-2-2-1-4-2-6-4-2-2-3-4-4-7-1-2-2-4-2-7l0-161c0 0 0 0 0-1l0-11c0-3 1-5 2-8z m490 500l-472 0c-3 0-5-1-8-1-2-1-4-3-6-5l0 0c-2-2-3-4-4-6-1-2-2-5-2-8l0-209c0-2 1-5 2-7 1-3 2-5 4-6 0-1 0-1 0-1 2-2 4-3 6-4l0 0c3-1 5-1 8-1 2 0 5 0 7 1 3 1 5 3 7 4 2 2 3 4 4 7 1 2 2 5 2 7l0 184c0 3 2 6 5 6l422 0c3 0 6-3 6-6l0-422c0-3-3-6-6-6l-185 0c-3 0-5 0-8-1-2-1-4-2-6-4l0 0c-2-2-3-4-4-7-1-2-2-5-2-7 0-3 1-5 2-8 1-2 2-4 4-6l0 0c2-2 4-4 6-5 3 0 5-1 8-1l210 0c3 0 5 1 8 1 2 1 4 3 6 5l1 0c1 2 3 4 3 6l0 0c1 3 2 5 2 8l0 472c0 3-1 5-2 8 0 2-2 4-4 6-2 2-4 4-6 5-2 0-5 1-8 1z m-76-91c-1 1-2 2-3 2-2 1-3 1-4 1-1 1-3 1-4 1-1 0-2 0-4-1-1 0-2 0-3-1-2 0-3-1-4-2-1 0-2-1-3-2l-119-120c-1-1-3-1-4-1-3 0-5 2-5 5l0 51c0 3-1 5-2 8-1 2-2 4-4 6l0 0c-2 2-4 3-7 4-2 1-5 2-7 2-3 0-5-1-7-2l-1 0c-2-1-4-2-6-4-2-2-3-4-4-6-1-3-2-5-2-8l0-111c0-3 1-5 2-8 1-2 2-4 4-6l0 0c2-2 4-4 6-4 3-1 5-2 8-2l111 0c3 0 5 1 8 2 2 0 4 2 6 4l0 0c2 2 3 4 4 6 1 3 2 5 2 8 0 3-1 5-2 7-1 3-2 5-4 7-2 2-4 3-6 4-3 1-5 2-8 2l-51 0c-1 0-3 0-4 1-2 2-2 5 0 7l120 120c0 0 0 0 0 1 4 3 6 8 6 13 0 3-1 5-2 8-1 2-2 4-4 5l0 1c-1 1-2 2-3 2z m-371-248l123 0c3 0 5-2 5-5l0-123c0-3-2-6-5-6l-123 0c-3 0-6 3-6 6l0 123c0 3 3 5 6 5z"/>
<glyph glyph-name="cpu" unicode="&#55;" d="M118 406c3 1 6 2 9 2l258 0c3 0 6-1 9-2 2-1 5-3 7-5l0 0c2-2 4-4 5-7l0 0c1-3 2-6 2-9l0-258c0-3-1-6-2-8l0-1c-1-2-3-5-5-7l0 0c-2-2-4-4-7-5-3-1-6-2-9-2l-258 0c-3 0-6 1-9 2-2 1-5 3-7 5l0 0c-2 2-4 4-5 7l0 0c-1 3-2 6-2 9l0 258c0 3 1 6 2 9 1 2 3 5 5 7l0 0c2 2 4 4 7 5z m-98-213l39 0c3 0 5-2 5-5l0-61c0-8 2-16 5-24 3-7 8-14 14-20l0 0c6-6 13-11 20-14 8-3 16-5 24-5l40 0c2 0 5-2 5-5l0-39c0-3 0-5 1-8 1-2 3-4 4-6l1 0c1-2 4-4 6-5 2 0 5-1 8-1 2 0 5 1 7 1 3 1 5 3 7 5l0 0c1 2 3 4 4 6 1 3 1 5 1 8l0 39c0 3 3 5 6 5l78 0c3 0 6-2 6-5l0-39c0-3 0-5 1-8 1-2 2-4 4-6l0 0c2-2 4-4 7-5 2 0 5-1 7-1 3 0 6 1 8 1 2 1 4 3 6 5l0 0c2 2 4 4 5 6 1 3 1 5 1 8l0 39c0 3 3 5 5 5l40 0c8 0 16 2 24 5 7 3 14 8 20 14l0 0c6 6 11 13 14 20 3 8 5 16 5 24l0 61c0 3 2 5 5 5l39 0c3 0 5 1 8 2 2 1 4 2 6 4l0 0c2 2 4 4 5 6 0 3 1 5 1 8 0 3 0 5-1 7l0 1c-1 2-3 4-5 6-2 2-4 3-6 4-3 1-5 2-8 2l-39 0c-3 0-5 2-5 5l0 57c0 3 2 6 5 6l39 0c3 0 5 0 8 1 2 1 4 3 6 4 2 2 4 4 5 7 0 2 1 5 1 7 0 3-1 6-1 8-1 2-3 4-5 6l0 0c-2 2-4 4-6 5-3 1-5 1-8 1l-39 0c-3 0-5 3-5 5l0 40c0 8-2 16-5 24-3 7-8 14-14 20-6 6-13 11-20 14-8 3-16 5-24 5l-40 0c-2 0-5 2-5 5l0 39c0 3 0 5-1 8-1 2-3 4-4 6l-1 0c-1 2-4 4-6 5-2 0-5 1-8 1-2 0-5-1-7-1-2-1-5-3-6-5l-1 0c-1-2-3-4-4-6-1-3-1-5-1-8l0-39c0-3-3-5-6-5l-78 0c-3 0-6 2-6 5l0 39c0 3 0 5-1 8-1 2-3 4-4 6-2 2-4 4-7 5-2 0-5 1-7 1-3 0-6-1-8-1-2-1-4-3-6-5l0 0c-2-2-4-4-5-6-1-3-1-5-1-8l0-39c0-3-3-5-5-5l-40 0c-8 0-16-2-24-5-7-3-14-8-20-14-6-6-11-13-14-20-3-8-5-16-5-24l0-40c0-2-2-5-5-5l-39 0c-3 0-5 0-8-1-2-1-4-3-6-5-2-1-4-4-5-6 0-2-1-5-1-8 0-2 1-5 1-7 1-3 3-5 5-7 2-1 4-3 6-4 3-1 5-1 8-1l39 0c3 0 5-3 5-6l0-57c0-3-2-5-5-5l-39 0c-3 0-5-1-8-2l0 0c-2-1-4-2-6-4l0 0c-2-2-4-4-5-6 0-3-1-5-1-8 0-3 1-5 1-8 1-2 3-4 5-6l0 0c2-2 4-3 6-4 3-1 5-2 8-2z m275 18l-78 0c-3 0-6 3-6 6l0 78c0 3 3 6 6 6l78 0c3 0 6-3 6-6l0-78c0-3-3-6-6-6z m-103-39l128 0c3 0 6 0 8 1 2 1 5 3 6 5 2 1 4 4 5 6 1 2 1 5 1 8l0 128c0 3 0 6-1 8-1 2-3 5-5 6-1 2-4 4-6 5-2 1-5 1-8 1l-128 0c-3 0-6 0-8-1-2-1-5-3-6-5-2-1-4-4-5-6-1-2-1-5-1-8l0-128c0-3 0-6 1-8 1-2 3-5 5-6 1-2 4-4 6-5 2-1 5-1 8-1z"/>
<glyph glyph-name="creditcard" unicode="&#56;" d="M279 507l-274-274c-1-2-3-4-3-6l-1 0c-1-3-1-5-1-7 0-3 0-5 1-7l0-1c1-2 3-4 4-6l201-201c2-1 4-3 6-4 3-1 5-1 8-1 2 0 4 0 7 1 2 1 4 3 6 4l274 274c1 2 3 4 4 6 1 3 1 5 1 7 0 3 0 5-1 7l0 1c-1 2-3 4-4 6l-201 201c-2 1-4 3-6 4-3 1-5 1-8 1-2 0-4 0-7-1-2-1-4-3-6-4z m36-292l73 73c2 2 3 4 4 6 1 3 1 5 1 8 0 2 0 5-1 7-1 2-2 4-4 6-2 2-4 3-6 4l0 0c-3 1-5 1-7 1-3 0-5 0-8-1-2-1-4-2-6-4l-73-73c-1-2-3-4-4-6l0 0c-1-3-1-5-1-7 0-3 0-5 1-8 1-2 2-4 4-5l0-1c2-1 4-3 6-4 3-1 5-1 8-1 2 0 4 0 7 1l0 0c2 1 4 2 6 4z m148 74l-240-240c-2-2-5-2-7 0l-94 94c-2 2-2 5 0 7l240 240c2 2 5 2 7 0l94-94c2-2 2-5 0-7z m-137 137l-240-240c-2-2-5-2-7 0l-30 30c-2 2-2 5 0 7l240 240c2 2 5 2 7 0l30-30c2-2 2-5 0-7z"/>
<glyph glyph-name="cursor" unicode="&#57;" d="M506 84l-93 92c0 1 0 1-1 1-1 3 0 6 2 8l63 36c1 0 3 2 4 3 1 1 2 3 3 4 1 2 2 4 2 6 1 2 1 3 1 5-1 2-1 4-2 6 0 2-1 3-2 5-1 1-3 3-4 4-2 1-3 2-5 3l-320 127c-2 1-4 1-6 2-2 0-4 0-6-1-1 0-3-1-5-2-2-1-3-2-4-3l-1 0c-1-2-2-3-3-5-1-2-2-3-2-5-1-2-1-4-1-6 1-2 1-4 2-6l127-320c1-2 2-3 3-5 1-1 3-3 4-4 2-1 3-2 5-2 2-1 4-1 6-2 2 0 4 0 5 1 2 0 4 1 5 2 2 1 4 2 5 3 1 1 3 3 3 4l36 62c1 1 1 1 1 2 2 2 6 2 8 0l93-93c0-1 1-2 3-3 1 0 2-1 3-1l0 0c1-1 3-1 4-2 1 0 2 0 4 0 1 0 2 0 4 0 1 1 2 1 3 2 2 0 3 1 4 1 1 1 2 2 3 3 16 14 35 34 49 49 2 2 3 4 4 7 1 2 2 5 2 7 0 3-1 5-2 8-1 2-2 4-4 6z m-268 313c2 0 3 1 4 1l0 0c1 1 3 1 4 2 1 1 2 2 3 3l37 37c4 4 6 9 6 14 0 3 0 6-1 8-1 2-3 5-5 7l0 0c-2 2-4 3-6 4-3 1-5 1-8 1-2 0-5 0-8-1-2-1-4-2-6-4 0 0 0-1 0-1l-38-37c-2-2-3-4-4-6l0-1c-1-2-2-5-2-7 0-3 1-5 2-8 1-2 2-4 4-6l0 0c1-1 2-2 3-3 2-1 3-1 4-2 1 0 2-1 3-1l1 0c1 0 2 0 4 0 1 0 2 0 3 0z m-60 23c3 1 5 3 6 4l1 1c1 1 3 4 4 6 1 2 2 5 2 8l0 53c0 3-1 5-2 8-1 2-3 4-4 6-2 2-4 3-7 5-2 0-5 1-8 1-2 0-5 0-7-1l0 0c-3-1-5-3-6-5l-1 0c-2-2-3-4-4-6-1-3-2-5-2-8l0-53c0-3 1-6 2-8 1-2 2-5 4-6 2-2 4-4 7-5 2-1 5-1 7-1 3 0 6 0 8 1z m-97-129l-37-37c-2-2-4-4-5-6-1-3-1-5-1-8 0-3 0-5 1-8 1-2 3-4 5-6l0 0c1-1 2-2 3-3 1-1 2-1 3-2 2-1 5-1 8-1 1 0 2 0 4 0 1 0 2 1 3 1 2 1 3 1 4 2l0 0c1 1 2 2 3 2 0 1 0 1 0 1l37 37 1 0c1 2 3 4 4 7 1 2 1 5 1 7 0 3 0 6-1 8-1 2-3 5-4 7l-1 0c-1 2-3 3-6 4l0 0c-2 1-5 2-8 2-2 0-5-1-7-2-3-1-5-2-7-4 0 0 0 0 0-1z m11 58c-1 3-2 5-4 7l-1 0c-2 2-4 3-6 4-2 1-5 2-8 2l-53 0c-3 0-5-1-8-2-2-1-4-2-6-4l0 0c-2-2-3-4-4-7-1-2-2-5-2-7 0-3 1-6 2-8 1-3 2-5 4-7 2-1 4-3 6-4 3-1 5-1 8-1l53 0c3 0 6 0 8 1 2 1 4 2 6 4l1 1c2 2 3 4 4 6 1 2 1 5 1 8 0 2 0 5-1 7z m-19 116c-2 1-5 2-7 2-3 0-6-1-8-2-3-1-5-2-7-4l0 0c-2-2-3-4-4-7-1-2-2-5-2-7 0-3 1-6 2-8 1-2 2-5 4-7l38-37c1-1 2-2 3-3l0 0c1 0 2-1 3-2l0 0c1 0 3 0 4-1l0 0c1 0 3 0 4 0 1 0 3 0 4 0 1 0 2 1 4 1 1 1 2 2 3 2 1 1 2 2 3 2l0 1c2 2 4 4 5 6 1 3 1 5 1 8 0 3 0 5-1 8-1 2-3 4-4 6l-38 38c-2 2-4 3-7 4z m366-413l-98 98c-1 2-2 2-3 3l0 0c-1 1-2 1-3 2l-1 0c-1 0-2 1-4 1-1 0-2 0-3 0-1 0-2 0-3 0-1 0-3 0-4-1l0 0c-2 0-3-1-5-2-1-1-2-2-3-3-1-1-2-2-3-4l-26-45c-1-1-2-2-3-3-2-1-6 1-7 3l-86 217c-1 2-1 3 0 4 1 3 4 4 7 3l216-86c2-1 3-2 3-3 2-2 1-5-2-7l-45-26c-2-1-3-2-4-3l0 0c-1-1-2-2-3-3-1-2-2-3-2-4-1-2-1-3-1-5 0-2 0-3 0-5 0-1 0-3 1-4 0-1 1-3 2-4 0-1 1-3 2-4 0 0 1 0 1 0l98-98c2-2 2-5 0-7l-14-14c-2-2-5-2-7 0z"/>
<glyph glyph-name="cut" unicode="&#33;" d="M89 468c7 3 15 4 23 4 8 0 15-1 22-4 7-3 14-7 19-13 6-5 10-12 13-19 3-7 5-15 5-23 0-3-1-7-1-11-1-3-2-7-4-10l0-1c-1-3-3-6-5-9l0-1c-2-3-4-6-7-8 0-1-1-1-1-2-3-2-6-5-9-7-3-2-6-4-10-5l0 0c-4-2-7-3-11-3-4-1-8-1-11-1-8 0-16 1-23 4-7 3-14 7-19 13-5 5-10 12-13 19-3 7-4 14-4 22 0 8 1 16 4 23 3 7 8 14 13 19 6 6 12 10 19 13z m80-140l68-68c2-2 2-6 0-8l-68-68c-2-2-4-2-7-1-3 2-7 4-11 6-3 2-7 3-11 4-5 1-9 2-14 3-5 1-9 1-14 1-14 0-26-3-38-7-12-5-23-13-32-22-9-9-16-20-21-32-5-11-8-24-8-37 0-14 3-27 8-38 5-12 12-23 21-32 9-9 20-16 32-22 12-4 24-7 38-7 27 0 51 11 69 29 9 9 17 20 22 32 5 11 7 24 7 38 0 4 0 9-1 14 0 4-2 9-3 14-1 3-2 7-4 11-2 4-4 8-6 11-1 2-1 5 1 7l296 296c2 2 3 4 4 6 1 3 2 5 2 8 0 3-1 5-2 8-1 2-2 4-4 6l0 0c-2 2-4 3-6 4-3 1-5 2-8 2-3 0-5-1-7-2l0 0c-3-1-5-2-7-4l-192-192c-2-2-5-2-8 0l-68 68c-2 2-2 5-1 7 2 3 4 7 6 11 2 4 3 8 4 11 1 5 3 10 3 14 1 5 1 10 1 14 0 28-11 52-29 70-9 9-20 17-32 22-11 4-24 7-37 7-14 0-26-3-38-7-12-5-23-13-32-22-9-9-16-20-21-32-5-11-8-24-8-38 0-13 3-26 8-37 5-12 12-23 21-32 9-9 20-17 32-22 12-4 24-7 38-7 5 0 9 0 14 1 5 1 9 2 14 3 4 1 8 3 11 4 4 2 8 4 11 6 2 1 5 1 7-1z m306-301c1-1 3-1 4-1 1 0 3 0 4 1 1 0 3 0 4 1 1 0 2 1 3 2 1 0 2 1 3 2 2 2 3 4 4 6 1 3 2 6 2 8 0 3-1 5-2 8-1 2-2 4-4 6l-145 145c-2 2-4 3-6 4-3 1-6 2-8 2-3 0-5-1-8-2-2-1-4-2-6-4-2-2-3-4-4-7-1-2-2-4-2-7 0-3 1-5 2-8 1-2 2-4 4-6l145-145c1-1 2-2 3-2l0 0c1-1 2-2 4-2 1-1 2-1 3-1z m-322 114l1-1c3-3 5-6 7-9 2-3 4-7 5-10 2-4 3-7 4-11 0-4 1-8 1-11 0-8-2-16-5-23-3-7-7-14-13-19-5-5-12-10-19-13-7-3-14-4-22-4-8 0-16 1-23 4-7 3-13 7-19 13l0 0c-5 5-10 12-13 19-3 7-4 15-4 23 0 8 1 15 4 22 3 7 8 14 13 19 5 6 12 10 19 13 7 3 15 5 23 5 3 0 7-1 11-2 4 0 7-1 11-3 3-1 7-3 10-5 3-2 6-5 9-7z"/>
<glyph glyph-name="dashboard" unicode="&#34;" d="M121 93c0 3 0 5-1 7l-1 1c-1 3-3 5-5 7-2 1-4 3-6 4-3 0-5 1-8 1-3-1-5-1-7-2l-21-10c-2-2-5-1-7 2-4 7-7 15-10 23-3 7-6 15-8 23-2 9-4 18-5 27-1 9-2 18-2 28 0 6 1 13 1 19 1 7 2 13 3 20 1 5 2 11 3 16 2 5 3 11 5 16l1 0c1 3 4 4 6 3l24-11c0-1 1-1 2-1 0 0 1-1 2-1 1 0 1 0 2 0 1 0 1 0 2 0 2 0 4 0 6 0 1 1 3 2 5 3 1 1 3 2 4 3 1 2 2 3 3 5 1 2 2 5 2 7l0 1c0 2 0 5-1 7-1 3-2 5-4 7-2 2-4 3-6 5l-23 10c0 0 0 1-1 1-2 1-3 5-1 7 9 13 19 26 30 37 11 11 24 20 37 29 13 8 28 15 43 20 14 5 29 9 45 11 0 0 1 0 1 0 3 0 5-2 5-5l0-25c0-2 1-5 1-7l1 0c1-3 2-5 4-7 2-2 4-3 6-4 3-1 5-2 8-2 3 0 5 1 8 2 2 1 4 2 6 4 2 2 3 4 4 7 1 2 2 5 2 7l0 25c0 3 3 5 6 5 5-1 10-1 14-2 5-1 10-2 15-4 6-1 11-3 17-5 6-2 11-4 17-7 2-1 5-1 7-1l0 0c3 0 5 0 8 1 2 1 5 2 6 4 2 2 4 4 5 6 1 3 2 5 2 8 0 2-1 5-2 7 0 3-2 5-4 7-1 2-4 3-6 5-8 3-17 7-25 9-9 3-17 6-26 7-9 2-18 4-27 5-9 1-18 1-27 1-17 0-34-2-50-5-16-3-33-8-48-14-15-7-30-14-44-24-14-9-27-20-39-32-12-12-22-25-32-39-9-14-17-28-23-44-7-15-11-31-15-47-3-17-5-33-5-50 0-13 1-25 3-38 2-12 5-24 9-36 3-12 8-24 13-35 6-12 12-23 19-33 1-2 2-3 3-4 1-1 2-2 4-3 1-1 3-1 5-2 1 0 3 0 4 0 1 0 2 0 3 0 0 0 1 0 2 0 0 1 1 1 2 1l0 0c1 0 1 1 2 1l41 20c2 1 4 3 6 5 2 2 3 4 4 6 1 3 1 5 1 7z m388 73c2 13 3 25 3 38 0 9-1 18-2 27-1 9-2 18-4 26-2 9-4 18-7 26-3 9-6 17-10 26-1 2-3 4-4 6-2 2-5 3-7 4-3 1-5 1-8 1-2 0-5 0-7-1-3-2-5-3-7-5-1-2-3-4-4-7-1-2-1-5-1-7l0 0c0-3 1-5 2-8 3-7 6-14 8-21 2-7 4-14 6-22 2-7 3-15 4-22 0-8 1-16 1-23 0-10-1-19-2-28-1-9-3-18-5-27-2-8-5-16-8-23-3-8-6-15-10-23l0 0c-2-3-5-4-7-2l-22 10c-2 1-5 1-7 2-3 0-5-1-8-2-2 0-4-2-6-3-2-2-4-4-5-6l0-1c-1-2-2-5-2-7 0-3 0-5 1-8 1-2 2-5 4-7 2-1 4-3 6-4l42-20c1 0 1-1 2-1l0 0c1 0 2 0 2-1 1 0 2 0 3 0 0 0 1 0 2 0 1 0 3 0 4 0 2 1 4 1 5 2 2 1 3 2 4 3 1 1 2 2 3 4 7 10 14 21 19 33 5 11 10 23 13 35 4 12 7 24 9 36z m-231 33c-3-5-6-8-8-10l0 0c-2-2-4-3-6-4-3-1-5-1-8-1-3 0-5 0-8 1-2 1-4 2-6 4l0 0c-2 2-4 5-5 7-1 2-1 5-1 8 0 2 0 5 1 7 1 3 3 5 5 7l0 0c1 1 5 4 10 8 5 4 12 9 20 15 6 4 13 9 21 15 9 6 18 12 26 18 2 1 5 2 6 0 3-1 3-5 2-7-7-9-13-18-19-26-5-8-10-15-15-21-6-9-11-16-15-21z m151 187c-2 1-4 2-6 2-3 0-5 0-7 0-2-1-4-2-6-3-12-8-43-30-77-53-20-14-42-29-61-42-16-12-30-22-40-29-9-7-16-12-18-15-6-6-10-12-13-20-3-7-5-15-5-22 0-8 2-16 5-23 3-7 7-14 13-20 3-3 6-5 9-7 3-2 6-4 10-6 4-1 7-2 11-3 4-1 8-1 12-1 4 0 8 0 12 1 4 1 7 2 11 3 4 2 7 4 10 6 3 2 6 4 9 7 4 4 14 16 26 33 12 17 27 39 42 60 15 22 31 44 43 63 12 17 23 32 28 40 2 2 2 4 3 6 1 3 1 5 1 7-1 2-1 5-2 7-1 2-2 4-4 5l0 0c-2 2-4 3-6 4z"/>
<glyph glyph-name="database" unicode="&#35;" d="M154 459c10 3 20 5 32 7 11 2 22 4 34 5 12 1 24 2 37 2 12 0 25-1 36-2 12-1 24-3 35-5 11-2 22-4 32-7 10-3 20-7 28-10 8-4 14-7 20-11 6-4 11-7 15-11 4-4 7-8 9-11 2-4 3-8 3-12 0-3-1-7-3-11-2-4-5-7-9-11-4-4-9-8-15-11-6-4-12-8-20-11-8-4-18-7-28-10-10-3-21-6-32-8-11-2-23-3-35-4-11-1-24-2-36-2-24 0-46 2-66 6-22 3-41 9-58 15-16 7-30 14-39 22-10 8-15 17-15 25 0 4 1 8 3 12 2 3 5 7 9 11 4 4 9 7 15 11 6 4 12 7 19 11 9 3 19 7 29 10z m207-407c-10-3-21-5-32-7-11-2-23-3-35-4-12-1-25-2-37-2-13 0-25 1-37 2-12 1-24 2-35 4-11 2-22 4-32 7-10 3-20 6-28 10-8 3-14 6-20 10-6 3-11 7-15 10-3 3-6 7-8 10-2 3-3 7-3 10l0 29c0 1 0 2 0 3 2 2 5 3 7 2l4-2c3-2 6-3 9-5 4-2 7-3 10-4 10-5 21-8 32-11 12-4 24-6 36-9 13-2 26-3 39-4 14-1 27-2 41-2 14 0 27 1 41 2 13 1 26 2 38 4 13 3 25 5 37 9 11 3 22 6 31 11 4 1 7 3 10 4 3 1 6 3 9 5l4 2c1 0 2 0 3 0 3 0 5-2 5-5l0-29c0-3-1-6-3-10l0 0c-2-3-5-7-9-10-4-3-9-7-14-10-6-4-13-7-20-10-8-4-18-7-28-10z m71 238c-2-4-5-7-9-10-4-4-9-7-14-11-6-3-13-6-20-9-8-4-18-7-28-10-10-3-21-5-32-7-11-2-23-3-35-4-12-1-25-2-37-2-13 0-25 1-37 2-12 1-24 2-35 4-11 2-22 4-32 7-10 3-20 6-28 10-8 3-14 6-20 9-6 4-11 7-15 11-3 3-6 6-8 10-2 3-3 7-3 10l0 32c0 1 0 1 0 2 2 3 5 4 8 2l3-2c3-2 6-3 10-5 3-2 6-3 9-5 10-4 21-8 32-12 12-3 24-6 37-8 12-3 25-4 39-5 13-2 26-2 40-2 14 0 27 0 40 2 14 1 27 2 39 5 13 2 25 5 36 8 12 4 22 8 32 12 4 2 7 3 10 5 3 1 7 3 10 5l3 2c1 0 2 1 3 1 3 0 5-3 5-5l0-32c0-3-1-7-3-10z m0-99c-2-3-5-7-9-10-4-3-9-7-14-11-6-3-13-6-20-9-8-4-18-7-28-10-10-3-21-5-32-7-11-2-23-3-35-4-12-1-25-2-37-2-13 0-25 1-37 2-12 1-24 2-35 4-11 2-22 4-32 7-10 3-20 6-28 10-8 3-14 6-20 9-6 4-11 8-15 11-3 3-6 7-8 10-2 3-3 7-3 10l0 1 0 1 0 27c0 1 0 2 0 3 2 2 5 3 7 2l4-2c3-2 6-3 9-5 4-2 7-3 10-5 10-4 21-7 32-10 12-4 24-6 36-9 13-2 26-3 39-4 14-2 27-2 41-2 14 0 27 0 41 2 13 1 26 2 38 4 13 3 25 5 37 9 11 3 22 6 31 10 4 2 7 3 10 5l0 0c4 2 7 3 9 5l4 2c1 0 2 0 3 0 3 0 5-2 5-5l0-29c0-3-1-6-3-10z m-388-111c3-7 8-14 14-21 6-6 13-12 22-18 8-6 18-11 29-15 10-4 21-8 32-11 12-4 24-6 36-8 13-3 26-4 39-5 14-1 27-2 41-2 14 0 27 1 41 2 13 1 26 2 38 5 13 2 25 4 37 8 11 3 22 7 31 11 12 4 21 9 30 15 9 6 16 12 22 18 6 7 11 14 14 21 3 7 4 14 4 22l0 301c0 1 0 1 0 2 0 8-1 15-4 23-3 7-8 14-14 21-6 7-13 13-22 19-9 6-18 12-30 17-10 4-20 8-32 11-11 4-23 7-36 9-12 2-25 4-39 5-13 1-26 2-40 2-14 0-27-1-40-2-14-1-27-3-39-5-13-2-25-5-37-9-11-3-22-7-32-11-11-5-21-11-29-17-9-6-16-12-22-19-6-7-11-14-14-22-3-7-5-15-5-23 1-98-4-205 0-302l0 0c1-8 2-15 5-22z"/>
<glyph glyph-name="down" unicode="&#36;" d="M478 388l-218-218c-2-3-6-3-8 0l-218 218c-2 2-4 3-7 4-2 1-5 2-7 2-3 0-5-1-8-2l0 0c-2-1-4-2-6-4l0 0c-2-2-4-4-5-6 0-3-1-5-1-8 0-3 1-5 1-8 1-2 3-4 5-6l236-236c2-2 4-3 6-4 3-1 5-2 8-2 3 0 5 1 8 2 2 1 4 2 6 4l236 236c1 1 2 2 3 3 0 1 1 2 1 4 1 1 1 2 2 3l0 0c0 2 0 3 0 4 0 1 0 3 0 4-1 1-1 3-2 4 0 1-1 2-1 3-1 1-2 2-3 3-2 2-4 3-6 4-3 1-5 2-8 2-2 0-5-1-7-2-3-1-5-2-7-4z"/>
<glyph glyph-name="download" unicode="&#37;" d="M236 492l0-307c0-2 0-3-1-4-2-2-6-2-8 0l-134 134c-2 2-4 4-7 5-2 1-5 1-7 1-3 0-5 0-7-1l-1 0c-2-1-4-3-6-4l0-1c-2-1-3-4-4-6-1-2-2-5-2-8 0-2 1-5 2-7 1-2 2-5 4-7l177-177c2-2 4-3 6-4 3-1 5-1 8-1 3 0 5 0 8 1 2 1 4 2 6 4l177 177c1 1 2 2 3 3 0 2 1 3 1 4 1 1 1 2 2 3l0 1c0 1 0 2 0 3 0 2 0 3 0 4-1 2-1 3-2 4 0 1-1 2-1 3-1 1-2 3-3 3-2 2-4 4-6 5-3 1-5 1-8 1-3 0-5 0-8-1-2-1-4-3-6-4l-134-135c-1-1-3-2-4-2-3 0-5 3-5 6l0 307c0 3-1 5-2 8-1 2-2 4-4 6l0 0c-2 2-4 4-6 5-3 1-5 1-8 1-3 0-5 0-8-1-2-1-4-3-6-5-2-2-3-4-4-6l0 0c-1-3-2-5-2-8z m-224-491c3 0 5-1 8-1l472 0c3 0 5 1 8 1 2 1 4 3 6 5l0 0c2 2 3 4 5 6 0 3 1 5 1 8 0 5-2 10-6 14-2 2-4 3-6 4-3 1-5 2-8 2l-472 0c-3 0-5-1-8-2l0 0c-2-1-4-2-6-4l0 0c-2-2-4-4-5-7-1-2-1-4-1-7 0-6 2-11 6-14 2-2 4-3 6-5z"/>
<glyph glyph-name="download2" unicode="&#38;" d="M67 0l378 0c9 0 18 2 26 5 8 3 15 8 21 15 7 6 11 13 15 21 3 8 5 17 5 26l0 71c0 3-1 5-2 7-1 3-2 5-4 7-2 2-4 3-6 4-3 1-5 2-8 2-3 0-5-1-7-2-3-1-5-2-7-4l0 0c-2-2-3-4-4-7-1-2-2-4-2-7l0-71c0-4 0-7-2-10-1-4-3-7-5-9l-1 0c-2-3-5-5-9-6-3-2-6-2-10-2l-378 0c-4 0-7 0-10 2-4 1-7 3-9 6-3 2-5 5-6 9-2 3-2 6-2 10l0 71c0 3-1 5-2 7-1 3-2 5-4 7-2 2-4 3-7 4-2 1-4 2-7 2-3 0-5-1-8-2-2-1-4-2-6-4l0 0c-2-2-3-4-4-6l-1-1c0-2-1-4-1-7l0-71c0-9 2-18 5-26 3-8 8-15 15-21 6-7 13-12 21-15 8-3 17-5 26-5z m169 492l0-307c0-2 0-3-1-4-2-2-6-2-8 0l-134 134c-2 2-4 4-7 5-2 1-5 1-7 1-3 0-5 0-8-1l0 0c-2-1-4-3-6-4l0-1c-2-1-4-4-4-6-1-2-2-5-2-8 0-2 1-5 2-7 0-2 2-5 4-7l177-177c2-2 4-3 6-4 3-1 5-2 8-2 3 0 5 1 8 2 2 1 4 2 6 4l177 177c1 1 2 2 3 3 0 1 1 3 1 4 1 1 1 2 2 3l0 1c0 1 0 2 0 3 0 2 0 3 0 4-1 2-1 3-2 4 0 1-1 2-1 3-1 1-2 2-3 3-2 2-4 4-6 5-3 1-5 1-8 1-2 0-5 0-7-1-3-1-5-3-7-4l-134-135c-1-1-3-2-4-2-3 0-5 3-5 6l0 307c0 3-1 5-2 8-1 2-2 4-4 6l0 0c-2 2-4 3-6 4-3 1-5 2-8 2-3 0-5-1-8-2-2-1-4-2-6-4-2-2-3-4-4-6l0 0c-1-3-2-5-2-8z"/>
</font>
</defs>
</svg>
